<?xml version="1.0" encoding="utf-8"?>
<!-- Generator: Adobe Illustrator 19.0.0, SVG Export Plug-In . SVG Version: 6.00 Build 0)  -->
<svg version="1.1" id="Capa_1" xmlns="http://www.w3.org/2000/svg" xmlns:xlink="http://www.w3.org/1999/xlink" x="0px" y="0px"
	 viewBox="-41 164.9 512 512" style="enable-background:new -41 164.9 512 512;" xml:space="preserve">
<style type="text/css">
	.st0{fill:#FFF3C0;}
	.st1{fill:#FFE888;}
	.st2{fill:#5DABC6;}
	.st3{fill:#EF9050;}
	.st4{fill:#A9B853;}
	.st5{fill:#E5CB5E;}
	.st6{fill:#487F93;}
	.st7{fill:#C66F34;}
	.st8{fill:#656691;}
	.st9{fill:#575988;}
</style>
<rect x="8.5" y="204.3" class="st0" width="321.2" height="472.6"/>
<rect x="169.1" y="204.3" class="st1" width="160.6" height="472.6"/>
<polygon class="st2" points="446.9,291.4 446.9,618.6 409.3,676.9 393.2,676.9 355.5,618.6 355.5,291.4 "/>
<polygon class="st0" points="446.9,618.4 446.9,618.6 409.3,676.9 393.2,676.9 355.5,618.6 355.5,618.4 "/>
<rect x="355.5" y="291.4" class="st3" width="91.4" height="70.7"/>
<polygon class="st4" points="94.6,364.8 62.2,331.1 82.1,311.9 95.9,326.2 126.1,298.8 144.7,319.3 "/>
<polygon class="st4" points="94.6,452.7 62.2,419 82.1,399.8 95.9,414.1 126.1,386.7 144.7,407.2 "/>
<polygon class="st4" points="94.6,540.6 62.2,506.9 82.1,487.7 95.9,502 126.1,474.6 144.7,495.1 "/>
<polygon class="st4" points="94.6,628.5 62.2,594.8 82.1,575.6 95.9,589.9 126.1,562.5 144.7,583 "/>
<g>
	<rect x="169.1" y="323.4" class="st5" width="108.9" height="27.7"/>
	<rect x="169.1" y="411" class="st5" width="108.9" height="27.7"/>
	<rect x="169.1" y="498.7" class="st5" width="108.9" height="27.7"/>
	<rect x="169.1" y="586.4" class="st5" width="108.9" height="27.7"/>
</g>
<polygon class="st6" points="446.9,291.4 446.9,618.6 409.3,676.9 401.2,676.9 401.2,291.4 "/>
<rect x="401.2" y="291.4" class="st7" width="45.7" height="70.7"/>
<polygon class="st1" points="401.2,618.4 446.9,618.4 446.9,618.6 409.3,676.9 401.2,676.9 "/>
<circle id="XMLID_3_" class="st8" cx="169.1" cy="203.9" r="39"/>
<rect id="XMLID_2_" x="78.2" y="203.9" class="st8" width="90.9" height="64.9"/>
<rect id="XMLID_1_" x="165.7" y="203.9" class="st9" width="90.9" height="64.9"/>
</svg>
