<?xml version="1.0" encoding="utf-8"?>
<!-- Generator: Adobe Illustrator 19.0.0, SVG Export Plug-In . SVG Version: 6.00 Build 0)  -->
<svg version="1.1" id="Warstwa_1" xmlns="http://www.w3.org/2000/svg" xmlns:xlink="http://www.w3.org/1999/xlink" x="0px" y="0px"
	 viewBox="-42 165.9 511 511" style="enable-background:new -42 165.9 511 511;" xml:space="preserve">
<style type="text/css">
	.st0{fill:#656691;}
	.st1{fill:#575988;}
	.st2{fill:#FCD0A3;}
	.st3{fill:#FFE471;}
	.st4{fill:#F2CA20;}
	.st5{fill:#FFB983;}
</style>
<path class="st0" d="M420.7,446.1c0,127.5-103.4,230.8-230.8,230.8c-31.3,0-61.1-6.2-88.3-17.5C27.2,628.6-27.5,560.1-38.8,477.8
	c-1.4-10.4-2.2-21-2.2-31.7c0-127.5,103.3-230.8,230.8-230.8C317.3,215.2,420.7,318.6,420.7,446.1z"/>
<path class="st1" d="M189.8,215.2c-12.2,0-24.2,1-35.9,2.8c110.5,17.2,195,112.8,195,228.1c0,115.3-84.5,210.8-195,228.1
	c11.7,1.8,23.7,2.8,35.9,2.8c127.5,0,230.8-103.3,230.8-230.8C420.7,318.6,317.3,215.2,189.8,215.2z"/>
<path class="st2" d="M449.5,429l-131.8,87.3c-9.4,6.2-20.8,8.7-31.9,6.9c-11.1-1.8-22.5,0.7-32,6.9l-17.6,11.7l-98.8-145.6
	l24.2-104.7c1.9-8.2,2.8-16.4,2.8-24.6c0-21.3-6.2-42.3-18.2-60.3c-2.9-4.4-4.3-9.5-4.3-14.4c0-8.5,4.1-16.8,11.7-21.8
	c10.2-6.8,23.8-5.5,32.6,3l15.7,15.2c18,17.4,31.8,38.6,40.5,62.1l8.5,22.9l87.7-57.9c14-9.3,32.9-5.2,41.9,9.1
	c8.6,13.8,4.2,32.1-9.4,41.1c-0.2,0.1-0.2,0.3-0.1,0.4c0.1,0.1,0.2,0.2,0.4,0.2c3.5-1.3,7.1-2,10.7-2c5.7,0,11.4,1.7,16.3,4.8
	c3.4,2.2,6.3,5,8.7,8.6c4.5,6.8,5.9,14.9,4.4,22.3c-2.3,11.7-10.9,17.8-12.5,18.9c-0.3,0.2-0.4,0.6-0.2,0.9c0,0,0,0,0,0
	c0.2,0.3,0.6,0.3,0.8,0.2c2.4-0.6,4.8-0.9,7.3-0.9c5.9,0,11.8,1.7,16.9,4.9c3.4,2.2,6.4,5,8.7,8.6c9.1,13.8,5.3,32.3-8.4,41.4
	c-0.3,0.2-0.7,0.5-1,0.7c-0.2,0.2-0.3,0.4-0.2,0.6c0,0,0.1,0.1,0.1,0.1c0.2,0.1,0.4,0.1,0.6,0c8.6-2.9,17.9-1.6,25.4,3.3
	c3.5,2.2,6.5,5.2,8.9,8.9C467,401.3,463.3,419.9,449.5,429z"/>
<path class="st3" d="M237.4,569.4l-55.6,36.8l-80.3,53.2C27.2,628.6-27.5,560.1-38.8,477.8l93.2-61.7l56.7-37.6
	c6.5-4.3,15.3-2.5,19.7,4l110.7,167.2C245.8,556.3,244,565.1,237.4,569.4z"/>
<path class="st4" d="M237.4,569.4l-55.6,36.8L54.3,416.1l56.7-37.6c6.5-4.3,15.3-2.5,19.7,4l110.7,167.2
	C245.8,556.3,244,565.1,237.4,569.4z"/>
<g>
	<path class="st5" d="M398.4,269.1l-43.9,23.5c-6.2,3.3-13.9,1.6-18.1-4.1l34.6-22.4c0.1,0.1,0.2,0.2,0.4,0.2c3.5-1.3,7.1-2,10.7-2
		C387.9,264.4,393.6,266,398.4,269.1z"/>
	<path class="st5" d="M423.8,324.1L380.9,347c-6.2,3.3-13.9,1.6-18.1-4.1l34.6-22.4l1.5-0.7c0.2,0.3,0.6,0.3,0.8,0.2
		c2.4-0.6,4.8-0.9,7.3-0.9C412.9,319.2,418.8,320.9,423.8,324.1z"/>
	<path class="st5" d="M449,378.7l-37.8,20.2c-6.2,3.3-13.9,1.6-18.1-4.1l30-19.4c0.2,0.1,0.4,0.1,0.6,0
		C432.2,372.5,441.5,373.8,449,378.7z"/>
</g>
</svg>
