<?xml version="1.0" encoding="utf-8"?>
<!-- Generator: Adobe Illustrator 19.0.0, SVG Export Plug-In . SVG Version: 6.00 Build 0)  -->
<svg version="1.1" id="Capa_1" xmlns="http://www.w3.org/2000/svg" xmlns:xlink="http://www.w3.org/1999/xlink" x="0px" y="0px"
	 viewBox="-41 164.9 512 512" style="enable-background:new -41 164.9 512 512;" xml:space="preserve">
<style type="text/css">
	.st0{fill:#E3FAFF;}
	.st1{fill:#656691;}
	.st2{fill:#CCEAF2;}
	.st3{fill:#575988;}
	.st4{fill:#5DABC6;}
	.st5{fill:#487F93;}
	.st6{fill:#C66F34;}
	.st7{fill:#EF9050;}
</style>
<g>
	<path class="st0" d="M163.2,498.9l-6.8,6.8l-31.9,31.9l-10.3-10.3l-10.4-10.4l31.9-31.9l6.8-6.8l10.4,10.4L163.2,498.9z"/>
	<path class="st1" d="M465,363.4c0,50-19.5,97-54.8,132.3c-35.3,35.3-82.3,54.8-132.3,54.8c-45.1,0-87.7-15.8-121.6-44.8
		c-3.7-3.2-7.3-6.5-10.7-10c0,0,0,0,0,0c-3.5-3.5-6.8-7.1-10-10.8c-29-33.9-44.8-76.5-44.8-121.6c0-50,19.5-97,54.8-132.3
		c35.3-35.3,82.3-54.8,132.3-54.8s97,19.5,132.3,54.8c0,0,0,0,0,0C445.6,266.5,465,313.4,465,363.4L465,363.4z"/>
	<path class="st2" d="M163.2,498.9l-6.8,6.8l-31.9,31.9l-10.3-10.3l31.5-31.5l7.2-7.2L163.2,498.9z"/>
	<path class="st3" d="M465,363.4c0,50-19.5,97-54.8,132.3c-35.3,35.3-82.3,54.8-132.3,54.8c-45.1,0-87.7-15.8-121.6-44.8
		c-3.7-3.2-7.3-6.5-10.7-10l264.6-264.6C445.6,266.5,465,313.4,465,363.4L465,363.4z"/>
	<path class="st4" d="M164.9,553.7L131.6,587l-20.7,20.7l-52.6,52.6c-10.3,10.3-24.1,16-38.7,16s-28.3-5.7-38.7-16
		c-10.3-10.3-16-24.1-16-38.7s5.7-28.3,16-38.7l52.6-52.6l20.7-20.7l33.3-33.3l38.7,38.7L164.9,553.7z"/>
	<path class="st5" d="M126.3,515.1l38.7,38.7L131.6,587l-20.7,20.7l-52.6,52.6c-10.3,10.3-24.1,16-38.7,16s-28.3-5.7-38.7-16
		L126.3,515.1z"/>
	<path class="st0" d="M375.7,461.2c-26.1,26.1-60.8,40.5-97.8,40.5c-36.9,0-71.6-14.4-97.8-40.5c0,0,0,0,0,0
		c-26.1-26.1-40.4-60.8-40.4-97.8c0-37,14.4-71.7,40.4-97.8c26.1-26.1,60.8-40.5,97.8-40.5s71.7,14.4,97.8,40.5c0,0,0,0,0,0
		C429.6,319.5,429.6,407.3,375.7,461.2z"/>
	<path class="st1" d="M131.6,587l-20.7,20.7l-77.3-77.3l20.7-20.7L93,548.4L131.6,587z"/>
	<path class="st3" d="M72.2,569.1l20.7-20.7l38.7,38.7l-20.7,20.7L72.2,569.1z"/>
	<path class="st2" d="M375.7,461.2c-26.1,26.1-60.8,40.5-97.8,40.5c-36.9,0-71.6-14.4-97.8-40.5l195.6-195.6
		C429.6,319.5,429.6,407.3,375.7,461.2L375.7,461.2z"/>
	<g>
		<g>
			<circle class="st6" cx="272.1" cy="425.8" r="9.4"/>
		</g>
	</g>
	<g>
		<g>
			<path class="st7" d="M272.1,291.7c-22.9,0-41.5,18.6-41.5,41.5h18.7c0-12.6,10.2-22.8,22.8-22.8s22.8,10.2,22.8,22.8
				c0,6.1-2.4,11.8-6.7,16.1c-5.6,5.6-22.3,21.1-22.5,21.2l-3,2.8v33.8h18.7v-25.7c5.2-4.8,15.6-14.5,20-18.9
				c7.8-7.8,12.2-18.3,12.2-29.3C313.6,310.3,295,291.7,272.1,291.7z"/>
		</g>
	</g>
	<path class="st6" d="M281.5,407.1v-25.7c5.2-4.8,15.6-14.5,20-18.9c7.8-7.8,12.2-18.3,12.2-29.3c0-1.7-0.1-3.4-0.3-5.1l-50.5,50.5
		v28.5H281.5z"/>
</g>
</svg>
