<?xml version="1.0" encoding="iso-8859-1"?>
<!-- Generator: Adobe Illustrator 19.0.0, SVG Export Plug-In . SVG Version: 6.00 Build 0)  -->
<svg version="1.1" id="Capa_1" xmlns="http://www.w3.org/2000/svg" xmlns:xlink="http://www.w3.org/1999/xlink" x="0px" y="0px"
	 viewBox="0 0 511.999 511.999" style="enable-background:new 0 0 511.999 511.999;" xml:space="preserve">
<g>
	<g>
		<path d="M414.014,0H97.984c-27.23,0-49.382,22.153-49.382,49.382v413.235c0,27.229,22.153,49.382,49.382,49.382H346.54
			c4.142,0,7.5-3.358,7.5-7.5c0-4.142-3.358-7.5-7.5-7.5H97.984c-18.958,0-34.382-15.424-34.382-34.382V49.382
			C63.602,30.424,79.025,15,97.984,15h316.03c18.958,0,34.382,15.424,34.382,34.382v413.235c0,18.958-15.424,34.382-34.382,34.382
			H376.54c-4.142,0-7.5,3.358-7.5,7.5c0,4.142,3.358,7.5,7.5,7.5h37.474c27.229,0,49.382-22.153,49.382-49.382V49.382
			C463.396,22.153,441.244,0,414.014,0z"/>
	</g>
</g>
<g>
	<g>
		<path d="M414.016,35.189H173.54c-4.142,0-7.5,3.358-7.5,7.5c0,4.142,3.358,7.5,7.5,7.5h239.667v130.103H98.791V50.189h44.749
			c4.142,0,7.5-3.358,7.5-7.5c0-4.142-3.358-7.5-7.5-7.5H97.984c-7.826,0-14.192,6.367-14.192,14.193V181.1
			c0,7.826,6.367,14.192,14.192,14.192h316.03c7.826,0,14.193-6.366,14.193-14.192V49.382
			C428.207,41.556,421.84,35.189,414.016,35.189z"/>
	</g>
</g>
<g>
	<g>
		<path d="M406.513,209.779H293.317c-11.962,0-21.694,9.732-21.694,21.694v81.204c0,11.962,9.732,21.694,21.694,21.694h113.196
			c11.962,0,21.694-9.732,21.694-21.694v-81.204C428.207,219.511,418.475,209.779,406.513,209.779z M413.207,312.677
			c0,3.691-3.003,6.694-6.694,6.694H293.317c-3.691,0-6.694-3.003-6.694-6.694v-81.204c0-3.691,3.003-6.694,6.694-6.694h113.196
			c3.691,0,6.694,3.003,6.694,6.694V312.677z"/>
	</g>
</g>
<g>
	<g>
		<path d="M240.374,231.473c0-11.962-9.732-21.694-21.694-21.694H105.485c-11.962,0-21.694,9.732-21.694,21.694v81.204
			c0,11.962,9.732,21.694,21.694,21.694h113.196c11.962,0,21.694-9.732,21.694-21.694v-81.204H240.374z M225.375,312.677h-0.001
			c0,3.691-3.003,6.694-6.694,6.694H105.485c-3.691,0-6.694-3.003-6.694-6.694v-81.204c0-3.691,3.003-6.694,6.694-6.694h113.196
			c3.691,0,6.694,3.003,6.694,6.694V312.677z"/>
	</g>
</g>
<g>
	<g>
		<path d="M406.513,354.224H293.317c-11.962,0-21.694,9.732-21.694,21.694v81.204c0.001,11.962,9.732,21.694,21.694,21.694h113.196
			c11.962,0,21.694-9.732,21.694-21.694v-81.204C428.207,363.956,418.475,354.224,406.513,354.224z M413.208,457.123
			c0,3.691-3.003,6.694-6.694,6.694H293.317c-3.691,0-6.694-3.003-6.694-6.694v-81.204h0.001c0-3.691,3.003-6.694,6.694-6.694
			h113.196c3.691,0,6.694,3.003,6.694,6.694V457.123z"/>
	</g>
</g>
<g>
	<g>
		<path d="M218.68,354.225H105.485c-11.962,0-21.694,9.732-21.694,21.694v81.204c0,11.962,9.732,21.694,21.694,21.694h113.196
			c11.962,0,21.694-9.732,21.694-21.694v-81.204C240.374,363.957,230.642,354.225,218.68,354.225z M225.375,457.122h-0.001
			c0,3.691-3.003,6.694-6.694,6.694H105.485c-3.691,0-6.694-3.003-6.694-6.694v-81.204c0-3.691,3.003-6.694,6.694-6.694h113.196
			c3.691,0,6.694,3.003,6.694,6.694V457.122z"/>
	</g>
</g>
<g>
	<g>
		<path d="M176.918,99.952c-4.142,0-7.5,3.357-7.5,7.5v14.312c0,4.142,3.358,7.5,7.5,7.5c4.142,0,7.5-3.358,7.5-7.5v-14.312
			C184.418,103.309,181.06,99.952,176.918,99.952z"/>
	</g>
</g>
<g>
	<g>
		<path d="M335.08,99.952c-4.142,0-7.5,3.357-7.5,7.5v14.312c0,4.142,3.358,7.5,7.5,7.5c4.142,0,7.5-3.358,7.5-7.5v-14.312
			C342.58,103.309,339.222,99.952,335.08,99.952z"/>
	</g>
</g>
<g>
	<g>
		<path d="M280.453,115.121c-3.119-2.727-7.857-2.408-10.583,0.71c-3.373,3.859-8.429,6.072-13.871,6.072
			c-5.443,0-10.499-2.213-13.871-6.071c-2.726-3.119-7.464-3.437-10.583-0.711c-3.119,2.727-3.437,7.464-0.711,10.583
			c6.221,7.118,15.394,11.2,25.165,11.2s18.943-4.082,25.165-11.2C283.891,122.586,283.572,117.848,280.453,115.121z"/>
	</g>
</g>
<g>
	<g>
		<path d="M184.533,263.137H171.02v-13.513c0-3.377-3.519-6.756-8.868-6.756c-5.067,0-9.008,3.378-9.008,6.756v13.513H139.49
			c-3.941,0-6.616,3.941-6.616,9.009c0,5.349,2.674,8.868,6.616,8.868h13.654v13.653c0,3.941,3.941,6.616,9.008,6.616
			c5.349,0,8.868-2.675,8.868-6.616v-13.653h13.513c3.378,0,6.757-3.519,6.757-8.868
			C191.29,267.078,187.912,263.137,184.533,263.137z"/>
	</g>
</g>
<g>
	<g>
		<path d="M184.332,426.06l-9.656-9.654l9.555-9.555c2.389-2.389,2.289-7.266-1.493-11.049c-3.583-3.583-8.759-3.981-11.147-1.592
			l-9.555,9.555l-9.555-9.555c-2.389-2.388-7.266-2.289-11.047,1.493c-3.583,3.583-3.981,8.759-1.593,11.147l9.556,9.555
			l-9.655,9.655c-2.787,2.787-1.891,7.465,1.692,11.048c3.782,3.782,8.162,4.38,10.949,1.593l9.655-9.655l9.654,9.654
			c2.787,2.787,7.465,1.891,11.048-1.692C186.522,433.226,187.119,428.846,184.332,426.06z"/>
	</g>
</g>
<g>
	<g>
		<path d="M368.143,263.137h-36.597c-3.941,0-6.616,3.941-6.616,9.009c0,5.349,2.675,8.868,6.616,8.868h36.597
			c3.379,0,6.757-3.519,6.757-8.868C374.9,267.078,371.522,263.137,368.143,263.137z"/>
	</g>
</g>
<g>
	<g>
		<path d="M368.144,421.868h-36.597c-3.941,0-6.616,3.942-6.616,9.009c0,5.35,2.675,8.868,6.616,8.868h36.597
			c3.379,0,6.756-3.519,6.756-8.868C374.901,425.811,371.523,421.868,368.144,421.868z"/>
	</g>
</g>
<g>
	<g>
		<path d="M368.144,393.295h-36.597c-3.941,0-6.616,3.941-6.616,9.009c0,5.348,2.675,8.867,6.616,8.867h36.597
			c3.379,0,6.756-3.519,6.756-8.867C374.901,397.237,371.523,393.295,368.144,393.295z"/>
	</g>
</g>
<g>
</g>
<g>
</g>
<g>
</g>
<g>
</g>
<g>
</g>
<g>
</g>
<g>
</g>
<g>
</g>
<g>
</g>
<g>
</g>
<g>
</g>
<g>
</g>
<g>
</g>
<g>
</g>
<g>
</g>
</svg>
