<?xml version="1.0" encoding="iso-8859-1"?>
<!-- Generator: Adobe Illustrator 19.0.0, SVG Export Plug-In . SVG Version: 6.00 Build 0)  -->
<svg xmlns="http://www.w3.org/2000/svg" xmlns:xlink="http://www.w3.org/1999/xlink" version="1.1" id="Layer_1" x="0px" y="0px" viewBox="0 0 512 512" style="enable-background:new 0 0 512 512;" xml:space="preserve" width="512" height="512">
<g>
	<g>
		<path style="fill:#506366;" d="M414.015,7.5H97.985c-23.131,0-41.882,18.751-41.882,41.882v413.235    c0,23.131,18.751,41.882,41.882,41.882h316.03c23.131,0,41.882-18.751,41.882-41.882V49.382    C455.897,26.251,437.146,7.5,414.015,7.5z"/>
		<path style="fill:#3A484A;" d="M116.102,462.618V49.382c0-23.131,18.751-41.882,41.882-41.882h-60    c-23.131,0-41.882,18.751-41.882,41.882v413.235c0,23.131,18.751,41.882,41.882,41.882h60    C134.854,504.5,116.102,485.749,116.102,462.618z"/>
		<path style="fill:#58B78C;" d="M97.985,187.792c-3.69,0-6.692-3.003-6.692-6.692V49.382c0-3.69,3.002-6.693,6.692-6.693h316.03    c3.69,0,6.692,3.003,6.692,6.693V181.1c0,3.69-3.003,6.692-6.692,6.692H97.985z"/>
		<path style="fill:#B8B8B8;" d="M406.514,217.279H293.318c-7.839,0-14.194,6.355-14.194,14.194v81.204    c0,7.839,6.355,14.194,14.194,14.194h113.196c7.839,0,14.194-6.355,14.194-14.194v-81.204    C420.708,223.634,414.353,217.279,406.514,217.279z"/>
		<path style="fill:#B8B8B8;" d="M218.681,217.279H105.485c-7.839,0-14.194,6.355-14.194,14.194v81.204    c0,7.839,6.355,14.194,14.194,14.194h113.196c7.839,0,14.194-6.355,14.194-14.194v-81.204    C232.875,223.634,226.52,217.279,218.681,217.279z"/>
		<path style="fill:#B8B8B8;" d="M406.514,361.725H293.318c-7.839,0-14.194,6.355-14.194,14.194v81.203    c0,7.839,6.355,14.194,14.194,14.194h113.196c7.839,0,14.194-6.355,14.194-14.194v-81.203    C420.708,368.08,414.353,361.725,406.514,361.725z"/>
		<path style="fill:#B8B8B8;" d="M218.681,361.725H105.485c-7.839,0-14.194,6.355-14.194,14.194v81.203    c0,7.839,6.355,14.194,14.194,14.194h113.196c7.839,0,14.194-6.355,14.194-14.194v-81.203    C232.875,368.08,226.52,361.725,218.681,361.725z"/>
		<path style="fill:#46926F;" d="M97.985,42.689c-3.69,0-6.692,3.002-6.692,6.693V181.1c0,3.69,3.002,6.692,6.692,6.692h18.118    V49.382c0-2.279,0.188-4.513,0.539-6.693H97.985z"/>
		<path style="fill:#999999;" d="M105.485,217.279c-7.839,0-14.194,6.355-14.194,14.194v81.204c0,7.839,6.355,14.194,14.194,14.194    h10.617V217.279H105.485z"/>
		<path style="fill:#999999;" d="M116.102,361.725h-10.617c-7.839,0-14.194,6.355-14.194,14.194v81.203    c0,7.839,6.355,14.194,14.194,14.194h11.527c-0.593-2.807-0.91-5.715-0.91-8.698V361.725z"/>
	</g>
	<g>
		<path d="M414.015,0H97.985C70.755,0,48.603,22.153,48.603,49.382v413.235c0,27.229,22.153,49.382,49.382,49.382h248.556    c4.142,0,7.5-3.358,7.5-7.5s-3.358-7.5-7.5-7.5H97.985c-18.958,0-34.382-15.424-34.382-34.382V49.382    C63.603,30.424,79.026,15,97.985,15h316.03c18.958,0,34.382,15.424,34.382,34.382v413.235c0,18.958-15.424,34.382-34.382,34.382    h-37.474c-4.142,0-7.5,3.358-7.5,7.5s3.358,7.5,7.5,7.5h37.474c27.229,0,49.382-22.153,49.382-49.382V49.382    C463.397,22.153,441.245,0,414.015,0z"/>
		<path d="M428.208,181.1V49.382c0-7.826-6.367-14.193-14.192-14.193H173.541c-4.142,0-7.5,3.358-7.5,7.5s3.358,7.5,7.5,7.5h239.667    v130.103H98.792V50.189h44.749c4.142,0,7.5-3.358,7.5-7.5s-3.358-7.5-7.5-7.5H97.985c-7.826,0-14.192,6.367-14.192,14.193V181.1    c0,7.826,6.367,14.192,14.192,14.192h316.03C421.841,195.292,428.208,188.926,428.208,181.1z"/>
		<path d="M406.514,209.779H293.318c-11.962,0-21.694,9.732-21.694,21.694v81.204c0,11.962,9.732,21.694,21.694,21.694h113.196    c11.962,0,21.694-9.732,21.694-21.694v-81.204C428.208,219.511,418.476,209.779,406.514,209.779z M413.208,312.677    c0,3.691-3.003,6.694-6.694,6.694H293.318c-3.691,0-6.694-3.003-6.694-6.694v-81.204c0-3.691,3.003-6.694,6.694-6.694h113.196    c3.691,0,6.694,3.003,6.694,6.694V312.677z"/>
		<path d="M240.375,231.473c0-11.962-9.732-21.694-21.694-21.694H105.486c-11.962,0-21.694,9.732-21.694,21.694v81.204    c0,11.962,9.732,21.694,21.694,21.694h113.196c11.962,0,21.694-9.732,21.694-21.694V231.473z M225.375,312.677    c0,3.691-3.003,6.694-6.694,6.694H105.486c-3.691,0-6.694-3.003-6.694-6.694v-81.204c0-3.691,3.003-6.694,6.694-6.694h113.196    c3.691,0,6.694,3.003,6.694,6.694V312.677z"/>
		<path d="M293.318,478.816h113.196c11.962,0,21.694-9.732,21.694-21.694v-81.204c0-11.962-9.732-21.694-21.694-21.694H293.318    c-11.962,0-21.694,9.732-21.694,21.694v81.204C271.625,469.084,281.356,478.816,293.318,478.816z M286.625,375.919    c0-3.691,3.003-6.694,6.694-6.694h113.196c3.691,0,6.694,3.003,6.694,6.694v81.204c0,3.691-3.003,6.694-6.694,6.694H293.318    c-3.691,0-6.694-3.003-6.694-6.694V375.919z"/>
		<path d="M218.681,354.225H105.486c-11.962,0-21.694,9.732-21.694,21.694v81.204c0,11.962,9.732,21.694,21.694,21.694h113.196    c11.962,0,21.694-9.732,21.694-21.694v-81.204C240.375,363.957,230.643,354.225,218.681,354.225z M225.375,457.122    c0,3.691-3.003,6.694-6.694,6.694H105.486c-3.691,0-6.694-3.003-6.694-6.694v-81.204c0-3.691,3.003-6.694,6.694-6.694h113.196    c3.691,0,6.694,3.003,6.694,6.694V457.122z"/>
		<path d="M184.419,121.764v-14.312c0-4.143-3.358-7.5-7.5-7.5s-7.5,3.357-7.5,7.5v14.312c0,4.142,3.358,7.5,7.5,7.5    S184.419,125.906,184.419,121.764z"/>
		<path d="M342.581,121.764v-14.312c0-4.143-3.358-7.5-7.5-7.5s-7.5,3.357-7.5,7.5v14.312c0,4.142,3.358,7.5,7.5,7.5    S342.581,125.906,342.581,121.764z"/>
		<path d="M256,136.904c9.771,0,18.943-4.082,25.165-11.2c2.726-3.118,2.408-7.856-0.711-10.583    c-3.119-2.727-7.857-2.408-10.583,0.71c-3.373,3.859-8.429,6.072-13.871,6.072c-5.443,0-10.499-2.213-13.871-6.071    c-2.726-3.119-7.464-3.437-10.583-0.711c-3.119,2.727-3.437,7.464-0.711,10.583C237.056,132.822,246.229,136.904,256,136.904z"/>
		<path d="M184.534,263.137h-13.513v-13.513c0-3.377-3.519-6.756-8.868-6.756c-5.067,0-9.008,3.378-9.008,6.756v13.513h-13.654    c-3.941,0-6.616,3.941-6.616,9.009c0,5.349,2.674,8.868,6.616,8.868h13.654v13.653c0,3.941,3.941,6.616,9.008,6.616    c5.349,0,8.868-2.675,8.868-6.616v-13.653h13.513c3.378,0,6.757-3.519,6.757-8.868    C191.291,267.078,187.913,263.137,184.534,263.137z"/>
		<path d="M174.677,416.406l9.555-9.555c2.389-2.389,2.289-7.266-1.493-11.049c-3.583-3.583-8.759-3.981-11.147-1.592l-9.555,9.555    l-9.555-9.555c-2.389-2.388-7.266-2.289-11.047,1.493c-3.583,3.583-3.981,8.759-1.593,11.147l9.556,9.555l-9.655,9.655    c-2.787,2.787-1.891,7.465,1.692,11.048c3.782,3.782,8.162,4.38,10.949,1.593l9.655-9.655l9.654,9.654    c2.787,2.787,7.465,1.891,11.048-1.692c3.782-3.782,4.379-8.162,1.592-10.948L174.677,416.406z"/>
		<path d="M368.144,263.137h-36.597c-3.941,0-6.616,3.941-6.616,9.009c0,5.349,2.675,8.868,6.616,8.868h36.597    c3.379,0,6.757-3.519,6.757-8.868C374.901,267.078,371.523,263.137,368.144,263.137z"/>
		<path d="M331.548,439.745h36.597c3.379,0,6.756-3.519,6.756-8.868c0-5.066-3.378-9.009-6.756-9.009h-36.597    c-3.941,0-6.616,3.942-6.616,9.009C324.932,436.227,327.607,439.745,331.548,439.745z"/>
		<path d="M331.548,411.171h36.597c3.379,0,6.756-3.519,6.756-8.867c0-5.067-3.378-9.009-6.756-9.009h-36.597    c-3.941,0-6.616,3.941-6.616,9.009C324.932,407.652,327.607,411.171,331.548,411.171z"/>
	</g>
</g>















</svg>
