<svg height="512pt" viewBox="0 -31 512.0005 512" width="512pt" xmlns="http://www.w3.org/2000/svg"><path d="m301.019531 135.0625v30.011719c0 8.402343-6.601562 15.007812-15.003906 15.007812h-60.027344c-8.40625 0-15.007812-6.605469-15.007812-15.007812v-30.011719c0-24.914062 20.109375-45.023438 45.019531-45.023438 24.914062 0 45.019531 20.109376 45.019531 45.023438zm0 0" fill="#474f54"/><path d="m451.089844 15.007812c0 8.402344-6.601563 15.007813-15.007813 15.007813h-120.054687c-24.910156 0-45.019532 20.105469-45.019532 45.019531v30.011719c0 8.402344-6.601562 15.007813-15.007812 15.007813s-15.007812-6.605469-15.007812-15.007813v-30.011719c0-16.808594 5.402343-32.417968 15.007812-44.722656 13.507812-18.308594 35.417969-30.3125 60.027344-30.3125h120.054687c8.402344 0 15.007813 6.601562 15.007813 15.007812zm0 0" fill="#474f54"/><path d="m256 120.054688v-89.742188c13.507812-18.308594 35.417969-30.3125 60.027344-30.3125h120.054687c8.40625 0 15.007813 6.601562 15.007813 15.007812 0 8.402344-6.601563 15.007813-15.007813 15.007813h-120.054687c-24.910156 0-45.019532 20.105469-45.019532 45.019531v30.011719c0 8.402344-6.605468 15.007813-15.007812 15.007813zm0 0" fill="#32393f"/><path d="m301.019531 135.0625v30.011719c0 8.402343-6.601562 15.007812-15.003906 15.007812h-30.015625v-90.042969c24.910156 0 45.019531 20.109376 45.019531 45.023438zm0 0" fill="#32393f"/><path d="m509.113281 213.394531c-9.902343-45.320312-48.121093-81.933593-93.742187-90.941406-37.816406-7.503906-75.332032 2.703125-103.546875 27.613281h-111.648438c-28.214843-25.210937-65.730469-35.117187-103.546875-27.613281-45.621094 9.003906-83.839844 45.621094-93.742187 90.941406-9.003907 40.820313 3.402343 81.039063 32.515625 110.449219 6.601562 6.605469 9.304687 15.609375 10.503906 21.910156l7.5 45.019532c4.503906 28.214843 24.3125 50.722656 50.125 57.328124 40.519531 10.203126 78.335938-16.507812 84.636719-54.925781l10.503906-63.027343h114.652344l10.203125 60.625c5.402344 33.015624 31.816406 59.429687 67.53125 59.429687 33.617187 0 61.828125-24.3125 67.230468-57.027344l7.804688-47.421875c1.199219-6.300781 3.902344-15.304687 10.503906-21.910156 29.117188-29.410156 41.519532-69.628906 32.515625-110.449219zm0 0" fill="#596c76"/><path d="m476.597656 323.84375c-6.601562 6.605469-9.304687 15.609375-10.503906 21.910156l-7.800781 47.421875c-5.402344 32.714844-33.617188 57.027344-67.230469 57.027344-35.71875 0-62.128906-26.410156-67.53125-59.425781l-10.207031-60.628906h-57.324219v-180.082032h55.824219c28.214843-24.910156 65.730469-35.117187 103.546875-27.613281 45.621094 9.007813 83.839844 45.621094 93.746094 90.945313 9 40.816406-3.402344 81.035156-32.519532 110.445312zm0 0" fill="#474f54"/><path d="m195.972656 360.164062c-24.824218 0-45.019531-20.195312-45.019531-45.023437 0-24.824219 20.195313-45.019531 45.019531-45.019531 24.824219 0 45.019532 20.195312 45.019532 45.019531 0 24.828125-20.195313 45.023437-45.019532 45.023437zm0 0" fill="#b5baf3"/><path d="m316.027344 360.164062c-24.824219 0-45.019532-20.195312-45.019532-45.023437 0-24.824219 20.195313-45.019531 45.019532-45.019531 24.824218 0 45.019531 20.195312 45.019531 45.019531 0 24.828125-20.195313 45.023437-45.019531 45.023437zm0 0" fill="#7984eb"/><path d="m150.953125 225.101562h-15.007813v-15.007812c0-8.292969-6.710937-15.003906-15.003906-15.003906-8.296875 0-15.007812 6.710937-15.007812 15.003906v15.007812h-15.007813c-8.292969 0-15.007812 6.710938-15.007812 15.007813 0 8.292969 6.714843 15.007813 15.007812 15.007813h15.007813v15.003906c0 8.296875 6.710937 15.007812 15.007812 15.007812 8.292969 0 15.003906-6.710937 15.003906-15.007812v-15.003906h15.007813c8.292969 0 15.007813-6.714844 15.007813-15.007813 0-8.296875-6.714844-15.007813-15.007813-15.007813zm0 0" fill="#e0f4ff"/><path d="m406.066406 210.09375c0 8.289062-6.71875 15.007812-15.003906 15.007812-8.289062 0-15.007812-6.71875-15.007812-15.007812 0-8.285156 6.71875-15.003906 15.007812-15.003906 8.285156 0 15.003906 6.71875 15.003906 15.003906zm0 0" fill="#ff641a"/><path d="m406.066406 270.121094c0 8.289062-6.71875 15.007812-15.003906 15.007812-8.289062 0-15.007812-6.71875-15.007812-15.007812 0-8.285156 6.71875-15.003906 15.007812-15.003906 8.285156 0 15.003906 6.71875 15.003906 15.003906zm0 0" fill="#e0f4ff"/><path d="m376.054688 240.109375c0 8.289063-6.71875 15.007813-15.007813 15.007813-8.285156 0-15.003906-6.71875-15.003906-15.007813s6.71875-15.007813 15.003906-15.007813c8.289063 0 15.007813 6.71875 15.007813 15.007813zm0 0" fill="#b5baf3"/><path d="m436.082031 240.109375c0 8.289063-6.71875 15.007813-15.007812 15.007813-8.289063 0-15.007813-6.71875-15.007813-15.007813s6.71875-15.007813 15.007813-15.007813c8.289062 0 15.007812 6.71875 15.007812 15.007813zm0 0" fill="#fdbf00"/><path d="m301.019531 225.101562c0 8.402344-6.601562 15.007813-15.003906 15.007813h-60.027344c-8.40625 0-15.007812-6.605469-15.007812-15.007813 0-8.40625 6.601562-15.007812 15.007812-15.007812h60.027344c8.402344 0 15.003906 6.601562 15.003906 15.007812zm0 0" fill="#e0f4ff"/><path d="m301.019531 225.101562c0 8.402344-6.601562 15.007813-15.003906 15.007813h-30.015625v-30.015625h30.015625c8.402344 0 15.003906 6.601562 15.003906 15.007812zm0 0" fill="#bbdcff"/></svg>