<?xml version="1.0" encoding="utf-8"?>
<!-- Generator: Adobe Illustrator 18.0.0, SVG Export Plug-In . SVG Version: 6.00 Build 0)  -->
<!DOCTYPE svg PUBLIC "-//W3C//DTD SVG 1.1//EN" "http://www.w3.org/Graphics/SVG/1.1/DTD/svg11.dtd">
<svg version="1.1" id="Warstwa_1" xmlns="http://www.w3.org/2000/svg" xmlns:xlink="http://www.w3.org/1999/xlink" x="0px" y="0px"
	 viewBox="0 0 512 512" enable-background="new 0 0 512 512" xml:space="preserve">
<path fill="#5DABC6" d="M500,197.7l-39.4-8.6c-3.4-10.5-7.7-20.7-12.7-30.5l21.8-33.9c3.9-6.1,3-14-2.1-19.1l-61.3-61.3
	c-5.1-5.1-13-5.9-19.1-2.1l-33.9,21.8c-9.8-5-20.1-9.2-30.5-12.7L314.3,12c-1.5-7-7.8-12-14.9-12h-86.7c-7.2,0-13.4,5-14.9,12
	l-8.6,39.4c-10.5,3.4-20.7,7.7-30.5,12.7l-33.9-21.8c-6.1-3.9-14-3-19.1,2.1l-61.3,61.3c-5.1,5.1-5.9,13-2.1,19.1l21.8,33.9
	c-5,9.8-9.2,20.1-12.7,30.5L12,197.7c-7,1.5-12,7.8-12,14.9v86.7c0,7.2,5,13.4,12,14.9l39.4,8.6c3.4,10.5,7.7,20.7,12.7,30.5
	l-21.8,33.9c-3.9,6.1-3,14,2.1,19.1l61.3,61.3c5.1,5.1,13,5.9,19.1,2.1l33.9-21.8c9.8,5,20.1,9.2,30.5,12.7l8.6,39.4
	c1.5,7,7.8,12,14.9,12h86.7c7.2,0,13.4-5,14.9-12l8.6-39.4c10.5-3.4,20.7-7.7,30.5-12.7l33.9,21.8c6.1,3.9,14,3,19.1-2.1l61.3-61.3
	c5.1-5.1,5.9-13,2.1-19.1l-21.8-33.9c5-9.8,9.2-20.1,12.7-30.5l39.4-8.6c7-1.5,12-7.8,12-14.9v-86.7C512,205.5,507,199.2,500,197.7z
	 M256,378.4c-67.5,0-122.4-54.9-122.4-122.4S188.5,133.6,256,133.6S378.4,188.5,378.4,256S323.5,378.4,256,378.4z"/>
<path fill="#487F93" d="M500,197.7l-39.4-8.6c-3.4-10.5-7.7-20.7-12.7-30.5l21.8-33.9c3.9-6.1,3-14-2.1-19.1l-61.3-61.3
	c-5.1-5.1-13-5.9-19.1-2.1l-33.9,21.8c-9.8-5-20.1-9.2-30.5-12.7L314.3,12c-1.5-7-7.8-12-14.9-12h-45.7v133.6c0.8,0,1.6,0,2.4,0
	c67.5,0,122.4,54.9,122.4,122.4S323.5,378.4,256,378.4c-0.8,0-1.6,0-2.4,0V512h45.7c7.2,0,13.4-5,14.9-12l8.6-39.4
	c10.5-3.4,20.7-7.7,30.5-12.7l33.9,21.8c6.1,3.9,14,3,19.1-2.1l61.3-61.3c5.1-5.1,5.9-13,2.1-19.1l-21.8-33.9
	c5-9.8,9.2-20.1,12.7-30.5l39.4-8.6c7-1.5,12-7.8,12-14.9v-86.7C512,205.5,507,199.2,500,197.7z"/>
</svg>
