<?xml version="1.0" encoding="utf-8"?>
<!-- Generator: Adobe Illustrator 19.0.0, SVG Export Plug-In . SVG Version: 6.00 Build 0)  -->
<svg version="1.1" id="Layer_1" xmlns="http://www.w3.org/2000/svg" xmlns:xlink="http://www.w3.org/1999/xlink" x="0px" y="0px"
	 viewBox="-41 164.9 512 512" style="enable-background:new -41 164.9 512 512;" xml:space="preserve">
<style type="text/css">
	.st0{fill:#DFE3EF;}
	.st1{fill:#3F3D56;}
	.st2{fill:#FFFFFF;}
	.st3{fill:#D0CDE1;}
</style>
<rect x="35.1" y="222.2" class="st0" width="359.8" height="454.7"/>
<path class="st1" d="M299.1,196h-53c0-17.2-13.9-31.1-31.1-31.1s-31.1,13.9-31.1,31.1h-53c-8.3,0-15,6.7-15,15v37.4h198.3V211
	C314.1,202.7,307.4,196,299.1,196z"/>
<rect x="115.9" y="583" class="st2" width="41" height="41"/>
<path class="st3" d="M314.1,612H191c-4.7,0-8.5-3.8-8.5-8.5c0-4.7,3.8-8.5,8.5-8.5h123.2c4.7,0,8.5,3.8,8.5,8.5
	C322.7,608.2,318.8,612,314.1,612z"/>
<rect x="115.9" y="489.1" class="st2" width="41" height="41"/>
<path class="st3" d="M314.1,518.1H191c-4.7,0-8.5-3.8-8.5-8.5c0-4.7,3.8-8.5,8.5-8.5h123.2c4.7,0,8.5,3.8,8.5,8.5
	C322.7,514.3,318.8,518.1,314.1,518.1z"/>
<rect x="115.9" y="395.2" class="st2" width="41" height="41"/>
<path class="st3" d="M314.1,424.2H191c-4.7,0-8.5-3.8-8.5-8.5c0-4.7,3.8-8.5,8.5-8.5h123.2c4.7,0,8.5,3.8,8.5,8.5
	C322.7,420.4,318.8,424.2,314.1,424.2z"/>
<rect x="115.9" y="301.3" class="st2" width="41" height="41"/>
<path class="st3" d="M314.1,330.4H191c-4.7,0-8.5-3.8-8.5-8.5c0-4.7,3.8-8.5,8.5-8.5h123.2c4.7,0,8.5,3.8,8.5,8.5
	C322.7,326.5,318.8,330.4,314.1,330.4z"/>
</svg>
