<?xml version="1.0" encoding="utf-8"?>
<!-- Generator: Adobe Illustrator 19.0.0, SVG Export Plug-In . SVG Version: 6.00 Build 0)  -->
<svg version="1.1" id="Capa_1" xmlns="http://www.w3.org/2000/svg" xmlns:xlink="http://www.w3.org/1999/xlink" x="0px" y="0px"
	 viewBox="-41 164.9 512 512" style="enable-background:new -41 164.9 512 512;" xml:space="preserve">
<style type="text/css">
	.st0{fill:#5DABC6;}
	.st1{fill:#487F93;}
	.st2{fill:#30374E;}
	.st3{fill:#FCD0A3;}
	.st4{fill:#FFB983;}
	.st5{fill:#65617D;}
	.st6{fill:#EF9050;}
</style>
<path class="st0" d="M249.4,452.7h-68.9c-51.4,0-93.2,41.8-93.2,93.2v105.5c0,4.1,3.4,7.5,7.5,7.5h240.3c4.1,0,7.5-3.4,7.5-7.5
	V545.9C342.6,494.5,300.8,452.7,249.4,452.7z"/>
<path class="st1" d="M249.4,452.7h-27.3c51.4,0,93.2,41.8,93.2,93.2v105.5c0,4.1-3.4,7.5-7.5,7.5h27.3c4.1,0,7.5-3.4,7.5-7.5V545.9
	C342.6,494.5,300.8,452.7,249.4,452.7z"/>
<path class="st2" d="M225.6,452.7h-21.4l-28.6,97.1c-0.6,2.1-0.1,4.3,1.5,5.9l33.5,34.3c2.4,2.4,6.2,2.4,8.6,0l33.5-34.3
	c1.5-1.6,2.1-3.8,1.5-5.9L225.6,452.7z"/>
<path class="st3" d="M214.9,182.8L214.9,182.8c-57.4,0-103.9,46.5-103.9,103.9v50.1c0,57.4,46.5,103.9,103.9,103.9l0,0
	c57.4,0,103.9-46.5,103.9-103.9v-50.1C318.8,229.3,272.3,182.8,214.9,182.8z"/>
<path class="st4" d="M214.9,182.8c-2.3,0-4.6,0.1-6.9,0.2c47.4,3.6,84.8,48.6,84.8,103.6v50.1c0,55-37.4,100.1-84.8,103.6
	c2.3,0.2,4.6,0.2,6.9,0.2c57.4,0,103.9-46.5,103.9-103.9v-50.1C318.8,229.3,272.3,182.8,214.9,182.8z"/>
<path class="st5" d="M282.5,207.9C282.5,207.9,282.5,207.9,282.5,207.9c-0.2-0.2-0.4-0.3-0.6-0.5c-0.8-0.7-1.6-1.3-2.4-2
	c-0.4-0.3-0.7-0.6-1.1-0.9c-0.7-0.6-1.5-1.1-2.3-1.7c-0.4-0.3-0.9-0.6-1.3-1c-0.7-0.5-1.4-1-2.1-1.5c-0.5-0.4-1-0.7-1.6-1
	c-0.6-0.4-1.3-0.8-1.9-1.2c-0.6-0.4-1.2-0.8-1.8-1.1c-0.5-0.3-1.1-0.6-1.7-0.9c-0.7-0.4-1.5-0.8-2.2-1.2c-0.4-0.2-0.8-0.4-1.2-0.6
	c-14.2-7.3-30.3-11.4-47.4-11.4c-57.4,0-103.9,46.5-103.9,103.9v9.6c15.3,6.7,32.2,10.5,50,10.5c36.5,0,69.4-15.8,92.1-41
	c14.3,22.1,38.2,37.5,65.7,40.5v-19.6C318.8,255.2,304.7,226.9,282.5,207.9z"/>
<path class="st2" d="M318.7,281.1c0-0.3,0-0.7-0.1-1c0-0.6-0.1-1.2-0.1-1.8c0-0.4-0.1-0.7-0.1-1c-0.1-0.6-0.1-1.2-0.2-1.7
	c0-0.3-0.1-0.7-0.1-1c-0.1-0.6-0.1-1.2-0.2-1.8c0-0.3-0.1-0.6-0.1-1c-0.1-0.6-0.2-1.2-0.3-1.8c0-0.3-0.1-0.6-0.1-0.9
	c-0.1-0.7-0.2-1.3-0.4-2c0-0.2-0.1-0.5-0.1-0.7c-0.2-0.8-0.3-1.6-0.5-2.3c0-0.1,0-0.2-0.1-0.3c-5-22.1-17.1-41.5-33.7-55.8
	c0,0,0,0,0,0c-0.2-0.2-0.4-0.3-0.6-0.5c-0.8-0.7-1.6-1.3-2.4-2c-0.4-0.3-0.7-0.6-1.1-0.9c-0.7-0.6-1.5-1.1-2.3-1.7
	c-0.4-0.3-0.9-0.6-1.3-1c-0.7-0.5-1.4-1-2.1-1.5c-0.5-0.4-1-0.7-1.6-1c-0.6-0.4-1.3-0.8-1.9-1.2c-0.6-0.4-1.2-0.8-1.8-1.1
	c-0.5-0.3-1.1-0.6-1.7-0.9c-0.7-0.4-1.5-0.8-2.2-1.2c-0.4-0.2-0.8-0.4-1.2-0.6c-10.6-5.5-22.3-9.2-34.7-10.7c-0.1,0-0.1,0-0.2,0
	c-0.9-0.1-1.8-0.2-2.7-0.3c-0.2,0-0.5,0-0.7-0.1c-0.7-0.1-1.5-0.1-2.2-0.2c-0.3,0-0.6,0-0.9-0.1c-0.7,0-1.4-0.1-2.1-0.1
	c-0.3,0-0.6,0-0.9,0c-1,0-1.9,0-2.9,0c0,0,0,0-0.1,0c-1.1,0-2.2,0-3.3,0.1c-0.1,0-0.3,0-0.4,0c-1.1,0-2.1,0.1-3.2,0.2
	c47.4,3.6,84.8,48.6,84.8,103.6v12.8c8.1,3.5,16.9,5.9,26,6.9v-19.6c0-0.9,0-1.9,0-2.8c0-0.3,0-0.6,0-0.9
	C318.7,282.4,318.7,281.7,318.7,281.1z"/>
<path class="st6" d="M215,408.9c-14,0-27.3-7.3-35.5-19.6c-2.5-3.6-1.5-8.6,2.1-11.1c3.6-2.5,8.6-1.5,11.1,2.1
	c5.4,8,13.5,12.5,22.3,12.5c8.8,0,16.9-4.6,22.3-12.5c2.5-3.6,7.4-4.6,11.1-2.2c3.6,2.5,4.6,7.4,2.2,11.1
	C242.2,401.6,228.9,408.9,215,408.9z"/>
</svg>
