<?xml version="1.0" encoding="iso-8859-1"?>
<!-- Generator: Adobe Illustrator 19.0.0, SVG Export Plug-In . SVG Version: 6.00 Build 0)  -->
<svg xmlns="http://www.w3.org/2000/svg" xmlns:xlink="http://www.w3.org/1999/xlink" version="1.1" id="Layer_1" x="0px" y="0px" viewBox="0 0 512 512" style="enable-background:new 0 0 512 512;" xml:space="preserve" width="512" height="512">
<g>
	<g>
		<path style="fill:#FADC60;" d="M465.992,200.792c-8.037,0-14.561,6.523-14.561,14.561v121.571l14.561,16.4l14.561-16.4V215.352    C480.552,207.315,474.039,200.792,465.992,200.792z"/>
		<path style="fill:#FADC60;" d="M489.43,392.587c-3.196-13.767-8.878-22.864-8.878-22.864l-14.561-16.4l-14.561,16.4    c0,0-5.596,8.959-8.804,22.55c-2.21,9.36,4.807,18.355,14.424,18.355h17.885C484.423,410.629,491.575,401.828,489.43,392.587z"/>
		<path style="fill:#FADC60;" d="M419.155,331.594v48.535c0,41.012-73.045,74.259-163.156,74.259S92.844,421.141,92.844,380.129    v-48.535H419.155z"/>
		<path style="fill:#506366;" d="M419.155,202.5v129.094c0,41.012-73.045,74.259-163.156,74.259S92.844,372.606,92.844,331.594    V202.5H419.155z"/>
		<path style="fill:#E6CB59;" d="M465.992,200.792c-8.037,0-14.561,6.523-14.561,14.561v60.979l29.121-14.844v-46.135    C480.552,207.315,474.039,200.792,465.992,200.792z"/>
		<path style="fill:#3A484A;" d="M504.5,215.608L262.227,339.104c-3.912,1.994-8.542,1.994-12.454,0L7.5,215.608v-33.004h497    V215.608z"/>
		<path style="fill:#506366;" d="M504.5,182.604L262.227,59.108c-3.912-1.994-8.542-1.994-12.454,0L7.5,182.604L249.773,306.1    c3.912,1.994,8.542,1.994,12.454,0L504.5,182.604z"/>
		<rect x="451.431" y="336.923" style="fill:#E6CB59;" width="29.121" height="32.8"/>
	</g>
	<g>
		<path d="M172.37,343.158c-4.143,0-7.5,3.358-7.5,7.5v15.136c0,4.142,3.357,7.5,7.5,7.5c4.142,0,7.5-3.358,7.5-7.5v-15.136    C179.87,346.516,176.512,343.158,172.37,343.158z"/>
		<path d="M339.63,373.294c4.142,0,7.5-3.358,7.5-7.5v-15.136c0-4.142-3.358-7.5-7.5-7.5s-7.5,3.358-7.5,7.5v15.136    C332.13,369.936,335.488,373.294,339.63,373.294z"/>
		<path d="M241.005,359.805c-2.726-3.118-7.464-3.437-10.583-0.71c-3.119,2.726-3.437,7.464-0.711,10.583    c6.498,7.433,16.079,11.696,26.288,11.696s19.79-4.263,26.288-11.696c2.726-3.119,2.408-7.856-0.711-10.583    c-3.119-2.727-7.857-2.408-10.583,0.71c-3.649,4.174-9.114,6.568-14.994,6.568S244.654,363.979,241.005,359.805z"/>
		<path d="M511.878,181.26c-0.409-2.241-1.926-4.298-3.972-5.342l-67.461-34.387c-3.69-1.881-8.207-0.414-10.088,3.276    c-1.881,3.69-0.415,8.207,3.276,10.088l54.352,27.705L258.821,299.414c-1.766,0.9-3.876,0.9-5.642,0l-146.595-74.725    c-3.69-1.881-8.207-0.414-10.088,3.276c-1.849,3.627-0.345,8.242,3.276,10.088c0,0,146.593,74.724,146.594,74.725    c5.952,3.034,13.268,3.058,19.266,0L497,194.841v16.167l-238.179,121.41c-1.739,0.886-3.903,0.887-5.642,0L15,211.009v-16.167    c0,0,57.991,29.56,58.004,29.567c3.629,1.85,8.239,0.343,10.088-3.276c1.881-3.69,0.414-8.207-3.276-10.088L24.015,182.6    L253.179,65.785c1.766-0.9,3.875-0.9,5.642,0l146.677,74.768c3.691,1.881,8.207,0.415,10.088-3.276s0.415-8.207-3.276-10.088    L265.633,52.422c-6.032-3.074-13.235-3.074-19.266,0c0,0-242.242,123.48-242.273,123.496C1.627,177.175,0,179.832,0,182.6v33.004    c0,2.82,1.582,5.401,4.094,6.682l81.25,41.417v116.423c0,45.846,74.961,81.759,170.656,81.759s170.656-35.913,170.656-81.759    V263.703l17.276-8.806v112.831c-1.965,3.599-6.011,11.839-8.603,22.819c-3.267,13.838,7.484,27.578,21.723,27.578    c0,0,17.873,0,17.885,0c14.071,0,24.995-13.471,21.8-27.237c-2.589-11.155-6.699-19.526-8.683-23.16V232.406l19.854-10.12    c2.512-1.281,4.094-3.862,4.094-6.682V182.6C512,182.153,511.959,181.704,511.878,181.26z M411.656,365.695v14.431    c0,16.48-15.816,33.131-43.393,45.683c-29.861,13.591-69.73,21.076-112.262,21.076c-42.532,0-82.401-7.485-112.263-21.076    c-27.577-12.551-43.393-29.202-43.393-45.683v-14.431c0.072,0.077,0.152,0.152,0.224,0.228    c12.001,12.731,27.752,21.394,43.788,27.974c35.141,14.42,73.861,19.452,111.644,19.452c43.054,0,89.67-6.388,128.271-27.288    c9.833-5.324,19.4-11.902,27.161-20.138C411.504,365.846,411.584,365.771,411.656,365.695z M411.656,271.349v60.241    c0,16.48-15.816,33.131-43.393,45.683c-29.861,13.591-69.73,21.076-112.262,21.076c-42.532,0-82.401-7.485-112.263-21.076    c-27.577-12.551-43.393-29.202-43.393-45.683v-60.241l146.022,74.433c0.024,0.012,0.05,0.022,0.074,0.035    c2.997,1.513,6.277,2.272,9.56,2.272c3.308,0,6.618-0.769,9.633-2.306L411.656,271.349z M473.053,362.219h-14.121v-17.8h14.121    V362.219z M480.742,400.319c-1.417,1.783-3.533,2.806-5.806,2.806c0,0-17.885,0-17.886,0c-4.712-0.001-8.196-4.586-7.123-9.132    c1.74-7.368,4.266-13.271,5.982-16.773h20.164c1.74,3.552,4.313,9.57,6.051,17.06    C482.796,397.174,481.546,399.305,480.742,400.319z M473.053,329.419h-14.121V247.25l14.121-7.198V329.419z"/>
	</g>
</g>















</svg>
