<?xml version="1.0" encoding="utf-8"?>
<!-- Generator: Adobe Illustrator 19.0.0, SVG Export Plug-In . SVG Version: 6.00 Build 0)  -->
<svg version="1.1" id="Warstwa_1" xmlns="http://www.w3.org/2000/svg" xmlns:xlink="http://www.w3.org/1999/xlink" x="0px" y="0px"
	 viewBox="-41 164.9 512 512" style="enable-background:new -41 164.9 512 512;" xml:space="preserve">
<style type="text/css">
	.st0{fill:#5A5A5A;}
	.st1{fill:#444444;}
	.st2{fill:#D17639;}
	.st3{fill:#AD561C;}
	.st4{fill:#EF9050;}
	.st5{fill:#C66F34;}
	.st6{fill:#6E6E6E;}
</style>
<path class="st0" d="M381,345.9v105l-166,75l-165-75v-105H381z"/>
<path class="st1" d="M381,345.9v105l-166,75v-180H381z"/>
<path class="st2" d="M441,300.9v240h-30v-225L441,300.9z"/>
<path class="st3" d="M441,300.9v240h-15V308.4L441,300.9z"/>
<path class="st4" d="M426,519.6l-45,45v112.3h90V564.6L426,519.6z"/>
<path class="st5" d="M471,564.6v112.3h-45V519.6L471,564.6z"/>
<path class="st6" d="M471,300.9l-256,135l-256-135l256-136L471,300.9z"/>
<path class="st0" d="M471,300.9l-256,135v-271L471,300.9z"/>
<path class="st4" d="M215,255.9c-33.6,0-60,19.8-60,45s26.4,45,60,45s60-19.8,60-45S248.6,255.9,215,255.9z"/>
<path class="st5" d="M275,300.9c0,25.2-26.4,45-60,45v-90C248.6,255.9,275,275.7,275,300.9z"/>
</svg>
