<svg height="511pt" viewBox="-68 0 511 511.9984" width="511pt" xmlns="http://www.w3.org/2000/svg"><path d="m367.226562 456.667969-86.84375-230.570313-111.902343 42.148438 86.84375 230.570312c2.582031 6.859375 11.886719 7.828125 15.828125 1.648438l30.609375-47.984375 54.65625 15.867187c7.039062 2.046875 13.390625-4.820312 10.808593-11.679687zm0 0" fill="#c0344a"/><path d="m8.582031 456.667969 86.839844-230.570313 111.902344 42.148438-86.84375 230.570312c-2.582031 6.859375-11.886719 7.828125-15.828125 1.648438l-30.605469-47.984375-54.660156 15.867187c-7.035157 2.046875-13.390625-4.820312-10.804688-11.679687zm0 0" fill="#da5b65"/><path d="m345.632812 140.660156c-9.5-9.820312-13.9375-23.472656-12.023437-37 3.347656-23.65625-12.671875-45.703125-36.203125-49.828125-13.457031-2.363281-25.070312-10.800781-31.472656-22.867187-11.199219-21.105469-37.113282-29.527344-58.578125-19.035156-12.273438 6-26.628907 6-38.90625 0-21.460938-10.492188-47.378907-2.070313-58.578125 19.035156-6.402344 12.066406-18.015625 20.503906-31.472656 22.867187-23.53125 4.125-39.550782 26.171875-36.203126 49.828125 1.914063 13.527344-2.523437 27.179688-12.023437 37-16.609375 17.171875-16.609375 44.421875 0 61.59375 9.5 9.820313 13.9375 23.472656 12.023437 37-3.347656 23.65625 12.671876 45.703125 36.203126 49.828125 13.457031 2.363281 25.070312 10.800781 31.472656 22.867188 11.199218 21.105469 37.117187 29.527343 58.578125 19.035156 12.277343-6 26.632812-6 38.90625 0 21.464843 10.492187 47.378906 2.070313 58.578125-19.035156 6.402344-12.066407 18.015625-20.503907 31.472656-22.867188 23.53125-4.125 39.550781-26.171875 36.203125-49.828125-1.914063-13.527344 2.523437-27.179687 12.023437-37 16.609376-17.171875 16.609376-44.421875 0-61.59375zm0 0" fill="#e7b835"/><path d="m308.328125 171.457031c0 66.507813-53.917969 120.421875-120.425781 120.421875-66.507813 0-120.421875-53.914062-120.421875-120.421875 0-66.507812 53.914062-120.425781 120.421875-120.425781 66.507812 0 120.425781 53.917969 120.425781 120.425781zm0 0" fill="#ffcd38"/><path d="m187.921875 299.464844c70.539063 0 127.925781-57.386719 127.925781-127.925782 0-70.539062-57.386718-127.925781-127.925781-127.925781-31.332031 0-61.484375 11.449219-84.902344 32.242188-3.097656 2.75-3.378906 7.492187-.625 10.589843 2.75 3.101563 7.492188 3.382813 10.589844.632813 20.667969-18.355469 47.28125-28.460937 74.941406-28.460937 62.265625 0 112.917969 50.65625 112.917969 112.921874 0 62.261719-50.65625 112.921876-112.917969 112.921876-62.265625 0-112.921875-50.65625-112.921875-112.921876 0-22.691406 6.699219-44.570312 19.378906-63.273437 2.324219-3.433594 1.429688-8.097656-2-10.421875-3.429687-2.324219-8.09375-1.429688-10.421874 2-14.367188 21.199219-21.964844 45.992188-21.964844 71.695312 0 70.535157 57.386718 127.925782 127.925781 127.925782zm0 0"/><path d="m128.757812 174.351562v-12.066406c0-4.144531-3.359374-7.503906-7.503906-7.503906-4.144531 0-7.5 3.359375-7.5 7.503906v12.066406c0 4.140626 3.355469 7.5 7.5 7.5 4.144532 0 7.503906-3.359374 7.503906-7.5zm0 0"/><path d="m262.09375 174.351562v-12.066406c0-4.144531-3.359375-7.503906-7.503906-7.503906-4.140625 0-7.5 3.359375-7.5 7.503906v12.066406c0 4.140626 3.359375 7.5 7.5 7.5 4.144531 0 7.503906-3.359374 7.503906-7.5zm0 0"/><path d="m187.921875 188.292969c8.578125 0 16.632813-3.585938 22.105469-9.84375 2.726562-3.121094 2.40625-7.859375-.710938-10.585938-3.121094-2.726562-7.859375-2.410156-10.589844.710938-2.617187 2.996093-6.554687 4.714843-10.804687 4.714843-4.246094 0-8.183594-1.71875-10.804687-4.714843-2.726563-3.121094-7.464844-3.4375-10.585938-.710938-3.121094 2.726563-3.4375 7.464844-.710938 10.585938 5.46875 6.257812 13.523438 9.84375 22.101563 9.84375zm0 0"/><path d="m3.421875 469.191406c3.980469 5.753906 11.359375 8.394532 18.078125 6.441406l49.261719-14.300781s27.570312 43.222657 27.585937 43.246094c7.144532 11.203125 24.511719 9.34375 29.175782-3.039063l60.398437-160.367187s60.359375 160.253906 60.402344 160.367187c4.664062 12.378907 22.066406 14.183594 29.175781 3.039063l27.585938-43.246094s49.203124 14.285157 49.257812 14.300781c12.75 3.703126 24.589844-9.132812 19.921875-21.527343l-24.589844-65.296875c-1.460937-3.875-5.789062-5.835938-9.667969-4.375-3.875 1.460937-5.835937 5.789062-4.375 9.664062 0 0 24.59375 65.292969 24.59375 65.296875.410157 1.097657-.550781 2.164063-1.695312 1.832031l-54.65625-15.871093c-3.203125-.929688-6.628906.363281-8.417969 3.167969 0 0-30.417969 47.683593-30.609375 47.984374-.617187.96875-2.082031.804688-2.480468-.257812l-59.964844-159.207031c.5625.238281 1.125.492187 1.675781.761719 7.097656 3.46875 14.964844 5.328124 22.863281 5.328124 17.976563 0 35.238282-9.429687 44.765625-26.003906 5.921875-10.304687 15.039063-18.476562 27.019531-20.578125.050782-.007812.101563-.015625.15625-.027343l25.136719 66.746093c1.460938 3.878907 5.789063 5.835938 9.667969 4.378907 3.875-1.460938 5.835938-5.789063 4.375-9.667969l-24.925781-66.171875c19.398437-9.710938 31.125-30.882813 27.921875-53.527344-1.601563-11.316406 2.039062-22.515625 9.984375-30.730469 19.539062-20.195312 19.539062-51.832031 0-72.027343-7.945313-8.214844-11.585938-19.414063-9.984375-30.730469 3.933594-27.820313-14.664063-53.414063-42.335938-58.269531-11.257812-1.976563-20.785156-8.898438-26.144531-18.996094-9.007813-16.980469-26.550781-27.527344-45.78125-27.527344-7.921875 0-15.5625 1.773438-22.71875 5.269531-5 2.445313-10.585937 3.738281-16.15625 3.738281-5.566406 0-11.15625-1.292968-16.15625-3.738281-7.152344-3.496093-14.796875-5.269531-22.714844-5.269531-19.230469 0-36.777343 10.546875-45.785156 27.527344-5.355469 10.097656-14.886719 17.019531-26.144531 18.996094-27.671875 4.851562-46.269532 30.449218-42.335938 58.265624 1.601563 11.320313-2.035156 22.519532-9.984375 30.734376-19.535156 20.195312-19.535156 51.832031 0 72.027343 7.949219 8.214844 11.585938 19.414063 9.984375 30.730469-3.203125 22.644531 8.523438 43.8125 27.921875 53.527344l-61.128906 162.296875c-1.925781 5.113281-1.253906 10.613281 1.84375 15.085937zm46.222656-228.808594c2.25-15.929687-2.871093-31.703124-14.058593-43.265624-13.878907-14.34375-13.878907-36.816407 0-51.160157 11.1875-11.566406 16.308593-27.332031 14.058593-43.265625-2.796875-19.761718 10.414063-37.941406 30.070313-41.390625 15.847656-2.78125 29.261718-12.527343 36.804687-26.738281 6.398438-12.0625 18.863281-19.558594 32.53125-19.558594 5.617188 0 11.039063 1.261719 16.125 3.746094 7.042969 3.445312 14.910157 5.261719 22.746094 5.261719 7.839844 0 15.707031-1.816407 22.75-5.261719 5.082031-2.484375 10.507813-3.746094 16.125-3.746094 13.664063 0 26.128906 7.496094 32.527344 19.554688 7.542969 14.214844 20.957031 23.960937 36.808593 26.742187 19.65625 3.449219 32.863282 21.628907 30.070313 41.386719-2.253906 15.933594 2.871094 31.703125 14.058594 43.269531 13.875 14.34375 13.875 36.816407 0 51.160157-11.1875 11.5625-16.3125 27.332031-14.058594 43.265624 2.734375 19.328126-10.867187 38.015626-30.070313 41.390626-18.472656 3.242187-29.152343 16.636718-39.429687 30.96875-.027344.03125-.050781.070312-.074219.101562-10.34375 14.300781-30.105468 19.230469-45.957031 11.476562-14.230469-6.953124-31.265625-6.957031-45.496094 0-5.015625 2.453126-10.539062 3.746094-16.125 3.746094-13.417969 0-26.1875-7.597656-32.53125-19.554687-7.449219-14.042969-21.144531-23.992188-36.804687-26.738281-19.367188-3.394532-32.828125-21.917969-30.070313-41.390626zm-34.023437 219.011719 61.34375-162.871093c.050781.011718.101562.019531.15625.03125 11.074218 1.941406 20.875 9.050781 26.144531 18.992187 9.007813 16.980469 26.554687 27.527344 45.785156 27.527344 8.785157 0 16.433594-2.632813 24.394531-6.03125 0 0-59.964843 159.207031-59.964843 159.210937-.40625 1.074219-1.878907 1.203125-2.484375.257813 0 0-30.566406-47.925781-30.605469-47.984375-1.769531-2.773438-5.265625-4.085938-8.417969-3.171875 0 0-54.65625 15.871093-54.660156 15.871093-1.105469.324219-2.089844-.777343-1.691406-1.832031zm0 0"/></svg>