<svg height="511pt" viewBox="1 0 511.99964 511" width="511pt" xmlns="http://www.w3.org/2000/svg"><path d="m247.75 3.019531-241.230469 162.460938c-4.074219 2.742187-6.519531 7.335937-6.519531 12.25v320c0 8.15625 6.613281 14.765625 14.769531 14.765625h241.230469l9.855469-255.996094-9.855469-256c-2.878906 0-5.757812.839844-8.25 2.519531zm0 0" fill="#f2f2fc"/><path d="m505.480469 165.480469-241.230469-162.460938c-2.496094-1.679687-5.371094-2.519531-8.25-2.519531v511.996094h241.230469c8.15625 0 14.769531-6.609375 14.769531-14.765625v-320c0-4.914063-2.445312-9.507813-6.519531-12.25zm0 0" fill="#d7d7fb"/><path d="m241.230469 104.703125c-66.371094 7.363281-118.152344 63.800781-118.152344 132.101563 0 31.980468 11.539063 62.898437 32.480469 87.042968.40625.460938.839844.90625 1.289062 1.316406l21.96875 19.714844c.453125.414063.933594.796875 1.4375 1.140625 4.609375 3.210938 9.414063 6.125 14.277344 8.664063 5.296875 2.765625 11.734375 2.070312 16.3125-1.761719l45.15625-37.78125 9.855469-85.015625-9.855469-126.242188c-4.992188 0-9.925781.277344-14.769531.820313zm0 0" fill="#fed402"/><path d="m270.769531 104.703125c-4.84375-.542969-9.777343-.820313-14.769531-.820313v211.257813l45.152344 37.78125c2.683594 2.253906 6.148437 3.476563 9.648437 3.433594 4.0625-.046875 7.433594-2.007813 10.867188-3.964844 4.296875-2.453125 8.726562-5.007813 12.421875-8.324219 5.417968-4.863281 10.835937-9.726562 16.253906-14.585937 2.03125-1.824219 4.296875-3.570313 6.097656-5.632813 20.941406-24.144531 32.480469-55.0625 32.480469-87.042968 0-68.300782-51.78125-124.738282-118.152344-132.101563zm0 0" fill="#fec204"/><path d="m503.246094 164.242188c-5.324219-2.375-11.546875-1.394532-15.882813 2.5l-184.472656 165.644531c-3.183594 2.863281-4.972656 6.964843-4.898437 11.246093.074218 4.285157 2.003906 8.320313 5.289062 11.070313l184.46875 154.351563c4.714844 3.945312 11.566406 4.53125 16.886719 1.453124 4.515625-2.617187 7.363281-7.5625 7.363281-12.777343v-320c0-5.832031-3.429688-11.113281-8.753906-13.488281zm0 0" fill="#3e5959"/><path d="m24.636719 166.742188c-4.335938-3.894532-10.558594-4.875-15.882813-2.5-5.324218 2.375-8.753906 7.65625-8.753906 13.488281v320c0 5.734375 3.320312 10.949219 8.519531 13.378906 1.992188.933594 4.128907 1.386719 6.246094 1.386719 3.402344 0 6.773437-1.171875 9.480469-3.441406l184.472656-154.351563c3.285156-2.75 5.214844-6.785156 5.289062-11.070313.074219-4.28125-1.714843-8.382812-4.898437-11.246093zm0 0" fill="#49686e"/><path d="m216.617188 281.113281c-8.15625 0-14.769532 6.617188-14.769532 14.769531 0 8.152344 6.613282 14.769532 14.769532 14.769532h39.382812l9.855469-11.320313-9.855469-18.21875zm0 0" fill="#fcbe00"/><path d="m231.382812 222.039062v-4.925781c0-13.578125 11.039063-24.613281 24.617188-24.613281l9.855469-34.460938-9.855469-54.15625c-4.992188 0-9.925781.277344-14.769531.820313v60.324219c-22.703125 6.441406-39.382813 27.34375-39.382813 52.085937v19.691407c0 8.15625 6.613282 14.769531 14.769532 14.769531h39.382812l9.855469-14.273438-9.855469-15.261719zm0 0" fill="#fcbe00"/><path d="m295.382812 192.5c8.152344 0 14.769532-6.617188 14.769532-14.769531 0-8.152344-6.617188-14.769531-14.769532-14.769531h-24.613281v-58.257813c-4.84375-.542969-9.777343-.820313-14.769531-.820313v88.617188zm0 0" fill="#fe9e00"/><path d="m295.382812 222.039062h-39.382812v29.535157h24.613281v4.925781c0 13.578125-11.035156 24.613281-24.613281 24.613281v29.539063c29.863281 0 54.152344-24.289063 54.152344-54.152344v-19.695312c0-8.152344-6.617188-14.765626-14.769532-14.765626zm0 0" fill="#fe9e00"/><path d="m246.523438 284.554688-241.230469 201.847656c-4.765625 3.984375-6.527344 10.527344-4.40625 16.367187 2.121093 5.839844 7.671875 9.726563 13.882812 9.726563h241.230469l9.855469-113.230469-9.855469-118.152344c-3.367188 0-6.734375 1.148438-9.476562 3.441407zm0 0" fill="#3e5959"/><path d="m506.707031 486.402344-241.230469-201.847656c-2.742187-2.292969-6.109374-3.441407-9.476562-3.441407v231.382813h241.230469c6.210937 0 11.761719-3.886719 13.882812-9.726563 2.121094-5.839843.359375-12.382812-4.40625-16.367187zm0 0" fill="#2c4443"/></svg>