<?xml version="1.0" encoding="iso-8859-1"?>
<!-- Generator: Adobe Illustrator 19.0.0, SVG Export Plug-In . SVG Version: 6.00 Build 0)  -->
<svg version="1.1" id="Capa_1" xmlns="http://www.w3.org/2000/svg" xmlns:xlink="http://www.w3.org/1999/xlink" x="0px" y="0px"
	 viewBox="0 0 512 512" style="enable-background:new 0 0 512 512;" xml:space="preserve">
<path style="fill:#FFCD38;" d="M275.632,30.792l59.831,121.232c3.189,6.461,9.353,10.94,16.483,11.976l133.787,19.44
	c17.956,2.609,25.126,24.676,12.133,37.341l-96.81,94.366c-5.16,5.029-7.514,12.276-6.296,19.377l22.853,133.246
	c3.067,17.884-15.704,31.522-31.764,23.078l-119.663-62.911c-6.378-3.353-13.997-3.353-20.375,0l-119.663,62.911
	c-16.061,8.444-34.832-5.194-31.764-23.078l22.853-133.246c1.218-7.102-1.136-14.348-6.296-19.377l-96.81-94.366
	c-12.991-12.665-5.821-34.732,12.135-37.341L160.054,164c7.131-1.036,13.295-5.515,16.483-11.976l59.831-121.232
	C244.4,14.52,267.602,14.52,275.632,30.792z"/>
<g>
	<path style="fill:#3A484A;" d="M186.188,269.73c-4.142,0-7.5-3.358-7.5-7.5v-13.035c0-4.142,3.358-7.5,7.5-7.5s7.5,3.358,7.5,7.5
		v13.035C193.688,266.372,190.33,269.73,186.188,269.73z"/>
	<path style="fill:#3A484A;" d="M325.813,269.73c-4.142,0-7.5-3.358-7.5-7.5v-13.035c0-4.142,3.358-7.5,7.5-7.5s7.5,3.358,7.5,7.5
		v13.035C333.313,266.372,329.955,269.73,325.813,269.73z"/>
	<path style="fill:#3A484A;" d="M234.746,251.565v12.512c0,11.739,9.516,21.255,21.255,21.255l0,0
		c11.739,0,21.255-9.516,21.255-21.255v-12.512L234.746,251.565L234.746,251.565z"/>
</g>
<path style="fill:#EBAF03;" d="M150.282,322.883c1.569-9.5-1.464-19.192-8.109-25.919L29.56,182.961l-3.293,0.479
	c-17.956,2.609-25.126,24.676-12.133,37.341l96.81,94.366c5.16,5.03,7.514,12.276,6.296,19.377L94.385,467.771
	c-2.823,16.462,12.857,29.312,27.895,24.667L150.282,322.883z"/>
<path d="M27.345,190.87l71.394-10.374c4.099-0.595,6.939-4.401,6.343-8.5c-0.595-4.099-4.397-6.938-8.5-6.343l-71.394,10.374
	c-11.153,1.621-20.244,9.286-23.727,20.004c-3.483,10.718-0.633,22.263,7.438,30.129l96.809,94.366
	c3.393,3.308,4.94,8.07,4.139,12.739L86.993,466.511c-1.905,11.108,2.575,22.124,11.693,28.748s20.978,7.481,30.954,2.237
	l119.663-62.91c4.194-2.204,9.201-2.205,13.394,0l119.663,62.91c9.851,5.178,21.953,4.303,30.954-2.237
	c9.118-6.625,13.598-17.64,11.693-28.748l-14.258-83.127c-0.701-4.083-4.573-6.824-8.66-6.125c-4.083,0.7-6.824,4.578-6.124,8.66
	l14.258,83.128c0.947,5.521-1.193,10.784-5.726,14.076c-4.532,3.293-10.199,3.703-15.157,1.096l-119.663-62.91
	c-8.564-4.502-18.79-4.503-27.355,0l-119.663,62.91c-4.959,2.607-10.625,2.197-15.157-1.096c-4.532-3.292-6.673-8.555-5.726-14.076
	L124.631,335.8c1.635-9.537-1.525-19.262-8.453-26.016l-96.81-94.366c-4.011-3.91-5.373-9.425-3.642-14.753
	C17.458,195.338,21.801,191.676,27.345,190.87z"/>
<path d="M503.102,226.161c8.07-7.866,10.921-19.411,7.438-30.13c-3.483-10.719-12.574-18.384-23.728-20.005l-133.787-19.439
	c-4.688-0.682-8.739-3.625-10.836-7.874l-59.83-121.232c-4.988-10.106-15.087-16.384-26.357-16.384
	c-11.27,0-21.369,6.278-26.357,16.384l-59.831,121.232c-2.097,4.249-6.147,7.191-10.836,7.873l-32.394,4.707
	c-4.099,0.596-6.939,4.401-6.343,8.5c0.596,4.099,4.395,6.941,8.5,6.343l32.394-4.707c9.576-1.391,17.849-7.402,22.13-16.079
	l59.831-121.232c2.479-5.023,7.304-8.022,12.906-8.022s10.427,2.999,12.906,8.022l59.832,121.232
	c4.283,8.676,12.556,14.687,22.13,16.078l133.787,19.44c5.544,0.805,9.888,4.467,11.619,9.795c1.731,5.328,0.37,10.843-3.643,14.753
	l-96.81,94.367c-6.928,6.753-10.088,16.479-8.453,26.016l3.451,20.119c0.627,3.654,3.797,6.233,7.383,6.233
	c0.421,0,0.848-0.035,1.277-0.109c4.083-0.701,6.824-4.578,6.124-8.66l-3.451-20.118c-0.801-4.67,0.747-9.432,4.139-12.739
	L503.102,226.161z"/>
<path d="M178.688,249.203v13.036c0,4.142,3.358,7.5,7.5,7.5s7.5-3.358,7.5-7.5v-13.036c0-4.142-3.358-7.5-7.5-7.5
	S178.688,245.061,178.688,249.203z"/>
<path d="M318.313,249.203v13.036c0,4.142,3.358,7.5,7.5,7.5s7.5-3.358,7.5-7.5v-13.036c0-4.142-3.358-7.5-7.5-7.5
	S318.313,245.061,318.313,249.203z"/>
<path d="M234.746,244.073c-4.142,0-7.5,3.358-7.5,7.5v12.512c0,15.855,12.899,28.755,28.755,28.755
	c15.856,0,28.755-12.899,28.755-28.755v-12.512c0-4.142-3.358-7.5-7.5-7.5L234.746,244.073L234.746,244.073z M269.756,264.085
	c0,7.584-6.17,13.755-13.755,13.755c-7.584,0-13.755-6.17-13.755-13.755v-5.012h27.51V264.085z"/>
<g>
</g>
<g>
</g>
<g>
</g>
<g>
</g>
<g>
</g>
<g>
</g>
<g>
</g>
<g>
</g>
<g>
</g>
<g>
</g>
<g>
</g>
<g>
</g>
<g>
</g>
<g>
</g>
<g>
</g>
</svg>
