<?xml version="1.0" encoding="iso-8859-1"?>
<!-- Generator: Adobe Illustrator 19.0.0, SVG Export Plug-In . SVG Version: 6.00 Build 0)  -->
<svg xmlns="http://www.w3.org/2000/svg" xmlns:xlink="http://www.w3.org/1999/xlink" version="1.1" id="Layer_1" x="0px" y="0px" viewBox="0 0 512.063 512.063" style="enable-background:new 0 0 512.063 512.063;" xml:space="preserve" width="512" height="512">
<g>
	<g>
		<path style="fill:#C86D5C;" d="M196.296,366.106c-41.985,26.121-82.875,97.831-112.635,125.792    c-41.775,39.251-102.747-21.72-63.496-63.496c27.961-29.76,99.671-70.65,125.792-112.635L196.296,366.106z"/>
		<path style="fill:#AD4F3D;" d="M41.378,449.615c27.961-29.76,99.671-70.651,125.792-112.635l-21.213-21.213    c-26.121,41.984-97.831,82.875-125.792,112.635c-24.164,25.718-10.339,58.701,13.602,71.107    C26.021,484.561,26.291,465.673,41.378,449.615z"/>
		
			<ellipse transform="matrix(0.7071 0.7071 -0.7071 0.7071 281.0696 -45.6037)" style="fill:#FADC60;" cx="195.583" cy="316.479" rx="52.777" ry="46.851"/>
		<path style="fill:#E6CB59;" d="M179.477,300.373c15.024-15.024,38.975-16.435,58.475-5.05c-2.479-4.247-5.555-8.286-9.241-11.972    c-20.611-20.611-52.151-22.487-70.448-4.191c-18.296,18.296-16.42,49.837,4.191,70.448c3.686,3.686,7.726,6.762,11.972,9.241    C163.042,339.348,164.453,315.397,179.477,300.373z"/>
		<circle style="fill:#506366;" cx="317.895" cy="194.168" r="186.636"/>
		<circle style="fill:#6EE3FF;" cx="317.895" cy="194.168" r="138.908"/>
		<path style="fill:#42C3E2;" d="M240.885,117.158c50.663-50.663,130.72-54.003,185.268-10.035    c-3.111-3.859-6.451-7.594-10.035-11.178c-54.247-54.247-142.199-54.247-196.446,0s-54.247,142.199,0,196.446    c3.584,3.584,7.319,6.924,11.178,10.035C186.882,247.878,190.222,167.821,240.885,117.158z"/>
	</g>
	<g>
		<path d="M337.606,339.235c31.986-4.316,60.979-18.684,83.847-41.551c57.085-57.084,57.085-149.968,0-207.053    c-57.085-57.085-149.969-57.084-207.053,0c-57.085,57.084-57.085,149.968,0,207.053c24.526,24.526,57.056,39.58,91.595,42.388    c0.207,0.017,0.412,0.025,0.616,0.025c3.867,0,7.148-2.971,7.467-6.893c0.335-4.128-2.739-7.748-6.868-8.083    c-30.998-2.52-60.191-16.031-82.205-38.044c-24.82-24.82-38.488-57.819-38.488-92.92s13.668-68.1,38.488-92.92    c51.236-51.235,134.604-51.235,185.84,0c24.82,24.82,38.488,57.819,38.488,92.92s-13.668,68.1-38.488,92.92    c-20.524,20.524-46.544,33.419-75.246,37.292c-4.105,0.554-6.983,4.331-6.43,8.436    C329.724,336.91,333.501,339.791,337.606,339.235z"/>
		<path d="M264.296,124.951l-10.156,10.156c-2.929,2.929-2.929,7.678,0,10.606c1.464,1.465,3.384,2.197,5.303,2.197    s3.839-0.732,5.303-2.197l10.156-10.156c2.929-2.929,2.929-7.678,0-10.606C271.974,122.021,267.225,122.022,264.296,124.951z"/>
		<path d="M376.977,257.943l10.156-10.156c2.929-2.929,2.929-7.678,0-10.606c-2.929-2.929-7.678-2.929-10.606,0l-10.156,10.156    c-2.929,2.929-2.929,7.678,0,10.606c1.464,1.464,3.384,2.197,5.303,2.197S375.513,259.408,376.977,257.943z"/>
		<path d="M302.919,174.485c-4.144-0.281-7.708,2.848-7.986,6.98c-0.636,9.458,2.974,18.855,9.902,25.784    c6.405,6.406,14.921,9.974,23.644,9.974c0.712,0,1.426-0.023,2.14-0.072c4.133-0.277,7.258-3.853,6.98-7.986    c-0.278-4.132-3.842-7.26-7.986-6.98c-5.136,0.343-10.304-1.675-14.171-5.542c-3.868-3.868-5.888-9.033-5.543-14.172    C310.177,178.338,307.052,174.763,302.919,174.485z"/>
		<path d="M128.128,450.149c21.616-28.401,46.038-60.482,70.142-76.385c1.086,0.063,2.173,0.1,3.264,0.1    c9.837,0,19.11-2.521,27.104-7.313c27.902,14.428,58.593,21.652,89.288,21.652c49.714,0,99.428-18.923,137.275-56.77    c36.667-36.667,56.861-85.419,56.861-137.275S491.869,93.55,455.201,56.883C419.004,20.685,370.871,0.499,319.67,0.042    c-0.023,0-0.045,0-0.068,0c-4.11,0-7.461,3.314-7.498,7.433c-0.037,4.142,3.291,7.53,7.433,7.566    c47.245,0.422,91.659,19.048,125.059,52.448c33.834,33.834,52.468,78.819,52.468,126.668s-18.634,92.834-52.468,126.668    c-57.833,57.832-145.694,67.778-213.856,29.84c-16.127-8.976-30.861-20.518-43.48-33.982c-10.29-10.979-19.21-23.209-26.45-36.404    c-0.085-0.155-0.187-0.296-0.281-0.444c-14.19-25.982-21.737-55.249-21.737-85.679c0-47.849,18.634-92.834,52.468-126.668    c27.18-27.179,61.579-44.605,99.478-50.393c4.095-0.625,6.907-4.452,6.282-8.546c-0.626-4.095-4.454-6.908-8.546-6.282    c-41.081,6.273-78.364,25.159-107.82,54.614c-36.667,36.667-56.861,85.419-56.861,137.275c0,31.622,7.522,62.083,21.697,89.36    c-5.398,9.066-7.708,19.58-7.109,30.205c-15.882,24.133-48.006,48.589-76.442,70.232c-18.557,14.124-36.085,27.465-47.206,39.302    c-14.906,15.865-18.713,35.929-10.444,55.047c8.721,20.165,28.603,33.715,49.479,33.718c12.725,0,24.85-5.072,35.063-14.668    C100.664,486.232,114.004,468.705,128.128,450.149z M169.965,319.846c12.239,14.361,26.731,27.146,42.682,37.456    c-3.514,1.032-7.247,1.561-11.117,1.561c-17.608,0-34.241-11.055-42.538-26.327c-5.368-9.88-7.441-22.046-4.219-33.069    C159.36,306.542,164.428,313.349,169.965,319.846z M78.556,486.422c-7.486,7.034-15.826,10.6-24.795,10.6    c-14.742-0.002-29.426-10.147-35.708-24.672c-3.398-7.857-6.929-23.349,7.608-38.822c10.267-10.927,27.313-23.901,45.359-37.637    c25.229-19.202,53.268-40.544,71.651-62.834c1.795,4.454,4.127,8.724,6.916,12.736c7.268,10.457,17.611,18.852,29.439,23.619    c-22.292,18.384-43.633,46.424-62.835,71.653C102.457,459.11,89.484,476.155,78.556,486.422z"/>
	</g>
</g>















</svg>
