<?xml version="1.0" encoding="utf-8"?>
<!-- Generator: Adobe Illustrator 19.0.0, SVG Export Plug-In . SVG Version: 6.00 Build 0)  -->
<svg version="1.1" id="Layer_1" xmlns="http://www.w3.org/2000/svg" xmlns:xlink="http://www.w3.org/1999/xlink" x="0px" y="0px"
	 viewBox="-48 172.5 497.4 497.4" style="enable-background:new -48 172.5 497.4 497.4;" xml:space="preserve">
<style type="text/css">
	.st0{fill:#3F3D56;}
	.st1{fill:#BE9444;}
	.st2{fill:#B0812A;}
</style>
<g>
	<path class="st0" d="M111.9,472v197.8l92.6-46.5l92.6,46.5V466.8c-27,19.9-60.3,31.6-96.4,31.6C168,498.4,137.5,488.7,111.9,472z"
		/>
	<path class="st1" d="M200.7,172.5c-89.9,0-163,73.1-163,163c0,57.1,29.6,107.5,74.2,136.6c25.6,16.7,56.1,26.4,88.8,26.4
		L200.7,172.5L200.7,172.5z"/>
	<path class="st2" d="M363.7,335.5c0-89.9-73.1-163-163-163v326c36,0,69.3-11.8,96.4-31.6C337.4,437.1,363.7,389.3,363.7,335.5z"/>
</g>
</svg>
