<svg height="512pt" viewBox="0 -24 512.00123 512" width="512pt" xmlns="http://www.w3.org/2000/svg"><path d="m292.097656 314.773438-36.097656-22.214844-36.09375 22.214844s-3.703125 30.847656-28.382812 56.765624l64.476562 20.515626 64.480469-20.515626c-24.683594-25.917968-28.382813-56.765624-28.382813-56.765624zm0 0" fill="#e7b835"/><path d="m221.523438 371.535156c24.679687-25.914062 28.382812-56.765625 28.382812-56.765625l21.09375-12.980469-15-9.230468-36.09375 22.210937s-3.703125 30.851563-28.382812 56.765625l64.476562 20.515625 15-4.773437zm0 0" fill="#d9ad32"/><path d="m392.667969 211.269531c39.007812 0 78.503906-20.386719 96.710937-58.953125 12.855469-27.238281 14.992188-54.246094 15.078125-55.378906.335938-4.492188-1.214843-8.921875-4.28125-12.222656-3.0625-3.304688-7.363281-5.179688-11.871093-5.179688h-72.804688c-8.945312 0-16.199219 7.25-16.199219 16.195313 0 8.945312 7.253907 16.195312 16.199219 16.195312h53.671875c-1.863281 7.933594-4.816406 17.683594-9.429687 27.277344-12.839844 26.695313-41.003907 39.667969-67.074219 39.667969-8.945313 0-16.195313 7.253906-16.195313 16.199218 0 8.945313 7.25 16.199219 16.195313 16.199219zm0 0" fill="#e7b835"/><path d="m399.300781 95.734375c0 8.945313 7.253907 16.195313 16.199219 16.195313h38.292969c1.226562-10.550782 2.078125-21.347657 2.511719-32.394532h-40.804688c-8.945312 0-16.199219 7.253906-16.199219 16.199219zm0 0" fill="#d9ad32"/><path d="m445.382812 158.746094c-14.410156 13.503906-34.097656 20.128906-52.714843 20.128906-8.945313 0-16.195313 7.25-16.195313 16.199219 0 8.945312 7.25 16.195312 16.195313 16.195312 12.667969 0 25.382812-2.164062 37.40625-6.386719 1.050781-2.484374 2.082031-4.988281 3.070312-7.519531 4.816407-12.324219 8.894531-25.214843 12.238281-38.617187zm0 0" fill="#d9ad32"/><path d="m119.332031 211.269531c-39.007812 0-78.503906-20.386719-96.707031-58.953125-12.859375-27.238281-14.996094-54.242187-15.082031-55.378906-.332031-4.492188 1.21875-8.921875 4.28125-12.222656 3.066406-3.304688 7.367187-5.179688 11.871093-5.179688h72.808594c8.945313 0 16.195313 7.253906 16.195313 16.195313 0 8.945312-7.25 16.199219-16.195313 16.199219h-53.671875c1.859375 7.929687 4.8125 17.679687 9.425781 27.277343 12.839844 26.691407 41.007813 39.667969 67.074219 39.667969 8.945313 0 16.195313 7.25 16.195313 16.195312.003906 8.945313-7.25 16.199219-16.195313 16.199219zm0 0" fill="#e7b835"/><path d="m119.332031 178.875c-18.617187 0-38.300781-6.625-52.710937-20.128906 3.34375 13.402344 7.421875 26.292968 12.238281 38.617187.988281 2.53125 2.019531 5.03125 3.070313 7.515625 12.023437 4.226563 24.738281 6.390625 37.402343 6.390625 8.945313 0 16.199219-7.253906 16.199219-16.199219 0-8.945312-7.253906-16.195312-16.199219-16.195312zm0 0" fill="#d9ad32"/><path d="m112.699219 95.734375c0-8.945313-7.25-16.199219-16.195313-16.199219h-40.808594c.4375 11.046875 1.285157 21.839844 2.511719 32.394532h38.296875c8.945313 0 16.195313-7.25 16.195313-16.195313zm0 0" fill="#d9ad32"/><path d="m431.667969 61.179688c0 207.316406-139.574219 253.589843-139.574219 253.589843h-72.1875s-139.570312-46.273437-139.570312-253.589843l175.664062-26.839844zm0 0" fill="#ffcd38"/><path d="m110.335938 61.179688 160.664062-24.546876-15-2.292968-175.664062 26.839844c0 207.316406 139.570312 253.589843 139.570312 253.589843h30c0 .003907-139.570312-46.273437-139.570312-253.589843zm0 0" fill="#e7b835"/><path d="m338.785156 371.535156h-165.566406c-9.542969 0-17.277344 7.738282-17.277344 17.277344v50.285156c0 9.542969 7.734375 17.277344 17.277344 17.277344h165.566406c9.542969 0 17.277344-7.734375 17.277344-17.277344v-50.285156c0-9.539062-7.734375-17.277344-17.277344-17.277344zm0 0" fill="#c86d5c"/><path d="m185.941406 439.097656v-50.285156c0-9.539062 7.734375-17.277344 17.277344-17.277344h-30c-9.542969 0-17.277344 7.738282-17.277344 17.277344v50.285156c0 9.542969 7.734375 17.277344 17.277344 17.277344h30c-9.542969 0-17.277344-7.734375-17.277344-17.277344zm0 0" fill="#ad4f3d"/><path d="m211.113281 394.511719h89.777344v38.890625h-89.777344zm0 0" fill="#efedee"/><path d="m431.667969 7.5h-351.332031c-8.789063 0-15.917969 7.125-15.917969 15.917969v21.847656c0 8.789063 7.128906 15.914063 15.917969 15.914063h351.332031c8.789062 0 15.914062-7.125 15.914062-15.914063v-21.847656c0-8.792969-7.125-15.917969-15.914062-15.917969zm0 0" fill="#e7b835"/><path d="m94.417969 45.265625v-21.847656c0-8.792969 7.128906-15.917969 15.917969-15.917969h-30c-8.789063 0-15.917969 7.125-15.917969 15.917969v21.847656c0 8.789063 7.128906 15.914063 15.917969 15.914063h30c-8.789063 0-15.917969-7.125-15.917969-15.914063zm0 0" fill="#d9ad32"/><path d="m170.449219 149.792969v14.125c0 4.140625 3.355469 7.5 7.5 7.5 4.140625 0 7.5-3.359375 7.5-7.5v-14.125c0-4.144531-3.359375-7.5-7.5-7.5-4.144531 0-7.5 3.355469-7.5 7.5zm0 0"/><path d="m326.550781 149.792969v14.125c0 4.140625 3.359375 7.5 7.5 7.5 4.144531 0 7.5-3.359375 7.5-7.5v-14.125c0-4.144531-3.355469-7.5-7.5-7.5-4.140625 0-7.5 3.355469-7.5 7.5zm0 0"/><path d="m269.617188 158c-3.308594 3.785156-8.273438 5.957031-13.617188 5.957031s-10.304688-2.171875-13.617188-5.957031c-2.726562-3.121094-7.464843-3.4375-10.582031-.710938-3.121093 2.722657-3.4375 7.460938-.710937 10.582032 6.160156 7.046875 15.238281 11.085937 24.910156 11.085937s18.75-4.039062 24.910156-11.085937c2.726563-3.121094 2.410156-7.859375-.710937-10.582032-3.117188-2.726562-7.855469-2.410156-10.582031.710938zm0 0"/><path d="m300.886719 387.011719h-89.773438c-4.144531 0-7.5 3.355469-7.5 7.5v38.890625c0 4.144531 3.355469 7.5 7.5 7.5h89.773438c4.144531 0 7.5-3.355469 7.5-7.5v-38.890625c0-4.144531-3.355469-7.5-7.5-7.5zm-7.5 38.890625h-74.773438v-23.890625h74.773438zm0 0"/><path d="m488.304688 72.035156h-49.28125c.035156-1.519531.0625-3.042968.082031-4.574218 9.273437-3.117188 15.976562-11.886719 15.976562-22.195313v-21.847656c0-12.914063-10.503906-23.417969-23.417969-23.417969h-263.5625c-4.144531 0-7.5 3.359375-7.5 7.5 0 4.144531 3.355469 7.5 7.5 7.5h263.5625c4.640626 0 8.417969 3.777344 8.417969 8.417969v21.847656c0 4.640625-3.777343 8.414063-8.417969 8.414063h-351.328124c-4.640626 0-8.417969-3.773438-8.417969-8.414063v-21.847656c0-4.640625 3.777343-8.417969 8.417969-8.417969h57.765624c4.140626 0 7.5-3.355469 7.5-7.5 0-4.140625-3.359374-7.5-7.5-7.5h-57.765624c-12.914063 0-23.417969 10.503906-23.417969 23.417969v21.847656c0 10.3125 6.703125 19.082031 15.976562 22.199219.023438 1.527344.046875 3.054687.082031 4.570312 0 0-49.269531 0-49.28125 0-13.578124 0-24.640624 11.929688-23.632812 25.460938.089844 1.195312 2.339844 29.558594 15.777344 58.019531 16.515625 34.992187 51.394531 58.707031 91.691406 62.664063 10.230469 19.488281 22.644531 37.121093 37.097656 52.648437 27.46875 29.507813 54.820313 43.496094 66.742188 48.632813-2.136719 9.0625-8.0625 27.667968-23.136719 44.574218h-15.019531c-13.660156 0-24.777344 11.117188-24.777344 24.777344v50.285156c0 13.664063 11.117188 24.777344 24.777344 24.777344h165.566406c13.664062 0 24.777344-11.113281 24.777344-24.777344v-50.285156c0-13.660156-11.113282-24.777344-24.777344-24.777344h-15.015625c-14.980469-16.816406-20.957031-35.5-23.121094-44.585937 9.121094-3.941407 27.257813-13.066407 47.582031-30.320313 3.160157-2.683594 3.546876-7.414062.863282-10.574218-2.679688-3.15625-7.414063-3.542969-10.570313-.863282-22.941406 19.480469-43.027343 27.789063-47.742187 29.582032h-69.550782c-5.96875-2.269532-36.292968-14.902344-66.199218-47.292969-38.230469-41.394531-58.019532-96.054688-64.503906-151.359375-1.554688-13.242188-2.402344-26.609375-2.625-39.941406h336.203124c-.226562 13.277343-1.207031 26.46875-2.597656 39.667968-2.785156 23.898438-7.753906 46.28125-14.878906 66.941406-3.328125 9.632813-7.1875 19.109376-11.605469 28.296876-9.640625 20.015624-21.617187 38.070312-35.753906 53.875-2.761719 3.085937-2.5 7.828124.585937 10.589843 3.089844 2.761719 7.832032 2.496094 10.589844-.589843 13.148438-14.691407 24.515625-31.195313 34.007813-49.277344 40.308593-3.953125 75.191406-27.667969 91.710937-62.664063 13.4375-28.460937 15.6875-56.824219 15.777344-58.023437 1.011719-13.546875-10.0625-25.460938-23.632812-25.460938zm-139.742188 316.777344v50.285156c0 5.390625-4.386719 9.777344-9.777344 9.777344h-165.570312c-5.390625 0-9.773438-4.386719-9.773438-9.777344v-50.285156c0-5.390625 4.382813-9.777344 9.773438-9.777344h165.570312c5.390625 0 9.777344 4.386719 9.777344 9.777344zm-62.6875-66.539062c2.011719 8.8125 7.027344 25.191406 18.753906 41.761718h-97.257812c11.722656-16.570312 16.738281-32.949218 18.753906-41.761718zm-199.945312-158.996094c-11.933594-6.199219-21.265626-15.585938-26.914063-27.320313-2.449219-5.09375-4.589844-10.625-6.398437-16.527343h24.191406c2.164062 15.234374 5.207031 29.867187 9.121094 43.847656zm-56.523438-14.164063c-12.261719-25.972656-14.300781-51.652343-14.382812-52.734375-.375-4.960937 3.707031-9.34375 8.671874-9.34375h49.882813c.007813.15625.023437.3125.03125.46875.335937 5.648438.78125 11.296875 1.351563 16.925782 0 0-32.085938 0-32.132813 0-4.75 0-8.386719 4.59375-7.300781 9.214843 2.457031 10.472657 5.8125 20.164063 9.972656 28.8125 9.015625 18.75 25.371094 32.660157 46.304688 39.503907.121093.335937.246093.667968.367187 1.003906 1.261719 3.535156 2.609375 7.035156 3.988281 10.523437 1.144532 2.84375 2.316406 5.660157 3.542969 8.4375-31.058594-5.859375-57.316406-25.308593-70.296875-52.8125zm405.792969-29.683593h24.183593c-1.808593 5.898437-3.949218 11.433593-6.398437 16.527343-5.648437 11.738281-14.980469 21.125-26.917969 27.324219 3.914063-13.984375 6.972656-28.613281 9.132813-43.851562zm61.777343-23.050782c-.078124 1.078125-2.117187 26.757813-14.382812 52.734375-12.980469 27.503907-39.238281 46.953125-70.296875 52.8125.160156-.359375.308594-.726562.46875-1.089843 2.695313-6.203126 5.179687-12.5 7.429687-18.878907 20.933594-6.839843 37.289063-20.753906 46.304688-39.5 4.160156-8.648437 7.515625-18.34375 9.972656-28.8125 1.089844-4.644531-2.539062-9.214843-7.300781-9.214843h-32.132813c.578126-5.710938 1.042969-11.527344 1.382813-17.390626h49.882813c4.984374-.003906 9.042968 4.367188 8.671874 9.339844zm0 0"/></svg>