<?xml version="1.0" encoding="utf-8"?>
<!-- Generator: Adobe Illustrator 19.0.0, SVG Export Plug-In . SVG Version: 6.00 Build 0)  -->
<svg version="1.1" id="Layer_1" xmlns="http://www.w3.org/2000/svg" xmlns:xlink="http://www.w3.org/1999/xlink" x="0px" y="0px"
	 viewBox="-41 164.9 512 512" style="enable-background:new -41 164.9 512 512;" xml:space="preserve">
<style type="text/css">
	.st0{fill:#F2CA20;}
	.st1{fill:#C66F34;}
	.st2{fill:#FFE471;}
	.st3{fill:#D18F5F;}
</style>
<g>
	<g>
		<g>
			<path class="st0" d="M220.8,407.5h-11.6c-19.9,102.9-84.1,187.5-84.1,187.5H215h89.9C304.9,595.1,240.7,510.4,220.8,407.5z"/>
			<g>
				<g>
					<path class="st1" d="M463.3,243.6H275.3v31.9h161.3c-11.2,54.6-59.6,95.7-117.5,95.7h-43.8v31.9h43.8
						c83.9,0,151.9-68,151.9-151.9l0,0C471,247.1,467.5,243.6,463.3,243.6z"/>
					<path class="st1" d="M110.9,371.3C53,371.3,4.6,330.1-6.6,275.5h161.3v-31.9H-33.3c-4.3,0-7.7,3.5-7.7,7.7l0,0
						c0,83.9,68,151.9,151.9,151.9h43.8v-31.9H110.9z"/>
				</g>
				<path class="st2" d="M385.2,191.1H44.8c0,0-8.3,237.1,170.2,290.6C393.5,428.2,385.2,191.1,385.2,191.1z"/>
				<path class="st0" d="M385.2,191.1H332c0,0,7.4,212.9-143.6,280.7c8.4,3.8,17.2,7.1,26.6,9.9
					C393.5,428.2,385.2,191.1,385.2,191.1z"/>
			</g>
			<path class="st3" d="M326.5,669.7H103.5c-8.2,0-14.9-6.6-14.9-14.8v-91.8c0-8.2,6.6-14.8,14.9-14.8h223.1
				c8.2,0,14.9,6.6,14.9,14.8v91.8C341.4,663.1,334.7,669.7,326.5,669.7z"/>
			<path class="st1" d="M326.5,548.2h-38.4v121.5h38.4c8.2,0,14.9-6.6,14.9-14.9v-91.8C341.4,554.9,334.7,548.2,326.5,548.2z"/>
			<path class="st2" d="M122.6,629.8v-41.7c0-3.3,2.6-5.9,5.9-5.9h173c3.3,0,5.9,2.6,5.9,5.9v41.7c0,3.3-2.6,5.9-5.9,5.9h-173
				C125.3,635.7,122.6,633.1,122.6,629.8z"/>
		</g>
		<path class="st3" d="M395.3,209.1H34.7c-5.5,0-10-4.5-10-10v-17c0-5.5,4.5-10,10-10h360.6c5.5,0,10,4.5,10,10v17
			C405.3,204.6,400.8,209.1,395.3,209.1z"/>
	</g>
</g>
</svg>
