<?xml version="1.0" encoding="iso-8859-1"?>
<!-- Generator: Adobe Illustrator 19.0.0, SVG Export Plug-In . SVG Version: 6.00 Build 0)  -->
<svg version="1.1" id="Capa_1" xmlns="http://www.w3.org/2000/svg" xmlns:xlink="http://www.w3.org/1999/xlink" x="0px" y="0px"
	 viewBox="0 0 512 512" style="enable-background:new 0 0 512 512;" xml:space="preserve">
<g>
	<path style="fill:#858384;" d="M298.561,20.361C294.013,12.41,285.566,7.5,276.405,7.5h-40.81c-9.161,0-17.608,4.91-22.156,12.861
		c-5.91,10.333-13.314,25.793-16.105,42.245h117.332C311.875,46.155,304.471,30.694,298.561,20.361z"/>
	<path style="fill:#858384;" d="M452.717,119.474c2.407-8.839-0.095-18.283-6.572-24.761l-28.857-28.857
		c-6.478-6.478-15.922-8.979-24.761-6.572c-11.486,3.127-27.653,8.824-41.259,18.484l82.966,82.966
		C443.893,147.127,449.589,130.959,452.717,119.474z"/>
	<path style="fill:#858384;" d="M491.638,298.561c7.952-4.548,12.861-12.995,12.861-22.156v-40.81
		c0-9.161-4.91-17.608-12.861-22.156c-10.333-5.91-25.793-13.314-42.245-16.105v117.332
		C465.845,311.875,481.305,304.471,491.638,298.561z"/>
	<path style="fill:#858384;" d="M392.526,452.717c8.839,2.407,18.283-0.095,24.761-6.572l28.857-28.857
		c6.478-6.478,8.979-15.922,6.572-24.761c-3.127-11.486-8.824-27.653-18.484-41.259l-82.966,82.966
		C364.873,443.893,381.041,449.589,392.526,452.717z"/>
	<path style="fill:#858384;" d="M213.439,491.639c4.548,7.952,12.995,12.861,22.156,12.861h40.81c9.161,0,17.608-4.91,22.156-12.861
		c5.91-10.333,13.314-25.793,16.105-42.245H197.334C200.125,465.845,207.529,481.306,213.439,491.639z"/>
	<path style="fill:#858384;" d="M59.283,392.526c-2.407,8.839,0.095,18.283,6.572,24.761l28.857,28.857
		c6.478,6.478,15.922,8.979,24.761,6.572c11.486-3.127,27.653-8.824,41.259-18.484l-82.966-82.966
		C68.107,364.873,62.411,381.041,59.283,392.526z"/>
	<path style="fill:#858384;" d="M20.361,213.439C12.409,217.987,7.5,226.434,7.5,235.595v40.81c0,9.161,4.91,17.608,12.861,22.156
		c10.333,5.91,25.793,13.314,42.245,16.105V197.334C46.155,200.125,30.694,207.529,20.361,213.439z"/>
	<path style="fill:#858384;" d="M119.473,59.283c-8.839-2.407-18.283,0.095-24.761,6.572L65.855,94.712
		c-6.478,6.478-8.979,15.922-6.572,24.761c3.127,11.486,8.824,27.653,18.484,41.259l82.966-82.966
		C147.127,68.107,130.959,62.411,119.473,59.283z"/>
</g>
<path style="fill:#BAB8B9;" d="M256,53.948C144.41,53.948,53.948,144.41,53.948,256S144.41,458.052,256,458.052
	S458.052,367.59,458.052,256S367.59,53.948,256,53.948z M256,341.53c-47.237,0-85.53-38.293-85.53-85.53s38.293-85.53,85.53-85.53
	s85.53,38.293,85.53,85.53S303.237,341.53,256,341.53z"/>
<path style="fill:#9E9C9D;" d="M93.948,256c0-104.84,79.851-191.024,182.052-201.067c-6.58-0.646-13.25-0.984-20-0.984
	C144.41,53.948,53.948,144.41,53.948,256S144.41,458.052,256,458.052c6.75,0,13.42-0.338,20-0.984
	C173.799,447.024,93.948,360.84,93.948,256z"/>
<path d="M201.393,128.248c4.142,0,7.5-3.358,7.5-7.5v-9.883c0-4.142-3.358-7.5-7.5-7.5s-7.5,3.358-7.5,7.5v9.883
	C193.893,124.89,197.251,128.248,201.393,128.248z"/>
<path d="M310.606,128.248c4.142,0,7.5-3.358,7.5-7.5v-9.883c0-4.142-3.358-7.5-7.5-7.5s-7.5,3.358-7.5,7.5v9.883
	C303.106,124.89,306.464,128.248,310.606,128.248z"/>
<path d="M256,133.523c7.417,0,14.388-3.108,19.125-8.527c2.726-3.119,2.408-7.856-0.711-10.583
	c-3.118-2.726-7.856-2.408-10.583,0.711c-1.888,2.16-4.742,3.399-7.831,3.399s-5.943-1.239-7.831-3.399
	c-2.727-3.119-7.465-3.437-10.583-0.711c-3.119,2.726-3.438,7.464-0.711,10.583C241.612,130.415,248.582,133.523,256,133.523z"/>
<path d="M495.363,206.929c-9.746-5.574-24.3-12.64-40.2-16.102c-3.35-10.213-7.458-20.084-12.27-29.542
	c8.807-13.695,14.108-28.999,17.061-39.842c3.105-11.407-0.154-23.682-8.506-32.035c0,0-28.837-28.836-28.857-28.857
	c-8.292-8.292-20.727-11.586-32.034-8.505c-10.841,2.952-26.144,8.252-39.842,17.06c-9.456-4.812-19.326-8.918-29.537-12.268
	c-3.46-15.9-10.531-30.454-16.106-40.201C299.201,6.375,288.217,0,276.404,0h-40.81c-11.812,0-22.796,6.375-28.667,16.638
	c-5.575,9.747-12.641,24.301-16.101,40.2c-10.213,3.35-20.084,7.458-29.542,12.27c-13.698-8.808-29-14.109-39.842-17.061
	c-11.347-3.089-23.721,0.191-32.035,8.505L60.552,89.409c-8.353,8.354-11.611,20.628-8.505,32.035
	c2.952,10.842,8.253,26.146,17.061,39.842c-4.812,9.458-8.919,19.329-12.27,29.542c-15.9,3.461-30.454,10.527-40.199,16.101
	C6.375,212.798,0,223.782,0,235.595v40.81c0,11.812,6.375,22.796,16.638,28.666c9.747,5.575,24.302,12.641,40.2,16.101
	c3.35,10.212,7.458,20.084,12.27,29.542c-8.808,13.697-14.109,29-17.06,39.842c-3.106,11.407,0.152,23.683,8.505,32.035
	c0,0,28.827,28.827,28.856,28.857c8.287,8.287,20.737,11.583,32.036,8.505c10.842-2.952,26.145-8.253,39.842-17.06
	c9.457,4.812,19.329,8.919,29.541,12.27c3.46,15.898,10.526,30.453,16.101,40.2c5.87,10.262,16.854,16.637,28.666,16.637h40.81
	c11.813,0,22.797-6.375,28.667-16.638c5.575-9.747,12.641-24.301,16.102-40.2c10.212-3.35,20.084-7.458,29.541-12.27
	c13.697,8.807,29.001,14.108,39.843,17.06c11.348,3.089,23.72-0.191,32.034-8.505l28.857-28.857
	c8.352-8.352,11.611-20.627,8.505-32.035c-2.953-10.842-8.254-26.146-17.061-39.841c4.813-9.458,8.92-19.33,12.27-29.542
	c15.899-3.46,30.453-10.526,40.2-16.101c10.262-5.87,16.637-16.854,16.637-28.666v-40.81
	C512,223.783,505.625,212.799,495.363,206.929z M450.5,260.477c-0.23,9.936-1.224,19.86-2.947,29.645
	c-0.026,0.146-0.051,0.291-0.077,0.436c-14.333,79.628-77.285,142.582-156.913,156.917c-0.149,0.027-0.298,0.052-0.448,0.079
	c-22.516,4.002-45.725,3.988-68.241-0.001c-0.143-0.025-0.287-0.05-0.43-0.076c-79.635-14.334-142.592-77.294-156.922-156.93
	c-2.05-11.394-3.073-22.971-3.073-34.547c0-11.573,1.03-23.155,3.073-34.546C78.852,141.819,141.807,78.86,221.44,64.525
	c0.147-0.026,0.293-0.052,0.44-0.078c22.515-3.978,45.714-4.001,68.228-0.002c0.153,0.027,0.307,0.053,0.46,0.081
	c79.626,14.337,142.575,77.29,156.909,156.917c0.026,0.145,0.051,0.291,0.077,0.436C449.795,234.606,450.799,247.555,450.5,260.477z
	 M394.497,66.52c6.193-1.686,12.946,0.098,17.487,4.639l28.857,28.857c4.558,4.558,6.335,11.259,4.64,17.487
	c-2.157,7.921-5.67,18.448-11.046,28.576c-17.21-27.929-40.584-51.304-68.514-68.514C376.05,72.188,386.576,68.676,394.497,66.52z
	 M207.557,52.09c3.36-10.958,8.317-20.881,12.392-28.004C223.154,18.481,229.15,15,235.595,15h40.81
	c6.446,0,12.441,3.481,15.646,9.085c4.074,7.124,9.032,17.046,12.393,28.005c-0.309-0.073-0.62-0.134-0.928-0.206
	c-15.576-3.594-31.527-5.436-47.514-5.436C239.718,46.448,223.4,48.325,207.557,52.09z M71.159,100.016
	c0,0,28.852-28.853,28.856-28.857c4.477-4.478,11.295-6.326,17.488-4.639c7.92,2.157,18.447,5.67,28.575,11.045
	c-27.929,17.21-51.304,40.584-68.514,68.514c-5.376-10.129-8.888-20.654-11.045-28.576
	C64.823,111.274,66.601,104.574,71.159,100.016z M52.089,304.443c-10.958-3.36-20.881-8.318-28.004-12.392
	c-5.604-3.205-9.085-9.2-9.085-15.646v-40.81c0-6.446,3.481-12.44,9.085-15.646c7.123-4.074,17.045-9.032,28.004-12.393
	c-0.075,0.315-0.137,0.634-0.21,0.95c-3.604,15.544-5.431,31.536-5.431,47.493c0,15.923,1.821,31.979,5.43,47.491
	C51.952,303.808,52.014,304.127,52.089,304.443z M117.503,445.48c-6.191,1.685-12.949-0.09-17.488-4.639l-28.856-28.857
	c-4.558-4.558-6.335-11.259-4.639-17.488c2.156-7.92,5.669-18.447,11.044-28.575c17.21,27.929,40.584,51.304,68.514,68.514
	C135.95,439.811,125.424,443.323,117.503,445.48z M304.443,459.91c-3.361,10.959-8.318,20.881-12.393,28.005
	c-3.205,5.604-9.2,9.084-15.646,9.084h-40.81c-6.445,0-12.44-3.481-15.646-9.085c-4.074-7.124-9.032-17.046-12.392-28.005
	c0.314,0.075,0.63,0.137,0.945,0.209c15.547,3.597,31.54,5.432,47.499,5.432c15.802,0,31.986-1.825,47.504-5.433
	C303.816,460.046,304.131,459.984,304.443,459.91z M440.841,411.984c0,0-28.839,28.839-28.857,28.857
	c-4.525,4.525-11.317,6.319-17.487,4.639c-7.921-2.157-18.447-5.669-28.576-11.045c27.929-17.21,51.304-40.584,68.514-68.514
	c5.375,10.128,8.888,20.654,11.045,28.575C447.176,400.726,445.398,407.427,440.841,411.984z M497,276.405
	c0,6.445-3.481,12.44-9.085,15.646c-7.124,4.074-17.046,9.032-28.005,12.392c0.073-0.309,0.134-0.621,0.206-0.931
	c6.715-28.941,7.208-59.276,1.416-88.416c-0.501-2.519-1.028-5.04-1.622-7.539c10.959,3.361,20.882,8.318,28.005,12.393
	c5.604,3.205,9.085,9.2,9.085,15.646L497,276.405L497,276.405z"/>
<path d="M256,162.97c-51.297,0-93.03,41.733-93.03,93.03c0,16.731,4.509,33.153,13.039,47.493c2.118,3.56,6.719,4.729,10.28,2.611
	c3.56-2.118,4.729-6.72,2.611-10.28c-7.15-12.02-10.93-25.791-10.93-39.824c0-43.026,35.004-78.03,78.03-78.03
	c43.025,0,78.029,35.004,78.029,78.03S299.025,334.03,256,334.03c-17.853,0-35.309-6.194-49.155-17.442
	c-3.216-2.611-7.938-2.123-10.55,1.092s-2.123,7.938,1.092,10.55c16.511,13.413,37.327,20.8,58.613,20.8
	c51.296,0,93.029-41.733,93.029-93.03S307.296,162.97,256,162.97z"/>
<g>
</g>
<g>
</g>
<g>
</g>
<g>
</g>
<g>
</g>
<g>
</g>
<g>
</g>
<g>
</g>
<g>
</g>
<g>
</g>
<g>
</g>
<g>
</g>
<g>
</g>
<g>
</g>
<g>
</g>
</svg>
