<svg height="512pt" viewBox="0 -63 512.00014 512" width="512pt" xmlns="http://www.w3.org/2000/svg"><path d="m373.859375 135.414062-75.019531-10.902343-33.546875-67.976563c-3.800781-7.703125-14.785157-7.703125-18.585938 0l-33.546875 67.976563-75.019531 10.902343c-8.5 1.234376-11.890625 11.679688-5.742187 17.675782l54.28125 52.914062-12.8125 74.714844c-1.453126 8.464844 7.429687 14.917969 15.03125 10.921875l67.101562-35.273437 67.097656 35.273437c7.601563 3.996094 16.484375-2.457031 15.035156-10.921875l-12.816406-74.714844 54.285156-52.914062c6.148438-5.996094 2.757813-16.441406-5.742187-17.675782zm0 0" fill="#ffcd38"/><path d="m424.496094 367.324219c-4.0625-11.109375-14.457032-20.113281-27.898438-22.667969s-26.414062 2.007812-34.269531 10.855469c4.0625 11.109375 14.457031 20.113281 27.898437 22.667969 13.441407 2.554687 26.414063-2.007813 34.269532-10.855469zm0 0" fill="#00ad94"/><path d="m374.144531 293.34375c-11.113281 4.0625-20.113281 14.457031-22.667969 27.898438-2.554687 13.441406 2.007813 26.414062 10.851563 34.269531 11.113281-4.0625 20.117187-14.457031 22.667969-27.898438 2.554687-13.441406-2.007813-26.414062-10.851563-34.269531zm0 0" fill="#3ac7b4"/><path d="m481.777344 288.789062c-9.191406-7.445312-22.738282-9.828124-35.578125-5.109374-12.84375 4.714843-21.628907 15.292968-23.820313 26.917968 9.191406 7.445313 22.738282 9.828125 35.578125 5.113282 12.84375-4.714844 21.628907-15.296876 23.820313-26.921876zm0 0" fill="#00ad94"/><path d="m400.570312 251.199219c-7.445312 9.191406-9.828124 22.738281-5.113281 35.578125 4.714844 12.84375 15.296875 21.628906 26.921875 23.820312 7.441406-9.191406 9.828125-22.738281 5.109375-35.578125-4.714843-12.84375-15.292969-21.628906-26.917969-23.820312zm0 0" fill="#3ac7b4"/><path d="m501.316406 185.917969c-11.816406-.605469-24.164062 5.441406-31.773437 16.8125-7.605469 11.371093-8.476563 25.09375-3.40625 35.78125 11.8125.609375 24.164062-5.441407 31.769531-16.8125 7.609375-11.371094 8.480469-25.09375 3.410156-35.78125zm0 0" fill="#00ad94"/><path d="m413.539062 203.332031c-.605468 11.816407 5.441407 24.167969 16.8125 31.773438 11.371094 7.605469 25.09375 8.480469 35.785157 3.410156.605469-11.816406-5.441407-24.167969-16.8125-31.773437-11.371094-7.605469-25.097657-8.480469-35.785157-3.410157zm0 0" fill="#3ac7b4"/><path d="m483.316406 89.898438c-10.890625 4.613281-19.363281 15.445312-21.238281 29-1.878906 13.550781 3.332031 26.277343 12.558594 33.679687 10.894531-4.617187 19.363281-15.449219 21.242187-29 1.875-13.550781-3.332031-26.277344-12.5625-33.679687zm0 0" fill="#00ad94"/><path d="m411.957031 143.898438c4.617188 10.894531 15.449219 19.363281 29 21.238281 13.550781 1.878906 26.28125-3.328125 33.679688-12.558594-4.613281-10.894531-15.445313-19.363281-29-21.238281-13.550781-1.878906-26.277344 3.328125-33.679688 12.558594zm0 0" fill="#3ac7b4"/><path d="m440.058594 7.5c-8.859375 7.839844-13.449219 20.800781-10.921875 34.246094 2.53125 13.445312 11.511719 23.859375 22.613281 27.945312 8.863281-7.839844 13.453125-20.804687 10.921875-34.25-2.527344-13.441406-11.507813-23.855468-22.613281-27.941406zm0 0" fill="#00ad94"/><path d="m389.5625 81.378906c7.835938 8.863282 20.800781 13.453125 34.246094 10.925782 13.445312-2.53125 23.859375-11.511719 27.941406-22.613282-7.835938-8.863281-20.800781-13.453125-34.246094-10.925781-13.445312 2.527344-23.855468 11.511719-27.941406 22.613281zm0 0" fill="#3ac7b4"/><path d="m87.507812 367.324219c4.058594-11.109375 14.453126-20.113281 27.894532-22.667969s26.414062 2.007812 34.269531 10.855469c-4.0625 11.109375-14.457031 20.113281-27.898437 22.667969-13.441407 2.554687-26.414063-2.007813-34.265626-10.855469zm0 0" fill="#00ad94"/><path d="m137.855469 293.34375c11.113281 4.0625 20.117187 14.457031 22.671875 27.898438 2.550781 13.441406-2.007813 26.414062-10.855469 34.269531-11.113281-4.0625-20.113281-14.457031-22.667969-27.898438-2.554687-13.441406 2.007813-26.414062 10.851563-34.269531zm0 0" fill="#3ac7b4"/><path d="m30.222656 288.789062c9.191406-7.445312 22.738282-9.828124 35.578125-5.109374 12.84375 4.714843 21.628907 15.292968 23.820313 26.917968-9.191406 7.445313-22.738282 9.828125-35.578125 5.113282-12.84375-4.714844-21.628907-15.296876-23.820313-26.921876zm0 0" fill="#00ad94"/><path d="m111.429688 251.199219c7.445312 9.191406 9.828124 22.738281 5.113281 35.578125-4.714844 12.84375-15.296875 21.628906-26.921875 23.820312-7.441406-9.191406-9.828125-22.738281-5.109375-35.578125 4.714843-12.84375 15.292969-21.628906 26.917969-23.820312zm0 0" fill="#3ac7b4"/><path d="m10.683594 185.917969c11.816406-.605469 24.164062 5.441406 31.773437 16.8125 7.605469 11.371093 8.476563 25.09375 3.40625 35.78125-11.8125.609375-24.164062-5.441407-31.769531-16.8125-7.609375-11.371094-8.480469-25.09375-3.410156-35.78125zm0 0" fill="#00ad94"/><path d="m98.460938 203.332031c.605468 11.816407-5.441407 24.167969-16.8125 31.773438-11.371094 7.605469-25.09375 8.480469-35.785157 3.410156-.605469-11.816406 5.441407-24.167969 16.8125-31.773437 11.371094-7.605469 25.097657-8.480469 35.785157-3.410157zm0 0" fill="#3ac7b4"/><path d="m28.683594 89.898438c10.890625 4.613281 19.363281 15.445312 21.238281 29 1.878906 13.550781-3.332031 26.277343-12.558594 33.679687-10.894531-4.617187-19.363281-15.449219-21.242187-29-1.875-13.550781 3.332031-26.277344 12.5625-33.679687zm0 0" fill="#00ad94"/><path d="m100.042969 143.898438c-4.617188 10.894531-15.449219 19.363281-29 21.238281-13.550781 1.878906-26.28125-3.328125-33.679688-12.558594 4.613281-10.894531 15.445313-19.363281 29-21.238281 13.550781-1.878906 26.277344 3.328125 33.679688 12.558594zm0 0" fill="#3ac7b4"/><path d="m71.941406 7.5c8.859375 7.839844 13.449219 20.800781 10.921875 34.246094-2.53125 13.449218-11.511719 23.859375-22.613281 27.945312-8.863281-7.839844-13.453125-20.804687-10.921875-34.25 2.527344-13.445312 11.507813-23.855468 22.613281-27.941406zm0 0" fill="#00ad94"/><path d="m122.4375 81.378906c-7.835938 8.863282-20.800781 13.453125-34.246094 10.925782-13.445312-2.53125-23.859375-11.511719-27.941406-22.613282 7.835938-8.863281 20.800781-13.453125 34.246094-10.925781 13.445312 2.53125 23.855468 11.511719 27.941406 22.613281zm0 0" fill="#3ac7b4"/><path d="m214.691406 175.625v-8.832031c0-4.144531-3.359375-7.5-7.5-7.5s-7.5 3.355469-7.5 7.5v8.832031c0 4.140625 3.359375 7.5 7.5 7.5s7.5-3.359375 7.5-7.5zm0 0"/><path d="m312.308594 175.625v-8.832031c0-4.144531-3.359375-7.5-7.5-7.5-4.144532 0-7.5 3.355469-7.5 7.5v8.832031c0 4.140625 3.355468 7.5 7.5 7.5 4.140625 0 7.5-3.359375 7.5-7.5zm0 0"/><path d="m256 187.839844c6.859375 0 13.308594-2.878906 17.691406-7.894532 2.726563-3.117187 2.410156-7.855468-.707031-10.582031-3.121094-2.726562-7.859375-2.410156-10.585937.710938-1.535157 1.757812-3.867188 2.765625-6.398438 2.765625s-4.863281-1.007813-6.398438-2.765625c-2.726562-3.121094-7.464843-3.4375-10.585937-.710938-3.117187 2.726563-3.433594 7.464844-.710937 10.582031 4.386718 5.015626 10.835937 7.894532 17.695312 7.894532zm0 0"/><path d="m139.21875 142.835938 20.488281-2.976563c4.097657-.597656 6.9375-4.402344 6.339844-8.5-.59375-4.101563-4.394531-6.9375-8.5-6.34375 0 0-20.460937 2.972656-20.484375 2.976563-14.359375 2.085937-20.300781 20.328124-9.898438 30.464843l51.457032 50.164063s-12.136719 70.769531-12.144532 70.828125c-2.453124 14.300781 13.050782 25.589843 25.914063 18.828125l63.609375-33.441406 63.609375 33.441406c12.789063 6.726562 28.363281-4.566406 25.914063-18.828125l-12.148438-70.828125s51.394531-50.097656 51.460938-50.164063c10.414062-10.148437 4.441406-28.382812-9.898438-30.464843l-71.117188-10.335938s-31.785156-64.398438-31.804687-64.441406c-6.433594-13.035156-25.613281-13.011719-32.035156 0l-31.804688 64.441406-21.132812 3.074219c-4.097657.59375-6.9375 4.398437-6.34375 8.5.597656 4.097656 4.398437 6.9375 8.5 6.34375l25.035156-3.640625c2.445313-.351563 4.554687-1.886719 5.648437-4.101563l33.546876-67.976562c.6875-1.390625 1.902343-1.597657 2.566406-1.597657.667968 0 1.882812.207032 2.566406 1.597657l33.550781 67.976562c1.089844 2.214844 3.203125 3.75 5.648438 4.101563 0 0 75.015625 10.902344 75.019531 10.902344 2.339844.339843 3.269531 3.238281 1.582031 4.882812l-54.28125 52.914062c-1.769531 1.722657-2.574219 4.203126-2.15625 6.636719 0 0 12.726563 74.214844 12.8125 74.710938.375 2.191406-1.996093 4.152343-4.152343 3.019531l-67.097657-35.277344c-2.1875-1.148437-4.792969-1.148437-6.980469 0 0 0-67.097656 35.277344-67.101562 35.277344-2.101562 1.105469-4.542969-.714844-4.148438-3.015625l12.816407-74.714844c.414062-2.433593-.390625-4.917969-2.160157-6.640625 0 0-54.28125-52.914062-54.285156-52.914062-1.691406-1.648438-.722656-4.542969 1.589844-4.878906zm0 0"/><path d="m76.90625 1.882812c-2.066406-1.8281245-4.96875-2.375-7.554688-1.421874-13.96875 5.140624-24.46875 18.011718-27.398437 33.597656-2.804687 14.925781 1.777344 30.042968 11.964844 39.957031 5.539062 13.09375 17.957031 22.851563 32.886719 25.660156 14.914062 2.800781 31.070312-1.8125 41.25-13.324219 1.828124-2.066406 2.371093-4.972656 1.421874-7.558593-5.140624-13.96875-18.011718-24.464844-33.597656-27.398438-2.554687-.476562-5.144531-.734375-7.722656-.792969.882812-2.414062 1.59375-4.902343 2.078125-7.46875 2.925781-15.585937-2.179687-31.390624-13.328125-41.25zm-20.207031 34.945313c1.632812-8.695313 6.660156-16.078125 13.527343-20.21875 4.898438 6.351563 6.898438 15.058594 5.265626 23.753906-.976563 5.183594-3.167969 9.960938-6.371094 13.90625-2.945313 1.277344-5.710938 2.882813-8.261719 4.769531-4.089844-6.179687-5.667969-14.199218-4.160156-22.210937zm56.628906 42.839844c-4.847656 3.742187-11.105469 5.824219-17.777344 5.824219-10.332031 0-20.773437-5.109376-26.1875-14.078126 6.6875-5.113281 15.539063-6.820312 23.746094-5.277343 8.695313 1.636719 16.078125 6.664062 20.21875 13.53125zm0 0"/><path d="m23.992188 84.046875c-11.613282 9.3125-17.476563 24.851563-15.300782 40.5625 2.082032 15.035156 11.222656 27.90625 24.023438 34.074219 7.960937 9.003906 20.085937 14.335937 32.835937 14.335937 17.371094 0 34.507813-9.933593 41.394531-26.195312 1.078126-2.539063.671876-5.464844-1.054687-7.617188-7.90625-9.859375-20.632813-15.75-34.039063-15.75-2.164062 0-4.359374.152344-6.519531.453125-2.601562.359375-5.128906.949219-7.574219 1.714844.066407-2.574219-.046874-5.164062-.40625-7.753906-2.175781-15.710938-12.039062-29.074219-25.746093-34.878906-2.539063-1.074219-5.464844-.671876-7.613281 1.054687zm43.398437 54.707031c8.277344-1.101562 17.023437.964844 23.46875 6.421875-4.46875 6.65625-12.085937 11.320313-20.84375 12.53125-8.261719 1.144531-17.03125-.964843-23.457031-6.398437 1.449218-2.140625 3.246094-4.117188 5.332031-5.835938 4.492187-3.707031 9.714844-5.949218 15.5-6.71875zm-24.898437-18.828125c.726562 5.246094.160156 10.488281-1.636719 15.257813-.089844.082031-.175781.171875-.265625.257812-2.238282 2.054688-4.292969 4.351563-6.039063 6.839844-5.835937-4.558594-9.882812-11.660156-11-19.730469-1.210937-8.765625 1.207031-17.367187 6.402344-23.476562 6.664063 4.46875 11.328125 12.085937 12.539063 20.851562zm0 0"/><path d="m3.90625 182.703125c-6.378906 13.445313-4.863281 29.988281 3.949219 43.167969 8.453125 12.636718 22.054687 20.183594 36.386719 20.183594.046874 0 .09375-.003907.140624-.003907 4.953126 2.058594 10.433594 3.148438 15.976563 3.148438 8.964844 0 17.769531-2.71875 25.457031-7.859375 13.179688-8.816406 20.894532-23.527344 20.132813-38.390625-.140625-2.757813-1.785157-5.210938-4.277344-6.394531-5.390625-2.554688-11.511719-3.90625-17.707031-3.90625-8.96875 0-17.769532 2.714843-25.460938 7.859374-2.179687 1.457032-4.195312 3.09375-6.0625 4.847657-1.0625-2.34375-2.300781-4.621094-3.753906-6.796875-8.410156-12.578125-23.085938-20.914063-38.386719-20.132813-2.757812.140625-5.210937 1.785157-6.394531 4.277344zm62.941406 30.273437c5.210938-3.488281 11.128906-5.328124 17.117188-5.328124 2.320312 0 4.613281.289062 6.792968.847656-1.113281 7.9375-5.929687 15.457031-13.277343 20.375-5.210938 3.484375-11.132813 5.328125-17.121094 5.328125-2.316406 0-4.601563-.285157-6.773437-.84375.367187-2.558594 1.121093-5.121094 2.246093-7.578125 2.410157-5.269532 6.191407-9.578125 11.015625-12.800782zm-51.015625-19.347656c7.941407 1.128906 15.523438 6 20.386719 13.269532 2.945312 4.402343 4.726562 9.363281 5.191406 14.441406-.042968.113281-.082031.226562-.125.34375-1.117187 2.824218-1.957031 5.78125-2.441406 8.78125-7.25-1.578125-14.039062-6.238282-18.519531-12.933594-4.917969-7.351562-6.496094-16.140625-4.492188-23.902344zm0 0"/><path d="m123.582031 289.363281c5.464844-14.882812 3.042969-31.316406-6.324219-42.886719-1.734374-2.140624-4.507812-3.160156-7.21875-2.648437-14.625 2.757813-27.105468 13.71875-32.570312 28.605469-.90625 2.464844-1.574219 4.972656-2.050781 7.488281-7.035157-3.992187-15.03125-6.175781-23.132813-6.175781-9.933594 0-19.449218 3.273437-26.785156 9.214844-2.144531 1.734374-3.160156 4.507812-2.652344 7.21875 2.761719 14.625 13.722656 27.105468 28.605469 32.570312 13.65625 5.015625 29.585937 3.5 41.4375-5.203125 13.804687-3.3125 25.460937-13.941406 30.691406-28.183594zm-32.03125-11.757812c3.050781-8.308594 9.226563-14.761719 16.6875-17.707031 3.777344 7.074218 4.3125 15.988281 1.265625 24.296874-3.050781 8.300782-9.222656 14.75-16.671875 17.699219-1.214843-2.289062-2.113281-4.804687-2.652343-7.457031-.011719-.070312-.035157-.136719-.054688-.207031-1.035156-5.332031-.597656-11.113281 1.425781-16.625zm-23.996093 33.035156c-12.050782 0-24.128907-7.265625-28.632813-18.652344 3.960937-2.109375 8.566406-3.238281 13.363281-3.238281 8.890625 0 17.746094 3.898438 23.628906 10.585938.03125.125.070313.246093.101563.371093.761719 2.933594 1.824219 5.820313 3.195313 8.523438-3.550782 1.574219-7.53125 2.410156-11.65625 2.410156zm0 0"/><path d="m114.335938 386.382812c2.941406 0 5.917968-.28125 8.839843-.835937 14.921875-2.835937 27.320313-12.621094 32.832031-25.722656 10.167969-9.933594 14.722657-25.0625 11.886719-39.984375-2.960937-15.578125-13.484375-28.429688-27.460937-33.539063-2.589844-.949219-5.492188-.398437-7.554688 1.433594-11.128906 9.882813-16.203125 25.699219-13.242187 41.277344.488281 2.574219 1.203125 5.066406 2.085937 7.464843-2.578125.0625-5.167968.324219-7.71875.808594-15.578125 2.960938-28.429687 13.484375-33.542968 27.460938-.945313 2.59375-.394532 5.492187 1.4375 7.554687 7.945312 8.949219 19.769531 14.082031 32.4375 14.082031zm25.25-83.933593c6.878906 4.125 11.917968 11.5 13.570312 20.191406 1.652344 8.6875-.328125 17.390625-5.207031 23.75-2.214844-1.335937-4.28125-3.035156-6.105469-5.035156-.046875-.050781-.101562-.097657-.152344-.148438-3.628906-4.042969-6.226562-9.226562-7.320312-14.996093-1.652344-8.691407.332031-17.398438 5.214844-23.761719zm-22.78125 49.574219c5.191406-.984376 10.488281-.679688 15.320312.867187.085938.085937.175781.167969.265625.253906.496094.492188 6.882813 6.050781 7.140625 5.6875-5.652344 8.023438-15.480469 12.550781-25.195312 12.550781-6.644532 0-12.886719-2.070312-17.726563-5.789062 4.125-6.875 11.5-11.917969 20.195313-13.570312zm0 0"/><path d="m382.523438 78.792969c-.953126 2.585937-.40625 5.492187 1.421874 7.558593 7.949219 8.984376 19.796876 14.140626 32.503907 14.140626 2.910156 0 5.851562-.273438 8.746093-.816407 14.925782-2.808593 27.347657-12.566406 32.882813-25.660156 10.191406-9.914063 14.773437-25.03125 11.964844-39.957031-2.929688-15.585938-13.425781-28.457032-27.394531-33.59375-2.589844-.953125-5.492188-.4101565-7.558594 1.417968-11.148438 9.859376-16.253906 25.667969-13.324219 41.25.484375 2.566407 1.195313 5.054688 2.074219 7.46875-2.574219.054688-5.167969.3125-7.722656.792969-15.582032 2.929688-28.457032 13.429688-33.59375 27.398438zm59.246093-62.183594c6.871094 4.140625 11.898438 11.523437 13.53125 20.21875 1.507813 8.011719-.074219 16.03125-4.160156 22.210937-2.550781-1.886718-5.320313-3.492187-8.261719-4.769531-3.203125-3.949219-5.394531-8.722656-6.371094-13.90625-1.632812-8.695312.367188-17.402343 5.261719-23.753906zm-16.90625 48.972656c6.332031.007813 12.722657 1.96875 17.773438 5.832031-4.144531 6.863282-11.523438 11.882813-20.210938 13.519532-8.203125 1.542968-17.082031-.117188-23.753906-5.265625 4.140625-6.867188 11.523437-11.894531 20.21875-13.53125 1.972656-.367188 3.972656-.554688 5.972656-.554688zm0 0"/><path d="m488.011719 84.046875c-2.152344-1.726563-5.078125-2.132813-7.621094-1.054687-13.703125 5.804687-23.566406 19.167968-25.742187 34.875-.359376 2.589843-.476563 5.183593-.40625 7.753906-2.449219-.765625-4.976563-1.355469-7.574219-1.714844-2.164063-.296875-4.355469-.449219-6.519531-.449219-13.410157 0-26.132813 5.886719-34.042969 15.75-1.722657 2.148438-2.128907 5.078125-1.054688 7.617188 5.808594 13.703125 19.171875 23.566406 34.878907 25.742187 2.160156.296875 4.355468.449219 6.519531.449219 12.75 0 24.875-5.332031 32.832031-14.335937 12.800781-6.164063 21.941406-19.035157 24.027344-34.074219 2.171875-15.703125-3.6875-31.246094-15.296875-40.558594zm-46.023438 73.660156c-8.761719-1.210937-16.378906-5.871093-20.847656-12.53125 5.039063-4.265625 11.84375-6.71875 19.003906-6.71875 9.84375 0 19.652344 4.503907 25.296875 12.851563-5.035156 4.261718-11.835937 6.710937-18.992187 6.710937-1.480469 0-2.980469-.105469-4.460938-.3125zm46.460938-35.15625c-1.121094 8.070313-5.164063 15.171875-11.003907 19.734375-.84375-1.207031-1.765624-2.351562-2.734374-3.460937-1.117188-1.277344-2.308594-2.5-3.566407-3.640625-1.800781-4.769532-2.363281-10.011719-1.636719-15.257813 1.210938-8.761719 5.875-16.378906 12.539063-20.847656 5.195313 6.109375 7.613281 14.707031 6.402344 23.472656zm0 0"/><path d="m504.140625 225.871094c8.816406-13.179688 10.332031-29.722656 3.953125-43.167969-1.59375-3.359375-4.957031-4.328125-8.398438-4.328125-14.328124 0-27.929687 7.546875-36.382812 20.183594-1.453125 2.175781-2.691406 4.457031-3.753906 6.800781-1.867188-1.757813-3.882813-3.390625-6.066406-4.851563-7.6875-5.140624-16.492188-7.859374-25.457032-7.859374-6.195312 0-12.316406 1.351562-17.710937 3.910156-2.492188 1.179687-4.132813 3.636718-4.273438 6.390625-.761719 14.863281 6.953125 29.574219 20.132813 38.390625 12.082031 8.082031 27.871094 10.347656 41.433594 4.710937.046874 0 .09375.003907.144531.003907 14.324219 0 27.925781-7.546876 36.378906-20.183594zm-52.5 8.320312c-6.046875-.011718-12.082031-1.953125-17.121094-5.320312-7.347656-4.917969-12.164062-12.4375-13.277343-20.378906 2.179687-.558594 4.472656-.84375 6.792968-.84375 5.984375 0 11.90625 1.839843 17.117188 5.328124 6.949218 4.648438 12.066406 12.035157 13.261718 20.378907-2.222656.570312-4.5.839843-6.773437.835937zm40.035156-16.660156c-4.480469 6.695312-11.269531 11.355469-18.519531 12.933594-.234375-1.453125-.566406-2.894532-.953125-4.320313-.445313-1.628906-.984375-3.238281-1.613281-4.804687.464844-5.078125 2.246094-10.039063 5.191406-14.441406 4.863281-7.269532 12.445312-12.140626 20.386719-13.269532 2.003906 7.761719.421875 16.550782-4.492188 23.902344zm0 0"/><path d="m444.445312 325.640625c5.460938 0 10.875-.972656 16.097657-2.890625 14.886719-5.464844 25.847656-17.945312 28.605469-32.570312.511718-2.710938-.507813-5.484376-2.652344-7.21875-7.335938-5.941407-16.847656-9.210938-26.785156-9.210938-5.460938 0-10.875.96875-16.097657 2.886719-2.457031.902343-4.796875 2.019531-7.035156 3.289062-.476563-2.519531-1.144531-5.027343-2.050781-7.492187-5.464844-14.886719-17.945313-25.847656-32.570313-28.605469-2.707031-.511719-5.480469.507813-7.21875 2.652344-9.363281 11.566406-11.789062 28-6.324219 42.882812 5.230469 14.242188 16.886719 24.871094 30.695313 28.183594 7.117187 5.230469 16.039063 8.09375 25.335937 8.09375zm4.339844-34.921875c3.558594-1.308594 7.238282-1.96875 10.929688-1.96875 4.792968 0 9.402344 1.128906 13.363281 3.238281-2.949219 7.457031-9.402344 13.632813-17.703125 16.683594-3.5625 1.304687-7.242188 1.96875-10.929688 1.96875-4.125 0-8.105468-.835937-11.65625-2.410156.671876-1.324219 1.257813-2.695313 1.785157-4.085938.59375-1.570312 1.105469-3.179687 1.511719-4.808593 3.367187-3.828126 7.726562-6.792969 12.699218-8.617188zm-46.289062-6.523438c-3.046875-8.308593-2.511719-17.222656 1.265625-24.296874 7.460937 2.945312 13.636719 9.398437 16.6875 17.703124 2.871093 7.820313 2.652343 16.871094-1.28125 24.292969-7.453125-2.953125-13.621094-9.402343-16.671875-17.699219zm0 0"/><path d="m379.121094 287.738281c-2.0625-1.832031-4.960938-2.382812-7.554688-1.4375-13.976562 5.109375-24.5 17.964844-27.460937 33.542969-2.835938 14.921875 1.71875 30.046875 11.886719 39.980469 5.511718 13.105469 17.910156 22.886719 32.832031 25.722656 14.917969 2.835937 31.066406-1.753906 41.277343-13.242187 1.832032-2.0625 2.382813-4.964844 1.4375-7.554688-5.113281-13.976562-17.964843-24.5-33.542968-27.460938-2.550782-.484374-5.140625-.746093-7.71875-.808593.882812-2.402344 1.597656-4.890625 2.085937-7.464844 2.960938-15.582031-2.113281-31.398437-13.242187-41.277344zm-20.277344 34.902344c1.652344-8.691406 6.691406-16.066406 13.570312-20.191406 4.882813 6.363281 6.867188 15.070312 5.214844 23.765625-1.550781 8.160156-6.414062 15.84375-13.582031 20.179687-4.875-6.363281-6.855469-15.066406-5.203125-23.753906zm21.03125 30.25c4.832031-1.546875 10.128906-1.851563 15.320312-.867187 8.691407 1.652343 16.066407 6.695312 20.195313 13.570312-4.84375 3.722656-11.082031 5.789062-17.730469 5.789062-9.726562 0-19.535156-4.507812-25.191406-12.550781.140625.203125 5-3.714843 5.355469-4.03125.703125-.617187 1.390625-1.25 2.050781-1.910156zm0 0"/></svg>