<svg height="512pt" viewBox="0 0 512 512" width="512pt" xmlns="http://www.w3.org/2000/svg"><path d="m384.617188 504.5c15.902343 0 27.929687-14.492188 24.890624-30.097656-14.03125-71.976563-77.425781-126.300782-153.507812-126.300782s-139.476562 54.324219-153.507812 126.300782c-3.039063 15.605468 8.988281 30.097656 24.890624 30.097656zm0 0" fill="#8eafe2"/><path d="m223.867188 351.441406c-61.261719 12.796875-109.375 61.410156-121.375 122.960938-3.039063 15.605468 8.988281 30.097656 24.890624 30.097656h118.921876c-46.574219-30.945312-45.222657-120.082031-22.4375-153.058594zm0 0" fill="#6a96d7"/><path d="m308.921875 504.5c0-34.394531-23.695313-62.277344-52.921875-62.277344s-52.921875 27.882813-52.921875 62.277344zm0 0" fill="#f7ef87"/><path d="m216.34375 463.28125c-8.25 10.984375-13.265625 25.40625-13.265625 41.21875h43.226563c-14.179688-9.421875-23.917969-24.230469-29.960938-41.21875zm0 0" fill="#efd176"/><path d="m109.15625 203.433594c-6.039062-27.75-33.429688-45.347656-61.175781-39.304688-27.75 6.039063-45.347657 33.429688-39.304688 61.175782 6.039063 27.75 33.429688 45.347656 61.175781 39.304687 27.75-6.039063 45.347657-33.429687 39.304688-61.175781zm0 0" fill="#ffd4be"/><path d="m467.691406 165.070312c-27.230468-8.070312-55.84375 7.464844-63.910156 34.691407-8.066406 27.226562 7.464844 55.839843 34.691406 63.910156 27.230469 8.066406 55.84375-7.464844 63.910156-34.695313 8.066407-27.226562-7.464843-55.839843-34.691406-63.90625zm0 0" fill="#ffbf9e"/><path d="m461.710938 214.371094c0 113.613281-108.621094 187.914062-205.710938 187.914062s-205.710938-74.300781-205.710938-187.914062c0-113.609375 92.101563-183.585938 205.710938-183.585938s205.710938 69.976563 205.710938 183.585938zm0 0" fill="#ffd4be"/><path d="m256 402.285156c27.78125 0 56.5-6.09375 83.355469-17.4375-223.769531-10.332031-243.097657-225.253906-174.382813-337.304687-67.945312 27.128906-114.683594 85.902343-114.683594 166.828125 0 113.613281 108.621094 187.914062 205.710938 187.914062zm0 0" fill="#ffbf9e"/><path d="m369.671875 103.800781c12.640625 55.222657 43.605469 84.980469 78.675781 101.339844 8.039063 3.753906 17.460938-1.496094 18.199219-10.335937 8.273437-99.535157-81.902344-187.304688-210.546875-187.304688s-218.820312 87.769531-210.546875 187.304688c.738281 8.839843 10.160156 14.089843 18.199219 10.335937 35.074218-16.359375 66.035156-46.117187 78.675781-101.339844zm0 0" fill="#4e5660"/><path d="m363.707031 31.011719c-24.261719 24.261719-48.527343 48.527343-72.789062 72.789062h78.753906c6.417969 28.03125 17.558594 49.492188 31.558594 65.976563 22.015625-6.148438 42.554687-14.59375 61.082031-25.15625-12.320312-47.890625-47.910156-89.1875-98.605469-113.609375zm0 0" fill="#383c43"/><path d="m256 7.5c105.304688 0 161.398438 35.8125 221.285156 82.1875 8 6.195312 7.976563 18.304688-.0625 24.453125-106.011718 81.042969-291.910156 54.496094-334.894531-10.335937zm0 0" fill="#4e5660"/><path d="m315.433594 127.214844c-22.785156 0-45.585938-2.894532-67.246094-8.605469-25.40625-6.695313-44.183594-15.878906-52.539062-21.710937-3.398438-2.371094-4.234376-7.042969-1.863282-10.441407 2.371094-3.398437 7.046875-4.230469 10.441406-1.863281 13.621094 9.5 68.828126 34.632812 141.382813 25.804688 4.121094-.496094 7.851563 2.425781 8.351563 6.539062.5 4.109375-2.429688 7.847656-6.542969 8.347656-10.574219 1.289063-21.277344 1.929688-31.984375 1.929688zm0 0" fill="#383c43"/><path d="m331.597656 88.886719c-11.808594 0-22.226562-1.164063-28.796875-2.78125-4.019531-.992188-6.476562-5.054688-5.484375-9.078125.992188-4.019532 5.054688-6.476563 9.078125-5.484375 13.335938 3.289062 43.382813 3.984375 65.109375-3.253907 3.925782-1.3125 8.175782.8125 9.484375 4.742188 1.308594 3.929688-.8125 8.179688-4.742187 9.488281-13.984375 4.660157-30.335938 6.367188-44.648438 6.367188zm0 0" fill="#383c43"/><path d="m180.375 257.5c0-19.449219-19.796875-35.214844-44.222656-35.214844-24.421875 0-44.21875 15.765625-44.21875 35.214844s19.796875 35.214844 44.21875 35.214844c24.425781 0 44.222656-15.765625 44.222656-35.214844zm0 0" fill="#eda1ab"/><path d="m420.066406 257.5c0-19.449219-19.796875-35.214844-44.21875-35.214844-24.425781 0-44.222656 15.765625-44.222656 35.214844s19.796875 35.214844 44.222656 35.214844c24.421875 0 44.21875-15.765625 44.21875-35.214844zm0 0" fill="#eda1ab"/><path d="m472.847656 158.855469c-1.40625-9.421875-3.675781-18.730469-6.796875-27.878907 5.464844-3.4375 10.726563-7.054687 15.726563-10.878906 5.691406-4.351562 8.96875-10.957031 8.992187-18.128906.019531-7.179688-3.21875-13.816406-8.890625-18.210938-7.175781-5.554687-13.492187-10.332031-19.316406-14.609374-3.339844-2.453126-8.035156-1.734376-10.484375 1.605468-2.453125 3.335938-1.734375 8.03125 1.605469 10.484375 5.71875 4.199219 11.9375 8.902344 19.007812 14.378907 1.964844 1.519531 3.085938 3.820312 3.078125 6.304687-.007812 2.476563-1.140625 4.757813-3.101562 6.257813-6.28125 4.800781-12.816407 9.175781-19.546875 13.175781-.085938.050781-.175782.097656-.257813.152343-20.035156 11.859376-41.835937 20.308594-64.085937 25.964844-.214844.042969-.425782.09375-.636719.15625-26.089844 6.566406-52.78125 9.332032-77.933594 9.332032-19.273437 0-37.652343-1.621094-54.152343-4.394532-51.011719-8.5625-91.1875-28.34375-107.472657-52.910156-.042969-.0625-.09375-.117188-.136719-.179688-.082031-.117187-.164062-.234374-.253906-.34375-.070312-.09375-.144531-.175781-.222656-.261718-.082031-.097656-.167969-.195313-.257812-.289063-.085938-.085937-.175782-.167969-.261719-.25-.089844-.085937-.179688-.167969-.273438-.246093-.09375-.082032-.191406-.15625-.285156-.230469-.097656-.074219-.195313-.148438-.296875-.214844-.101562-.070313-.203125-.136719-.304688-.199219-.105468-.0625-.210937-.128906-.316406-.1875-.109375-.0625-.214844-.113281-.324218-.167968-.109376-.054688-.21875-.109376-.332032-.15625-.117187-.050782-.238281-.097657-.355468-.140626-.109376-.042968-.21875-.082031-.328126-.117187-.132812-.042969-.269531-.078125-.402343-.113281-.078125-.023438-.148438-.046875-.226563-.066406-.03125-.007813-.058594-.007813-.089844-.015626-.136718-.027343-.273437-.050781-.410156-.070312-.109375-.019531-.222656-.039062-.332031-.050781-.121094-.015625-.242187-.019531-.363281-.027344-.125-.007813-.253906-.019531-.378906-.023437-.105469 0-.207032.007812-.3125.007812-.140626.003906-.277344.007812-.417969.019531-.101563.007813-.203125.023438-.304688.035157-.136719.019531-.277343.035156-.414062.058593-.109375.019531-.214844.050781-.324219.074219-.128906.027344-.257812.054688-.382812.089844-.109376.03125-.21875.074218-.328126.109375-.121093.042969-.242187.078125-.363281.125-.101562.042969-.203125.089843-.304687.136719-.125.054687-.25.109374-.371094.171874-.089844.046876-.175781.097657-.265625.148438-.128906.074219-.257813.148438-.382813.230469-.023437.015625-.050781.027343-.074218.042969-.0625.039062-.117188.089843-.175782.132812-.121093.082031-.238281.167969-.351562.257812-.089844.070313-.171875.144532-.253906.214844-.101563.089844-.199219.175782-.292969.269532-.085937.082031-.167969.167968-.25.253906-.085937.089844-.167969.183594-.25.277344-.078125.09375-.152344.1875-.222656.28125-.078125.101562-.152344.199218-.222657.304687-.066406.097656-.132812.195313-.195312.296875-.066406.105469-.128906.214844-.191406.324219-.058594.101562-.113282.210937-.164063.316406-.054687.109375-.109375.222656-.160156.335937-.050781.117188-.09375.234376-.136719.351563-.042968.109375-.082031.21875-.121094.332031-.039062.132813-.074218.265625-.109374.394532-.019532.078124-.046876.152343-.066407.234374-10.597656 46.289063-34.976562 77.761719-74.535156 96.214844-1.644531.769532-3.480469.6875-5.039063-.214844-.859374-.496093-2.328124-1.671874-2.515624-3.949218-3.433594-41.289063 11.046874-81.816406 40.773437-114.121094 38.054687-41.347656 97.207031-65.0625 162.296875-65.0625 66.644531 0 117.085938 13.859375 168.664062 46.339844 1.242188.78125 2.625 1.152344 3.988282 1.152344 2.492187 0 4.929687-1.238282 6.355468-3.503907 2.207032-3.503906 1.152344-8.132812-2.351562-10.339843-54.144531-34.101563-106.976562-48.648438-176.65625-48.648438-69.273438 0-132.449219 25.480469-173.335938 69.902344-23.777343 25.839844-38.644531 56.550781-43.484374 88.945312-23.308594 8.257813-39.179688 30.40625-39.179688 55.523438 0 30.203125 23.1875 55.417968 52.691406 58.5625 11.066406 31.660156 31.183594 60.351562 59.238282 83.757812 11.179687 9.328125 23.285156 17.546875 36.023437 24.570313-27.269531 23.902343-45.871094 56.058593-52.820313 91.703125-2.648437 13.59375 3.621094 27.464844 15.597657 34.515625 1.195312.703125 2.507812 1.039062 3.800781 1.039062 2.566406 0 5.070312-1.320312 6.46875-3.695312 2.101562-3.570313.910156-8.167969-2.65625-10.269531-6.511719-3.832032-9.921875-11.355469-8.488281-18.71875 6.699219-34.355469 25.328125-65.148438 52.640625-87.207032 29.566406 13.707032 61.804687 21.15625 93.503906 21.15625s63.9375-7.449218 93.503906-21.15625c27.3125 22.058594 45.941406 52.851563 52.640625 87.207032 1.011719 5.203124-.34375 10.542968-3.730469 14.652343-3.410156 4.136719-8.4375 6.511719-13.796874 6.511719h-235.398438c-4.144531 0-7.5 3.359375-7.5 7.5s3.355469 7.5 7.5 7.5h235.398438c9.855468 0 19.105468-4.363281 25.375-11.976562 6.242187-7.578126 8.75-17.4375 6.875-27.058594-6.949219-35.644532-25.550782-67.800782-52.820313-91.703125 12.738281-7.023438 24.84375-15.242188 36.023437-24.570313 28.054688-23.40625 48.171876-52.097656 59.238282-83.757812 29.503906-3.144532 52.691406-28.359375 52.691406-58.5625 0-25.105469-15.859375-47.246094-39.152344-55.515625zm-457.847656 55.515625c0-16.230469 8.890625-30.796875 22.566406-38.398438-.253906 6.449219-.128906 12.941406.414063 19.453125.359375 4.34375 2.132812 8.386719 4.949219 11.582031-.082032 2.449219-.140626 4.910157-.140626 7.363282 0 14.511718 1.75 28.730468 5.136719 42.492187-18.878906-4.925781-32.925781-22.195312-32.925781-42.492187zm375.460938 130.804687c-12.972657 10.820313-27.265626 20.054688-42.371094 27.523438-.613282.199219-1.199219.484375-1.746094.839843-28.445312 13.746094-59.671875 21.246094-90.34375 21.246094s-61.902344-7.5-90.34375-21.246094c-.550781-.355468-1.132812-.640624-1.746094-.839843-15.105468-7.464844-29.398437-16.703125-42.371094-27.523438-41.109374-34.292969-63.75-80.746093-63.75-130.804687 0-.171875.003907-.347656.007813-.523438.121094.003906.242187.011719.367187.011719 2.949219 0 5.910157-.636719 8.660157-1.917969 39.179687-18.277344 65.691406-49.238281 78.96875-92.140625 21.902343 22.316407 60.78125 39.667969 107.773437 47.558594 18.648438 3.132813 37.753906 4.695313 56.839844 4.695313 20.488281 0 40.953125-1.800782 60.773438-5.402344 5.3125-.96875 10.558593-2.0625 15.730468-3.285156 14.382813 20.90625 33.957032 37.234374 58.265625 48.574218 2.753907 1.28125 5.710938 1.917969 8.660157 1.917969.125 0 .246093-.007813.367187-.011719.003906.175782.007813.351563.007813.523438 0 50.054687-22.640626 96.507812-63.75 130.804687zm68.609374-150.992187c-.1875 2.273437-1.65625 3.449218-2.515624 3.949218-1.558594.902344-3.394532.980469-5.039063.210938-20.097656-9.375-36.558594-22.507812-49.074219-39.09375 18.011719-5.308594 34.917969-12.21875 50.371094-20.546875 2.742188 8.617187 4.648438 17.386719 5.722656 26.261719.015625.339844.0625.675781.125 1.007812 1.058594 9.304688 1.199219 18.722656.410156 28.210938zm5.003907 62.679687c3.386719-13.761719 5.136719-27.980469 5.136719-42.492187 0-2.457032-.058594-4.914063-.140626-7.363282 2.816407-3.195312 4.585938-7.238281 4.949219-11.582031.542969-6.515625.671875-13 .425781-19.445312 13.671876 7.605469 22.554688 22.164062 22.554688 38.390625 0 20.296875-14.046875 37.566406-32.925781 42.492187zm-302.148438-57.609375c-4.140625 0-7.5 3.355469-7.5 7.5v15.613282c0 4.144531 3.359375 7.5 7.5 7.5s7.5-3.355469 7.5-7.5v-15.613282c0-4.144531-3.359375-7.5-7.5-7.5zm123.804688 18.152344c-3.125-2.71875-7.863281-2.394531-10.582031.726562-4.832032 5.546876-11.8125 8.726563-19.148438 8.726563s-14.316406-3.179687-19.148438-8.726563c-2.722656-3.121093-7.457031-3.445312-10.582031-.726562-3.121093 2.722656-3.449219 7.460938-.726562 10.582031 7.683593 8.816407 18.785156 13.871094 30.457031 13.871094s22.773438-5.054687 30.457031-13.871094c2.722657-3.121093 2.394531-7.859375-.726562-10.582031zm64.34375-18.152344c-4.140625 0-7.5 3.355469-7.5 7.5v15.613282c0 4.144531 3.359375 7.5 7.5 7.5s7.5-3.355469 7.5-7.5v-15.613282c0-4.144531-3.359375-7.5-7.5-7.5zm0 0"/></svg>