<?xml version="1.0" encoding="utf-8"?>
<!-- Generator: Adobe Illustrator 18.0.0, SVG Export Plug-In . SVG Version: 6.00 Build 0)  -->
<!DOCTYPE svg PUBLIC "-//W3C//DTD SVG 1.1//EN" "http://www.w3.org/Graphics/SVG/1.1/DTD/svg11.dtd">
<svg version="1.1" id="Warstwa_1" xmlns="http://www.w3.org/2000/svg" xmlns:xlink="http://www.w3.org/1999/xlink" x="0px" y="0px"
	 viewBox="0 0 512 512" enable-background="new 0 0 512 512" xml:space="preserve">
<g id="Solid">
	<path fill="#a9b852" d="M172.1,489.4l21.4,21.4v-80.2h-56v80.2l21.4-21.4C162.5,485.8,168.4,485.8,172.1,489.4
		C172.1,489.4,172.1,489.4,172.1,489.4L172.1,489.4z"/>
	<path fill="#a9b852" d="M212.2,468h224.1v18.7H212.2V468z"/>
	<path fill="#a9b852" d="M212.2,430.7h224.1v18.7H212.2V430.7z"/>
	<path fill="#a9b852" d="M118.8,486.7V468H72.1c8.8,11.7,22.7,18.7,37.3,18.7H118.8z"/>
	<path fill="#a9b852" d="M118.8,449.3v-18.7H63.7c-1.3,6.2-1.3,12.5,0,18.7H118.8z"/>
	<path fill="#a9b852" d="M436.3,412v-18.7H109.5c-14.7,0-28.5,6.9-37.3,18.7H436.3z"/>
	<path fill="#a9b852" d="M184.2,94.5h186.7v37.3H184.2V94.5z"/>
	<path fill="#a9b852" d="M436.3,374.7V1.2H109.5c-25.8,0-46.7,20.9-46.7,46.7v346.5c12.3-12.6,29.1-19.7,46.7-19.7H436.3z
		 M165.5,85.2c0-5.2,4.2-9.3,9.3-9.3h205.4c5.2,0,9.3,4.2,9.3,9.3v56c0,5.2-4.2,9.3-9.3,9.3H174.8c-5.2,0-9.3-4.2-9.3-9.3V85.2z
		 M100.1,19.8h18.7V356h-18.7V19.8z"/>
</g>
</svg>
