<svg id="Capa_1" enable-background="new 0 0 509.984 509.984" height="512" viewBox="0 0 509.984 509.984" width="512" xmlns="http://www.w3.org/2000/svg">
    <path fill="#CFBBA2" d="m356.381 117.56c-8.29 0-15-6.72-15-15v-102.56h-213.66c-5.53 0-10 4.47-10 10v361.52l20.14-20.14c5.81-5.84 15.34-5.9 21.21 0l13.96 13.95 27.42-27.42c-15.68-20.18-25.02-45.52-25.02-73 0-67.32 56.06-121.78 123.94-119.15 61.88 2.39 112.02 52.54 114.43 114.41 2.64 67.89-51.82 123.97-119.14 123.97-27.48 0-52.82-9.34-73-25.02l-27.42 27.42 13.95 13.95c5.86 5.86 5.86 15.36 0 21.22l-50.04 50.04h292.26c5.52 0 10-4.48 10-10v-344.19zm-108.59-43.31h-74.76c-8.29 0-15-6.72-15-15s6.71-15 15-15h74.76c8.28 0 15 6.72 15 15s-6.72 15-15 15z"/>
    <path fill="#CFBBA1" d="m371.379 20.896 67.489 66.661h-67.489z"/>
    <path fill="#CFBBA1" d="m55.348 476.316 93.12-93.12c3.75 3.761 26.011 26.016 27.9 27.9-11.082 11.082-82.171 82.171-93.12 93.12-7.69 7.69-20.21 7.69-27.9 0-7.7-7.69-7.7-20.21 0-27.9z"/>
    <path fill="#CFBBA1" d="m294.661 175.67c-49.2 0-89.23 40.03-89.23 89.24 0 49.16 39.97 89.23 89.23 89.23 49.2 0 89.23-40.03 89.23-89.23 0-49.21-40.03-89.24-89.23-89.24zm35.51 103.54c5.86 5.85 5.86 15.35 0 21.21-5.88 5.88-15.39 5.82-21.21 0l-14.3-14.3-14.3 14.3c-5.88 5.88-15.39 5.82-21.21 0-5.86-5.86-5.86-15.36 0-21.21l14.3-14.3-14.3-14.3c-5.86-5.86-5.86-15.36 0-21.21 5.86-5.86 15.35-5.86 21.21 0l14.3 14.3c5.45-5.45 5.26-5.27 14.3-14.3 5.86-5.86 15.35-5.86 21.21 0 5.86 5.85 5.86 15.35 0 21.21l-14.3 14.3z"/></svg>
