<?xml version="1.0" encoding="utf-8"?>
<!-- Generator: Adobe Illustrator 18.0.0, SVG Export Plug-In . SVG Version: 6.00 Build 0)  -->
<!DOCTYPE svg PUBLIC "-//W3C//DTD SVG 1.1//EN" "http://www.w3.org/Graphics/SVG/1.1/DTD/svg11.dtd">
<svg version="1.1" id="Capa_1" xmlns="http://www.w3.org/2000/svg" xmlns:xlink="http://www.w3.org/1999/xlink" x="0px" y="0px"
	 viewBox="0 0 612 792" enable-background="new 0 0 612 792" xml:space="preserve">
<g>
	<path fill="#a9b852" d="M592.3,160.6H376.6v70.2H448v47.8h-71.3v46.7h70.6v47.1h-70.6v47.1h70.6v47.1h-70.6v47.1h70.6v47.1h-70.6
		v70.6h215.7c10.9,0,19.7-9.2,19.7-20.5V181.1C612,169.8,603.1,160.6,592.3,160.6z M564.9,560.8h-94.2v-47.1h94.2V560.8z
		 M564.9,466.6h-94.2v-47.1h94.2V466.6z M564.9,372.5h-94.2v-47.1h94.2V372.5z M564.9,278.3h-94.2v-47.1h94.2V278.3z"/>
	<path fill="#a9b852" d="M0,158v476l353.1,68V90L0,158z M223.3,515.6l-41.1-77.7c-1.6-2.9-3.2-8.2-4.8-16h-0.6
		c-0.8,3.6-2.6,9.2-5.5,16.6l-41.2,77h-64l76-119.2L72.5,277.2h65.3l34.1,71.5c2.7,5.6,5,12.4,7.2,20.1h0.7
		c1.3-4.7,3.8-11.6,7.5-20.8l37.9-70.8H285l-71.5,118.2L287,515.6L223.3,515.6L223.3,515.6z"/>
</g>
</svg>
