<?xml version="1.0" encoding="utf-8"?>
<!-- Generator: Adobe Illustrator 18.0.0, SVG Export Plug-In . SVG Version: 6.00 Build 0)  -->
<!DOCTYPE svg PUBLIC "-//W3C//DTD SVG 1.1//EN" "http://www.w3.org/Graphics/SVG/1.1/DTD/svg11.dtd">
<svg version="1.1" id="Capa_1" xmlns="http://www.w3.org/2000/svg" xmlns:xlink="http://www.w3.org/1999/xlink" x="0px" y="0px"
	 viewBox="0 0 512 512" enable-background="new 0 0 512 512" xml:space="preserve">
<path fill="#FFFFFF" d="M356.3,0v89.7H155.7V0H46.4v512h419.1V0H356.3z M194.8,324.3v-30h183.8v30H194.8z M362.6,383.9l-63.9,63.9
	l-42.6-42.6l21.2-21.2l21.4,21.4l42.7-42.7L362.6,383.9z M194.8,260.3v-30h183.8v30H194.8z M164.8,260.3h-31.5v-30h31.5L164.8,260.3
	z M164.8,294.3v30h-31.5v-30H164.8z M213.3,390.3v30h-80v-30H213.3z M378.7,166.3v30H194.8v-30H378.7z M164.8,166.3v30h-31.5v-30
	H164.8z"/>
<path fill="#FFFFFF" d="M185.7,0h140.7v59.7H185.7V0z"/>
</svg>
