<?xml version="1.0" encoding="utf-8"?>
<!-- Generator: Adobe Illustrator 23.0.6, SVG Export Plug-In . SVG Version: 6.00 Build 0)  -->
<svg version="1.1" id="Warstwa_1" xmlns="http://www.w3.org/2000/svg" xmlns:xlink="http://www.w3.org/1999/xlink" x="0px" y="0px"
	 viewBox="0 0 262.68 56.18" style="enable-background:new 0 0 262.68 56.18;" xml:space="preserve">
<g>
	<path d="M60.52,36.92c0,2.55-1.28,3.83-3.83,3.83H50.3c-2.55,0-3.83-1.28-3.83-3.83V10.1h-5.11v26.82c0,5.96,2.98,8.94,8.94,8.94
		h6.39c5.96,0,8.94-2.98,8.94-8.94V10.1h-5.11V36.92z"/>
	<polygon points="91.17,35.64 75.85,10.1 70.74,10.1 70.74,45.86 75.85,45.86 75.85,20.32 91.17,45.86 96.28,45.86 96.28,10.1 
		91.17,10.1 	"/>
	<path d="M101.72,19.09v17.99c0,6,3,8.99,8.99,8.99h11.56v-5.14h-11.56c-2.57,0-3.85-1.28-3.85-3.85V19.09
		c0-2.57,1.29-3.85,3.85-3.85h11.56V10.1h-11.56C104.72,10.1,101.72,13.1,101.72,19.09z"/>
	<path d="M15.76,19.09v8.47h0.06v18.29h5.11V30.53h15.33v-5.11H20.93v-5.29H20.9v-1.05c0-2.57,1.29-3.85,3.85-3.85h11.56V10.1H24.75
		C18.76,10.1,15.76,13.1,15.76,19.09z"/>
	<path d="M141.56,10.1h-14.13v5.14l5.74,10.26l-5.74-0.01v20.59h5.14V30.66h3.49l8.63,15.42h5.86l-8.5-15.19l2.49-0.34
		c4.01-0.53,6.01-3.5,6.01-8.89v-2.57C150.55,13.1,147.55,10.1,141.56,10.1z M145.41,21.66c0,2.57-1.29,3.85-3.85,3.85l-2.52-0.01
		l-5.75-10.27h8.27c2.57,0,3.85,1.28,3.85,3.85V21.66z"/>
	<path d="M171.11,10.1h-6.42c-6,0-8.99,3-8.99,8.99v2.6v4.06v1.67c0,6,3,8.99,8.99,8.99h6.42c6,0,8.99-3,8.99-8.99v-1.67v-4.06v-2.6
		C180.11,13.1,177.11,10.1,171.11,10.1z M174.97,21.69v4.06v1.67c0,2.57-1.28,3.85-3.85,3.85h-6.42c-2.57,0-3.85-1.29-3.85-3.85
		v-1.67v-4.06v-2.6c0-2.57,1.28-3.85,3.85-3.85h6.42c2.57,0,3.85,1.28,3.85,3.85V21.69z"/>
	<polygon points="210.94,38.37 204.52,10.1 199.38,10.1 192.96,38.37 187.82,10.1 182.68,10.1 189.61,46.08 196.3,46.08 
		201.95,18.3 207.6,46.08 214.29,46.08 221.22,10.1 216.08,10.1 	"/>
	<path d="M237.93,10.1h-14.13v35.98h14.13c6,0,8.99-3,8.99-8.99V19.09C246.92,13.1,243.93,10.1,237.93,10.1z M241.78,37.08
		c0,2.57-1.28,3.85-3.85,3.85h-8.99v-25.7h8.99c2.57,0,3.85,1.28,3.85,3.85V37.08z"/>
	<rect x="155.69" y="40.94" width="24.41" height="5.14"/>
</g>
</svg>
