<?xml version="1.0" encoding="utf-8"?>
<!-- Generator: Adobe Illustrator 18.0.0, SVG Export Plug-In . SVG Version: 6.00 Build 0)  -->
<!DOCTYPE svg PUBLIC "-//W3C//DTD SVG 1.1//EN" "http://www.w3.org/Graphics/SVG/1.1/DTD/svg11.dtd">
<svg version="1.1" id="Warstwa_1" xmlns="http://www.w3.org/2000/svg" xmlns:xlink="http://www.w3.org/1999/xlink" x="0px" y="0px"
	 viewBox="0 0 595.3 144.2" enable-background="new 0 0 595.3 144.2" xml:space="preserve">
<title>fun_crowd</title>
<path fill="#33444D" d="M36.1,115.7v-11.9h32.7c5.9,0,8.9-3,8.9-8.9v-6c0-5.9-3-8.9-8.9-8.9H56.9C43,80,36.1,73.1,36.1,59.2v-6
	c0-13.9,6.9-20.8,20.8-20.8h32.7v11.9H56.9c-5.9,0-8.9,3-8.9,8.9v6c0,5.9,3,8.9,8.9,8.9h11.9c13.9,0,20.8,6.9,20.8,20.8v6
	c0,13.9-6.9,20.8-20.8,20.8L36.1,115.7z"/>
<path fill="#33444D" d="M113.3,80v35.7h-11.9V32.5h32.7c13.9,0,20.8,6.9,20.8,20.8v6c0,13.9-6.9,20.8-20.8,20.8L113.3,80z
	 M113.3,44.4v23.8h20.8c5.9,0,8.9-3,8.9-8.9v-6c0-5.9-3-8.9-8.9-8.9H113.3z"/>
<path fill="#33444D" d="M214.1,115.7h-11.9l-5.5-17.8h-30.6l-5.5,17.8h-11.9l22.8-76.1c1.3-4.2,5.2-7.1,9.6-7.1h0.5
	c4.4,0,8.3,2.9,9.6,7.1L214.1,115.7z M169.7,86H193l-10.6-37.9c-0.1-0.6-0.7-0.9-1.3-0.8c-0.4,0.1-0.7,0.4-0.8,0.8L169.7,86z"/>
<path fill="#33444D" d="M454.7,115.7h-11.9l-5.5-17.8h-30.6l-5.5,17.8h-11.9l22.8-76.1c1.3-4.2,5.2-7.1,9.6-7.1h0.5
	c4.4,0,8.2,2.9,9.5,7.1L454.7,115.7z M410.4,86h23.3l-10.6-37.9c-0.1-0.6-0.7-0.9-1.3-0.8c-0.4,0.1-0.7,0.4-0.8,0.8L410.4,86z"/>
<path fill="#33444D" d="M229.6,94.9c0,5.9,3,8.9,8.9,8.9h26.7v11.9h-26.7c-13.9,0-20.8-6.9-20.8-20.8V53.3
	c0-13.9,6.9-20.8,20.8-20.8h26.7v11.9h-26.7c-5.9,0-8.9,3-8.9,8.9V94.9z"/>
<path fill="#33444D" d="M317.8,68.1V80H289v23.8h35.7v11.9h-47.6V32.5h47.6v11.9H289v23.8L317.8,68.1z"/>
<path fill="#33444D" d="M348.7,94.9c0,5.9,3,8.9,8.9,8.9h26.7v11.9h-26.9c-13.9,0-20.8-6.9-20.8-20.8V53.3
	c0-13.9,6.9-20.8,20.8-20.8h26.7v11.9h-26.7c-6,0-8.9,3-8.9,8.9L348.7,94.9z"/>
<path fill="#33444D" d="M523.6,94.9c0,5.9,3,8.9,8.9,8.9h26.7v11.9h-26.7c-13.9,0-20.8-6.9-20.8-20.8V53.3
	c0-13.9,6.9-20.8,20.8-20.8h26.7v11.9h-26.7c-6,0-8.9,3-8.9,8.9V94.9z"/>
<path fill="#33444D" d="M470.9,94.9V32.4h-11.9v62.5c0,13.9,6.9,20.8,20.8,20.8h24.4v-11.9h-24.4
	C473.9,103.8,470.9,100.8,470.9,94.9z"/>
</svg>
