<?xml version="1.0" encoding="utf-8"?>
<!-- Generator: Adobe Illustrator 19.0.0, SVG Export Plug-In . SVG Version: 6.00 Build 0)  -->
<svg version="1.1" id="Capa_1" xmlns="http://www.w3.org/2000/svg" xmlns:xlink="http://www.w3.org/1999/xlink" x="0px" y="0px"
	 viewBox="-41 164.9 512 512" style="enable-background:new -41 164.9 512 512;" xml:space="preserve">
<style type="text/css">
	.st0{fill:#656691;}
	.st1{fill:#575988;}
	.st2{fill:#FFE471;}
	.st3{fill:#F2CA20;}
	.st4{fill:#5DABC6;}
	.st5{fill:#E3FAFF;}
	.st6{fill:#487F93;}
	.st7{fill:#CCEAF2;}
</style>
<path class="st0" d="M73,676.9c-2.9,0-5.8-0.8-8.4-2.6c-6.9-4.7-8.8-14.1-4.1-21l40.8-60.7c4.7-6.9,14.1-8.8,21-4.1
	c6.9,4.7,8.8,14.1,4.1,21l-40.8,60.7C82.7,674.5,77.9,676.9,73,676.9z"/>
<path class="st1" d="M358.9,676.9c-4.9,0-9.7-2.4-12.6-6.7l-40.8-60.7c-4.7-6.9-2.8-16.4,4.1-21c6.9-4.7,16.4-2.8,21,4.1l40.8,60.7
	c4.7,6.9,2.8,16.4-4.1,21C364.7,676.1,361.8,676.9,358.9,676.9z"/>
<path class="st2" d="M73.9,370c-56.6,0-102.6-46-102.6-102.6s46-102.6,102.6-102.6c56.6,0,102.6,46,102.6,102.6S130.4,370,73.9,370z
	"/>
<path class="st3" d="M356.1,370c-56.6,0-102.6-46-102.6-102.6s46-102.6,102.6-102.6s102.6,46,102.6,102.6S412.7,370,356.1,370z"/>
<path class="st4" d="M367.6,270.7c-40.7-40.7-94.9-63.2-152.6-63.2S103.2,230,62.4,270.7C21.7,311.5-0.7,365.6-0.7,423.3
	c0,57.6,22.4,111.8,63.2,152.6C103.2,616.6,157.4,639,215,639s111.8-22.4,152.6-63.2c40.7-40.7,63.2-94.9,63.2-152.6
	C430.7,365.6,408.3,311.5,367.6,270.7z"/>
<path class="st5" d="M215,583.8c-88.5,0-160.6-72-160.6-160.6s72-160.6,160.6-160.6s160.6,72,160.6,160.6S303.5,583.8,215,583.8z"/>
<path class="st0" d="M248,471.5c-3.9,0-7.8-1.5-10.7-4.4l-33-33c-2.8-2.8-4.4-6.7-4.4-10.7v-68.4c0-8.4,6.8-15.1,15.1-15.1
	s15.1,6.8,15.1,15.1V417l28.6,28.6c5.9,5.9,5.9,15.5,0,21.4C255.8,470,251.9,471.5,248,471.5z"/>
<path class="st6" d="M215,207.5V639c57.6,0,111.8-22.4,152.6-63.2c40.7-40.7,63.2-94.9,63.2-152.6c0-57.6-22.4-111.8-63.2-152.6
	S272.6,207.5,215,207.5z"/>
<path class="st7" d="M215,262.7v321.1c88.5,0,160.6-72,160.6-160.6S303.5,262.7,215,262.7z"/>
<path class="st1" d="M230.1,417v-62.1c0-8.4-6.8-15.1-15.1-15.1v105l22.3,22.3c3,3,6.8,4.4,10.7,4.4c3.9,0,7.8-1.5,10.7-4.4
	c5.9-5.9,5.9-15.5,0-21.4L230.1,417z"/>
</svg>
