<?xml version="1.0" encoding="utf-8"?>
<!-- Generator: Adobe Illustrator 19.0.0, SVG Export Plug-In . SVG Version: 6.00 Build 0)  -->
<svg version="1.1" id="Layer_1" xmlns="http://www.w3.org/2000/svg" xmlns:xlink="http://www.w3.org/1999/xlink" x="0px" y="0px"
	 viewBox="-41 164.9 512 512" style="enable-background:new -41 164.9 512 512;" xml:space="preserve">
<style type="text/css">
	.st0{fill:#5DABC6;}
	.st1{fill:#487F93;}
	.st2{fill:#EF9050;}
	.st3{fill:#C66F34;}
	.st4{fill:#FFFFFF;}
	.st5{fill:#CCEAF2;}
	.st6{fill:#F9E4D7;}
</style>
<path class="st0" d="M176,398.6H-24.3c-9.2,0-16.7-7.5-16.7-16.7V181.6c0-9.2,7.5-16.7,16.7-16.7H176c9.2,0,16.7,7.5,16.7,16.7
	v200.3C192.7,391.2,185.3,398.6,176,398.6z"/>
<path class="st1" d="M176,164.9H75.9v233.7H176c9.2,0,16.7-7.5,16.7-16.7V181.6C192.7,172.4,185.3,164.9,176,164.9z"/>
<path class="st0" d="M454.3,398.6H254c-9.2,0-16.7-7.5-16.7-16.7V181.6c0-9.2,7.5-16.7,16.7-16.7h200.3c9.2,0,16.7,7.5,16.7,16.7
	v200.3C471,391.2,463.5,398.6,454.3,398.6z"/>
<path class="st1" d="M454.3,164.9H354.1v233.7h100.2c9.2,0,16.7-7.5,16.7-16.7V181.6C471,172.4,463.5,164.9,454.3,164.9z"/>
<path class="st0" d="M176,676.9H-24.3c-9.2,0-16.7-7.5-16.7-16.7V459.8c0-9.2,7.5-16.7,16.7-16.7H176c9.2,0,16.7,7.5,16.7,16.7
	v200.3C192.7,669.4,185.3,676.9,176,676.9z"/>
<path class="st1" d="M176,443.2H75.9v233.7H176c9.2,0,16.7-7.5,16.7-16.7V459.8C192.7,450.6,185.3,443.2,176,443.2z"/>
<path class="st2" d="M454.3,676.9H254c-9.2,0-16.7-7.5-16.7-16.7V459.8c0-9.2,7.5-16.7,16.7-16.7h200.3c9.2,0,16.7,7.5,16.7,16.7
	v200.3C471,669.4,463.5,676.9,454.3,676.9z"/>
<path class="st3" d="M454.3,443.2H354.1v233.7h100.2c9.2,0,16.7-7.5,16.7-16.7V459.8C471,450.6,463.5,443.2,454.3,443.2z"/>
<path class="st4" d="M109.3,265.1H92.6v-16.7c0-9.2-7.5-16.7-16.7-16.7s-16.7,7.5-16.7,16.7v16.7H42.5c-9.2,0-16.7,7.5-16.7,16.7
	s7.5,16.7,16.7,16.7h16.7v16.7c0,9.2,7.5,16.7,16.7,16.7s16.7-7.5,16.7-16.7v-16.7h16.7c9.2,0,16.7-7.5,16.7-16.7
	C126,272.5,118.5,265.1,109.3,265.1z"/>
<path class="st5" d="M92.6,315.2v-16.7h16.7c9.2,0,16.7-7.5,16.7-16.7s-7.5-16.7-16.7-16.7H92.6v-16.7c0-9.2-7.5-16.7-16.7-16.7
	v100.2C85.1,331.8,92.6,324.4,92.6,315.2z"/>
<path class="st4" d="M387.5,298.5h-66.8c-9.2,0-16.7-7.5-16.7-16.7s7.5-16.7,16.7-16.7h66.8c9.2,0,16.7,7.5,16.7,16.7
	S396.7,298.5,387.5,298.5z"/>
<path class="st5" d="M387.5,265.1h-33.4v33.4h33.4c9.2,0,16.7-7.5,16.7-16.7S396.7,265.1,387.5,265.1z"/>
<path class="st4" d="M387.5,543.3h-66.8c-9.2,0-16.7-7.5-16.7-16.7s7.5-16.7,16.7-16.7h66.8c9.2,0,16.7,7.5,16.7,16.7
	C404.2,535.9,396.7,543.3,387.5,543.3z"/>
<path class="st6" d="M387.5,509.9h-33.4v33.4h33.4c9.2,0,16.7-7.5,16.7-16.7S396.7,509.9,387.5,509.9z"/>
<path class="st4" d="M387.5,610.1h-66.8c-9.2,0-16.7-7.5-16.7-16.7s7.5-16.7,16.7-16.7h66.8c9.2,0,16.7,7.5,16.7,16.7
	S396.7,610.1,387.5,610.1z"/>
<path class="st6" d="M387.5,576.7h-33.4v33.4h33.4c9.2,0,16.7-7.5,16.7-16.7S396.7,576.7,387.5,576.7z"/>
<path class="st4" d="M111.3,524.6c-6.5-6.5-17.1-6.5-23.6,0l-11.8,11.8l-11.8-11.8c-6.5-6.5-17.1-6.5-23.6,0s-6.5,17.1,0,23.6
	L52.3,560l-11.8,11.8c-6.5,6.5-6.5,17.1,0,23.6c3.3,3.3,7.5,4.9,11.8,4.9s8.5-1.6,11.8-4.9l11.8-11.8l11.8,11.8
	c3.3,3.3,7.5,4.9,11.8,4.9s8.5-1.6,11.8-4.9c6.5-6.5,6.5-17.1,0-23.6L99.5,560l11.8-11.8C117.8,541.7,117.8,531.1,111.3,524.6z"/>
<path class="st5" d="M87.7,595.4c3.3,3.3,7.5,4.9,11.8,4.9s8.5-1.6,11.8-4.9c6.5-6.5,6.5-17.1,0-23.6L99.5,560l11.8-11.8
	c6.5-6.5,6.5-17.1,0-23.6s-17.1-6.5-23.6,0l-11.8,11.8v47.2L87.7,595.4z"/>
</svg>
