<?xml version="1.0" encoding="utf-8"?>
<!-- Generator: Adobe Illustrator 19.0.0, SVG Export Plug-In . SVG Version: 6.00 Build 0)  -->
<svg version="1.1" id="Warstwa_1" xmlns="http://www.w3.org/2000/svg" xmlns:xlink="http://www.w3.org/1999/xlink" x="0px" y="0px"
	 viewBox="-41 164.9 512 512" style="enable-background:new -41 164.9 512 512;" xml:space="preserve">
<style type="text/css">
	.st0{fill:#656691;}
	.st1{fill:#575988;}
	.st2{fill:#FFF3C0;}
	.st3{fill:#FFE888;}
	.st4{fill:#A9B853;}
	.st5{fill:#EFDA84;}
	.st6{fill:#E5CB5E;}
	.st7{fill:#5DABC6;}
	.st8{fill:#487F93;}
</style>
<path class="st0" d="M350,344.9v317c0,8.4-6.6,15-15,15H-26c-8.4,0-15-6.6-15-15v-422c0-8.4,6.6-15,15-15h46l30,120H350z"/>
<path class="st1" d="M350,344.9v317c0,8.4-6.6,15-15,15H215v-332H350z"/>
<path class="st2" d="M410,239.9v346H133.7c-14.1,17.4-49.2,30-68.7,30c-24.3,0-45-20.1-45-45v-346l18.9-15l11.1,15h90l15-15l15,15
	h90l15-15l15,15h105C403.4,224.9,410,231.5,410,239.9z"/>
<path class="st3" d="M410,239.9v346H215v-361h45l15-15l15,15h105C403.4,224.9,410,231.5,410,239.9z"/>
<path class="st4" d="M125,374.9c-3.9,0-7.8-1.6-10.6-4.4l-30-30c-5.9-5.9-5.9-15.4,0-21.2s15.4-5.9,21.2,0l15.3,15.3l20.7-41.4
	c3.7-7.4,12.7-10.4,20.1-6.7c7.4,3.7,10.4,12.7,6.7,20.1l-30,60c-2.2,4.3-6.3,7.3-11,8.1C126.6,374.8,125.8,374.9,125,374.9z"/>
<path class="st4" d="M125,494.9c-3.9,0-7.8-1.6-10.6-4.4l-30-30c-5.9-5.9-5.9-15.4,0-21.2s15.4-5.9,21.2,0l15.3,15.3l20.7-41.4
	c3.7-7.4,12.7-10.4,20.1-6.7c7.4,3.7,10.4,12.7,6.7,20.1l-30,60c-2.2,4.3-6.3,7.3-11,8.1C126.6,494.8,125.8,494.9,125,494.9z"/>
<g>
	<path class="st5" d="M350,329.9c0,8.4-6.6,15-15,15H215c-8.4,0-15-6.6-15-15c0-8.4,6.6-15,15-15h120
		C343.4,314.9,350,321.5,350,329.9z"/>
	<path class="st5" d="M350,389.9c0,8.4-6.6,15-15,15H215c-8.4,0-15-6.6-15-15c0-8.4,6.6-15,15-15h120
		C343.4,374.9,350,381.5,350,389.9z"/>
	<path class="st5" d="M350,449.9c0,8.4-6.6,15-15,15H215c-8.4,0-15-6.6-15-15c0-8.4,6.6-15,15-15h120
		C343.4,434.9,350,441.5,350,449.9z"/>
	<path class="st5" d="M471,570.9c0,24.9-21.1,45-46,45H65c24.9,0,45-20.1,45-45c0-8.4,6.6-15,15-15h331
		C464.4,555.9,471,562.5,471,570.9z"/>
</g>
<path class="st6" d="M335,464.9H215v-30h120c8.4,0,15,6.6,15,15C350,458.3,343.4,464.9,335,464.9z"/>
<path class="st6" d="M335,404.9H215v-30h120c8.4,0,15,6.6,15,15C350,398.3,343.4,404.9,335,404.9z"/>
<path class="st6" d="M335,344.9H215v-30h120c8.4,0,15,6.6,15,15C350,338.3,343.4,344.9,335,344.9z"/>
<path class="st6" d="M471,570.9c0,24.9-21.1,45-46,45H215v-60h241C464.4,555.9,471,562.5,471,570.9z"/>
<path class="st7" d="M230,209.9v60c0,8.4-6.6,15-15,15s-15-6.6-15-15v-60c0-8.4-6.6-15-15-15s-15,6.6-15,15v15h-30v-15
	c0-24.9,20.1-45,45-45c11.7,0,22.2,4.5,30,11.7C224.3,184.7,230,196.7,230,209.9z"/>
<path class="st8" d="M305,164.9c-24.8,0-45,20.2-45,45v15h30v-15c0-8.3,6.7-15,15-15s15,6.7,15,15v60c0,8.3,6.7,15,15,15
	s15-6.7,15-15v-60C350,185.1,329.8,164.9,305,164.9z"/>
<path class="st7" d="M65,164.9c-24.8,0-45,20.2-45,45v15h30v-15c0-8.3,6.7-15,15-15s15,6.7,15,15v60c0,8.3,6.7,15,15,15
	s15-6.7,15-15v-60C110,185.1,89.8,164.9,65,164.9z"/>
<path class="st8" d="M215,284.9V176.6c9.3,8.1,15,20.1,15,33.3v60C230,278.3,223.4,284.9,215,284.9z"/>
</svg>
