<?xml version="1.0" encoding="utf-8"?>
<!-- Generator: Adobe Illustrator 19.0.0, SVG Export Plug-In . SVG Version: 6.00 Build 0)  -->
<svg version="1.1" id="Warstwa_1" xmlns="http://www.w3.org/2000/svg" xmlns:xlink="http://www.w3.org/1999/xlink" x="0px" y="0px"
	 viewBox="-41 164.9 512 512" style="enable-background:new -41 164.9 512 512;" xml:space="preserve">
<style type="text/css">
	.st0{fill:#575988;}
	.st1{fill:#656691;}
	.st2{fill:#FFF5F5;}
	.st3{fill:#EFE2DD;}
	.st4{fill:#FFE471;}
	.st5{fill:#EF9050;}
	.st6{fill:#F2CA20;}
	.st7{fill:#E1D3CE;}
	.st8{fill:#CDBFBA;}
</style>
<path class="st0" d="M320.6,397.3l-28.9,47.7l96.3,112.6l83-34.2L320.6,397.3z"/>
<path class="st0" d="M353.6,591.8L241,495.5l-44.2,32.4l122.6,149L353.6,591.8z"/>
<path class="st1" d="M457.3,597.9L319.9,460.2l-63.6,63.6l137.6,137.3v-63.3H457.3z"/>
<path class="st2" d="M321.7,426.3l-33.5,36.9l-56.9-59l-54.1-55.8c10.8-8.7,20.4-18.7,28.6-29.9l91.6-128.6
	c36.5-36.9,98.4-32.2,139.4,8.7s45.6,102.9,10.6,137.9L321.7,426.3z"/>
<path class="st3" d="M288.1,463.2l-56.9-59l205.6-205.6c40.9,40.9,45.6,102.9,10.6,137.9l-125.8,89.7L288.1,463.2z"/>
<path class="st1" d="M221.5,540.4L95.3,414.2c4-3.2,49.6-39.5,52.2-41.6c7.4-6.2,29.1-23.5,29.7-24.2c15.7,4.7,30.8,11.7,44.6,21.2
	c8.9,5.9,17,12.7,24.2,19.9c20.6,20.6,34.8,45.8,42.2,73.6l-25,28C252.7,503.3,223.4,538.1,221.5,540.4z"/>
<path class="st1" d="M221.5,540.4l-63.2-63.2l87.6-87.6c20.6,20.6,34.8,45.8,42.2,73.6l-25,28C252.7,503.3,223.4,538.1,221.5,540.4z
	"/>
<path class="st2" d="M132.2,651.8L-16.3,503.3l111.6-89.1c35.2,2.5,64.9,17.8,85.3,37.3l1.7,1.7c20.4,20.8,36.7,50.7,39.2,87.2
	L132.2,651.8z"/>
<path class="st3" d="M132.2,651.8L58,577.5l124.3-124.3c20.4,20.8,36.7,50.7,39.2,87.2L132.2,651.8z"/>
<path class="st3" d="M119.1,662.4c-36.1,24.2-89.3,16.8-126-19.9c-40.9-40.9-45.6-102.9-10.6-137.9c35-35,96.9-30.3,137.9,10.6
	l-31.8,74.2L119.1,662.4z"/>
<path class="st4" d="M203.5,516.8c-29.2-29.2-29.2-76.8,0-106.1s76.8-29.2,106.1,0s29.2,76.8,0,106.1
	C280.3,546.1,232.7,546.1,203.5,516.8z"/>
<path class="st5" d="M288.4,432c-17.5-17.5-46.1-17.5-63.6,0c-17.5,17.5-17.5,46.1,0,63.6c17.5,17.5,46.1,17.5,63.6,0
	C305.9,478.1,305.9,449.5,288.4,432z"/>
<path class="st6" d="M256.5,442.6l21.2,21.2L256.5,485l-21.2-21.2L256.5,442.6z"/>
<path class="st7" d="M88.5,589.4l30.5,73c-36.1,24.2-89.3,16.8-126-19.9l127.3-127.3L88.5,589.4z"/>
<path class="st8" d="M120.3,515.1l-74.2,74.2l73,73c4.2-2.8,8.2-5.7,11.9-9.4C166,617.9,161.3,556.1,120.3,515.1z"/>
</svg>
