<?xml version="1.0" encoding="utf-8"?>
<!-- Generator: Adobe Illustrator 19.0.0, SVG Export Plug-In . SVG Version: 6.00 Build 0)  -->
<svg version="1.1" id="Warstwa_1" xmlns="http://www.w3.org/2000/svg" xmlns:xlink="http://www.w3.org/1999/xlink" x="0px" y="0px"
	 viewBox="-41 164.9 512 512" style="enable-background:new -41 164.9 512 512;" xml:space="preserve">
<style type="text/css">
	.st0{fill:#EF9050;}
	.st1{fill:#C66F34;}
	.st2{fill:#575988;}
	.st3{fill:#5DABC6;}
	.st4{fill:#487F93;}
</style>
<path class="st0" d="M288.8,245.6c-2.4,5.7-7.8,9.3-13.8,9.3h-30v151.9c-11.4,6.9-21.3,15-30,24.9c-8.7-9.9-18.6-18-30-24.9V254.9
	h-30c-6,0-11.4-3.6-13.8-9.3s-1.2-12,3.3-16.2l60-60c2.7-3,6.6-4.5,10.5-4.5c3.9,0,7.8,1.5,10.5,4.5l60,60
	C290,233.6,291.2,239.9,288.8,245.6z"/>
<path class="st1" d="M288.8,245.6c-2.4,5.7-7.8,9.3-13.8,9.3h-30v151.9c-11.4,6.9-21.3,15-30,24.9V164.9c3.9,0,7.8,1.5,10.5,4.5
	l60,60C290,233.6,291.2,239.9,288.8,245.6z"/>
<path class="st2" d="M466.5,380.4l-61-60c-4.2-4.5-10.5-5.7-16.2-3.3c-5.7,2.4-9.3,7.8-9.3,13.8v30h-75c-21.9,0-42.3,6-60,15.9
	c-11.4,6.9-21.3,15-30,24.9l-18.6,30l48.6,49.2c0-33,27-60,60-60h75v30c0,6,3.6,11.4,9.3,13.8c5.7,2.4,12,1.2,16.2-3.3l61-60
	C472.5,395.7,472.5,386.1,466.5,380.4z"/>
<path class="st3" d="M245,480.9v181c0,8.4-6.6,15-15,15h-30c-8.4,0-15-6.6-15-15v-181c0-33-27-60-60-60H49v30c0,6-3.6,11.4-9.3,13.8
	c-5.7,2.4-12,1.2-16.2-3.3l-60-60c-6-5.7-6-15.3,0-21l60-60c4.2-4.5,10.5-5.7,16.2-3.3s9.3,7.8,9.3,13.8v30h76
	c21.9,0,42.3,6,60,15.9c11.4,6.9,21.3,15,30,24.9C233.6,423,245,450.6,245,480.9z"/>
<path class="st4" d="M245,480.9v181c0,8.4-6.6,15-15,15h-15V401.7C233.6,423,245,450.6,245,480.9z"/>
</svg>
