<?xml version="1.0" encoding="utf-8"?>
<!-- Generator: Adobe Illustrator 18.0.0, SVG Export Plug-In . SVG Version: 6.00 Build 0)  -->
<!DOCTYPE svg PUBLIC "-//W3C//DTD SVG 1.1//EN" "http://www.w3.org/Graphics/SVG/1.1/DTD/svg11.dtd">
<svg version="1.1" id="Capa_1" xmlns="http://www.w3.org/2000/svg" xmlns:xlink="http://www.w3.org/1999/xlink" x="0px" y="0px"
	 viewBox="0 176.2 595.3 489.6" enable-background="new 0 176.2 595.3 489.6" xml:space="preserve">
<path fill="#FCD0A3" d="M513.9,339V176.2h-208c-26.4,0-50.6,14.9-62.4,38.6l-38.9,77.7H0v34.9L72.9,455
	c12.4,21.7,35.5,35.1,60.6,35.1H286v175.6h309.3V420.4L513.9,339z"/>
<path fill="#FFB983" d="M595.3,420.4L513.9,339V176.2h-208c-26.4,0-50.6,14.9-62.4,38.6l-38.9,77.7l236,303.5v69.8h154.6
	L595.3,420.4L595.3,420.4z"/>
<path fill="#C66F34" d="M444.1,350.6L444.1,350.6c-38.5,0-69.8-31.2-69.8-69.8V176.2h139.5v104.6
	C513.9,319.4,482.7,350.6,444.1,350.6z"/>
<circle fill="#C66F34" cx="286" cy="286.7" r="23.3"/>
<rect x="286" y="595.9" fill="#656691" width="309.3" height="69.8"/>
<rect x="440.6" y="595.9" fill="#575988" width="154.6" height="69.8"/>
<polygon fill="#C66F34" points="0,292.5 0,327.4 11.1,346.7 65.4,292.5 "/>
</svg>
