<?xml version="1.0" encoding="utf-8"?>
<!-- Generator: Adobe Illustrator 19.0.0, SVG Export Plug-In . SVG Version: 6.00 Build 0)  -->
<svg version="1.1" id="Capa_1" xmlns="http://www.w3.org/2000/svg" xmlns:xlink="http://www.w3.org/1999/xlink" x="0px" y="0px"
	 viewBox="-41 164.9 512 512" style="enable-background:new -41 164.9 512 512;" xml:space="preserve">
<style type="text/css">
	.st0{fill:#A9B853;}
	.st1{fill:#8F9936;}
	.st2{fill:#656691;}
	.st3{fill:#575988;}
	.st4{fill:#B1B3DD;}
	.st5{fill:#E2E5AE;}
	.st6{fill:#FCD0A3;}
	.st7{fill:#FFB983;}
	.st8{fill:#CCCC8B;}
	.st9{fill:#868CB7;}
</style>
<path class="st0" d="M64,164.9c-57.9,0-105,47.1-105,105s47.1,105,105,105s105-47.1,105-105S121.9,164.9,64,164.9z"/>
<path class="st1" d="M169,269.9c0,57.9-47.1,105-105,105v-210C121.9,164.9,169,212,169,269.9z"/>
<path class="st2" d="M366,164.9c-57.9,0-105,47.1-105,105s47.1,105,105,105s105-47.1,105-105S423.9,164.9,366,164.9z"/>
<path class="st3" d="M471,269.9c0,57.9-47.1,105-105,105v-210C423.9,164.9,471,212,471,269.9z"/>
<path class="st4" d="M406.5,289.4c6,5.7,6,15.3,0,21c-5.4,6-15.6,6-21,0L366,291.2l-19.5,19.2c-5.4,6-15.6,6-21,0
	c-6-5.7-6-15.3,0-21l19.2-19.5l-19.2-19.5c-6-5.7-6-15.3,0-21c5.7-6,15.3-6,21,0l19.5,19.2l19.5-19.2c5.7-6,15.3-6,21,0
	c6,5.7,6,15.3,0,21l-19.2,19.5L406.5,289.4z"/>
<path class="st5" d="M119.5,250.4L64,305.9l-4.5,4.5c-2.7,3-6.6,4.5-10.5,4.5s-7.8-1.5-10.5-4.5l-30-30c-6-5.7-6-15.3,0-21
	c5.7-6,15.3-6,21,0L49,278.6l15-15l34.5-34.2c5.7-6,15.3-6,21,0C125.5,235.1,125.5,244.7,119.5,250.4z"/>
<path class="st6" d="M395,435.9c16.5,0,30,13.5,30,30v135c0,17.1-17.4,30-25.8,45c-2.4,4.8-4.2,10.6-4.2,16c0,8.3-6.7,15-15,15H230
	c-8.3,0-15-6.7-15-15v-13c0-1.2,0-2.1-0.3-3c-3.3-18-34.2-22.2-47.1-37.2L86,513.9c-9.6-12.6-7.5-30.6,4.2-40.8
	c12-10.2,29.7-9.6,41.1,1.5c0,0,51.3,51.3,53.7,54c0-9,0-17.7,0-17.7v-165c0-16.5,13.5-30,30-30s30,13.5,30,30v90
	c0-16.5,13.5-30,30-30s30,13.5,30,30c0-16.5,13.5-30,30-30s30,13.5,30,30v30C365,449.4,378.5,435.9,395,435.9z"/>
<path class="st7" d="M395,435.9c16.5,0,30,13.5,30,30v135c0,17.1-17.4,30-25.8,45c-2.4,4.8-4.2,10.6-4.2,16c0,0,0,0,0,0
	c0,8.3-6.7,15-15,15h-75v-241c0-16.5,13.5-30,30-30s30,13.5,30,30v30C365,449.4,378.5,435.9,395,435.9z"/>
<path class="st8" d="M119.5,250.4L64,305.9v-42.3l34.5-34.2c5.7-6,15.3-6,21,0C125.5,235.1,125.5,244.7,119.5,250.4z"/>
<path class="st9" d="M406.5,289.4c6,5.7,6,15.3,0,21c-5.4,6-15.6,6-21,0L366,291.2v-42.6l19.5-19.2c5.7-6,15.3-6,21,0
	c6,5.7,6,15.3,0,21l-19.2,19.5L406.5,289.4z"/>
</svg>
