<?xml version="1.0" encoding="utf-8"?>
<!-- Generator: Adobe Illustrator 19.0.0, SVG Export Plug-In . SVG Version: 6.00 Build 0)  -->
<svg version="1.1" id="Warstwa_1" xmlns="http://www.w3.org/2000/svg" xmlns:xlink="http://www.w3.org/1999/xlink" x="0px" y="0px"
	 viewBox="-41 164.9 512 512" style="enable-background:new -41 164.9 512 512;" xml:space="preserve">
<style type="text/css">
	.st0{fill:#C66F34;}
	.st1{fill:#575988;}
	.st2{fill:#F2CA20;}
	.st3{fill:#FFE471;}
</style>
<path class="st0" d="M424.2,356.9c-8.3,0-15.1-6.8-15.1-15.1V221.1c0-8.3,6.8-15.1,15.1-15.1s15.1,6.8,15.1,15.1v120.7
	C439.3,350.1,432.5,356.9,424.2,356.9z"/>
<path class="st1" d="M424.2,164.9H318.1c-8.3,0-15.1,6.8-15.1,15.1V252c0,8.3,6.8,15.1,15.1,15.1h121.1V180
	C439.3,171.6,432.5,164.9,424.2,164.9z"/>
<path class="st2" d="M455.9,326.7H335.5c-8.3,0-15.1,6.8-15.1,15.1v57.9H215c-8.3,0-15.1,6.8-15.1,15.1v57.9H94.5
	c-8.3,0-15.1,6.8-15.1,15.1v57.9H-25.9c-8.3,0-15.1,6.8-15.1,15.1v88.1c0,8.3,6.8,15.1,15.1,15.1h481.8c8.3,0,15.1-6.8,15.1-15.1
	V341.8C471,333.5,464.3,326.7,455.9,326.7z"/>
<path class="st3" d="M455.9,326.7H335.5c-8.3,0-15.1,6.8-15.1,15.1v57.9H215V664h240.9c8.3,0,15.1-6.8,15.1-15.1V341.8
	C471,333.5,464.3,326.7,455.9,326.7z"/>
</svg>
