<?xml version="1.0" encoding="utf-8"?>
<!-- Generator: Adobe Illustrator 19.0.0, SVG Export Plug-In . SVG Version: 6.00 Build 0)  -->
<svg version="1.1" id="Layer_1" xmlns="http://www.w3.org/2000/svg" xmlns:xlink="http://www.w3.org/1999/xlink" x="0px" y="0px"
	 viewBox="-41 164.9 512 512" style="enable-background:new -41 164.9 512 512;" xml:space="preserve">
<style type="text/css">
	.st0{fill:#FFB983;}
	.st1{fill:#FCD0A3;}
	.st2{fill:#29CCB1;}
	.st3{fill:#73C3FF;}
	.st4{fill:#FFE471;}
	.st5{fill:#5DABC6;}
	.st6{fill:#487F93;}
</style>
<path class="st0" d="M303.3,420h-130c-6.8,0-12.7-4.5-14.5-11.1s1-13.5,6.9-16.9c56.6-33.5,86-72.5,89.9-119.3
	c1.4-16.3,15.8-29.2,32.3-29c16.8,0.3,32.5,7,44.2,18.9c11.8,12,18.3,27.8,18.3,44.6c0,0,0,0,0,0v5c0,41-12.1,67.1-34.6,101
	C313,417.5,308.3,420,303.3,420z"/>
<path class="st1" d="M462.6,437.1c0-26-21.1-47.1-47.1-47.1H173.3c-2.7,0-5.3,0.7-7.6,2.1c-17,10.1-34.2,18.3-48,25
	c-4.8,2.3-9.4,4.5-13.5,6.6c-5.1,2.5-8.3,7.7-8.3,13.4v192.4c0,5.7,3.2,10.9,8.3,13.4c60.7,30.4,111.2,34,170.1,34
	c9.1,0,18.4-0.1,28-0.2c10.6-0.1,21.6-0.2,33.1-0.2h47.5c26,0,47.1-21.1,47.1-47.1c0-8.7-2.4-16.9-6.5-23.9
	c13.5-8.3,22.6-23.2,22.6-40.2c0-8.7-2.4-16.9-6.5-23.9c13.5-8.3,22.6-23.2,22.6-40.2c0-12.2-4.7-23.4-12.3-31.7
	C458,460.7,462.6,449.2,462.6,437.1z"/>
<g>
	<path class="st2" d="M431.3,306h-32.1c-8.3,0-15-6.7-15-15c0-8.3,6.7-15,15-15h32.1c8.3,0,15,6.7,15,15
		C446.3,299.3,439.6,306,431.3,306z"/>
	<path class="st2" d="M206.9,306h-32.1c-8.3,0-15-6.7-15-15c0-8.3,6.7-15,15-15h32.1c8.3,0,15,6.7,15,15
		C221.9,299.3,215.2,306,206.9,306z"/>
	<path class="st2" d="M255,222.7c-5.2,0-10.2-2.7-13-7.5l-16-27.8c-4.1-7.2-1.7-16.4,5.5-20.5c7.2-4.1,16.4-1.7,20.5,5.5l16,27.8
		c4.1,7.2,1.7,16.4-5.5,20.5C260.1,222.1,257.5,222.7,255,222.7z"/>
	<path class="st2" d="M351.1,222.7c-2.5,0-5.1-0.6-7.5-2c-7.2-4.1-9.6-13.3-5.5-20.5l16-27.8c4.1-7.2,13.3-9.7,20.5-5.5
		c7.2,4.2,9.6,13.3,5.5,20.5l-16,27.8C361.4,220,356.3,222.7,351.1,222.7z"/>
</g>
<path id="SVGCleanerId_0" class="st3" d="M61.6,597.5v79.1H31.6v-79.1c0-8.3,6.7-15,15-15S61.6,589.3,61.6,597.5z"/>
<g>
	<path class="st4" d="M431.3,306h-32.1c-8.3,0-15-6.7-15-15c0-8.3,6.7-15,15-15h32.1c8.3,0,15,6.7,15,15
		C446.3,299.3,439.6,306,431.3,306z"/>
	<path class="st4" d="M206.9,306h-32.1c-8.3,0-15-6.7-15-15c0-8.3,6.7-15,15-15h32.1c8.3,0,15,6.7,15,15
		C221.9,299.3,215.2,306,206.9,306z"/>
	<path class="st4" d="M255,222.7c-5.2,0-10.2-2.7-13-7.5l-16-27.8c-4.1-7.2-1.7-16.4,5.5-20.5c7.2-4.1,16.4-1.7,20.5,5.5l16,27.8
		c4.1,7.2,1.7,16.4-5.5,20.5C260.1,222.1,257.5,222.7,255,222.7z"/>
	<path class="st4" d="M351.1,222.7c-2.5,0-5.1-0.6-7.5-2c-7.2-4.1-9.6-13.3-5.5-20.5l16-27.8c4.1-7.2,13.3-9.7,20.5-5.5
		c7.2,4.2,9.6,13.3,5.5,20.5l-16,27.8C361.4,220,356.3,222.7,351.1,222.7z"/>
</g>
<g>
	<path id="SVGCleanerId_0_1_" class="st3" d="M61.6,597.5v79.1H31.6v-79.1c0-8.3,6.7-15,15-15S61.6,589.3,61.6,597.5z"/>
</g>
<path class="st5" d="M110.7,390H-17.5c-8.3,0-15,6.7-15,15v256.5c0,8.3,6.7,15,15,15.2h96.2c18.4-0.2,34.4-10.8,42.1-26.3
	c3.2-6.3,5-13.5,5-21V405C125.7,396.7,119,390,110.7,390z"/>
<path class="st6" d="M61.6,596.5v80.2H31.6v-80.2c0-8.3,6.7-15,15-15S61.6,588.3,61.6,596.5z"/>
</svg>
