<?xml version="1.0" encoding="utf-8"?>
<!-- Generator: Adobe Illustrator 18.0.0, SVG Export Plug-In . SVG Version: 6.00 Build 0)  -->
<!DOCTYPE svg PUBLIC "-//W3C//DTD SVG 1.1//EN" "http://www.w3.org/Graphics/SVG/1.1/DTD/svg11.dtd">
<svg version="1.1" id="Capa_1" xmlns="http://www.w3.org/2000/svg" xmlns:xlink="http://www.w3.org/1999/xlink" x="0px" y="0px"
	 viewBox="0 115.9 595.3 602.7" enable-background="new 0 115.9 595.3 602.7" xml:space="preserve">
<g>
	<path fill="#656691" d="M473.2,438.4c-38.4,0-69.8,31.4-69.8,69.8s31.4,69.8,69.8,69.8s69.8-31.4,69.8-69.8
		S511.6,438.4,473.2,438.4z"/>
	<path fill="#656691" d="M473.2,577.9c-67.3,0-122.1,55.9-122.1,123.2c0,9.8,7.7,17.4,17.4,17.4h209.3c9.8,0,17.4-7.7,17.4-17.4
		C595.3,633.8,540.5,577.9,473.2,577.9z"/>
</g>
<g>
	<path fill="#575988" d="M595.3,701.1c0,9.8-7.7,17.4-17.4,17.4H473.2V577.9C540.5,577.9,595.3,633.8,595.3,701.1z"/>
	<path fill="#575988" d="M543,508.1c0,38.4-31.4,69.8-69.8,69.8V438.4C511.6,438.4,543,469.8,543,508.1z"/>
</g>
<g>
	<path fill="#EF9050" d="M122.1,438.4c-38.4,0-69.8,31.4-69.8,69.8s31.4,69.8,69.8,69.8s69.8-31.4,69.8-69.8
		S160.4,438.4,122.1,438.4z"/>
	<path fill="#EF9050" d="M122.1,577.9C54.8,577.9,0,633.8,0,701.1c0,9.8,7.7,17.4,17.4,17.4h209.3c9.8,0,17.4-7.7,17.4-17.4
		C244.2,633.8,189.4,577.9,122.1,577.9z"/>
</g>
<path fill="#C66F34" d="M244.2,701.1c0,9.8-7.7,17.4-17.4,17.4H122.1V577.9C189.4,577.9,244.2,633.8,244.2,701.1z"/>
<path fill="#C66F34" d="M191.8,508.1c0,38.4-31.4,69.8-69.8,69.8V438.4C160.4,438.4,191.8,469.8,191.8,508.1z"/>
<g>
	<path fill="#FFE471" d="M297.6,123.3c-38.4,0-69.8,31.4-69.8,69.8s31.4,69.8,69.8,69.8s69.8-31.4,69.8-69.8S336,123.3,297.6,123.3z
		"/>
	<path fill="#FFE471" d="M297.6,262.8c-67.3,0-122.1,55.9-122.1,123.2c0,9.8,7.7,17.4,17.4,17.4h209.3c9.8,0,17.4-7.7,17.4-17.4
		C419.7,318.7,365,262.8,297.6,262.8z"/>
</g>
<g>
	<path fill="#F2CA20" d="M419.7,386.1c0,9.8-7.7,17.4-17.4,17.4H297.6V262.8C365,262.8,419.7,318.7,419.7,386.1z"/>
	<path fill="#F2CA20" d="M367.4,193.1c0,38.4-31.4,69.8-69.8,69.8V123.3C336,123.3,367.4,154.7,367.4,193.1z"/>
</g>
<path fill="#5DABC6" d="M383.1,568.1c-4.5,8.7-14.6,12.2-23.4,8l-62.1-31l-62.1,31c-8.7,4.2-18.8,0.7-23.4-8
	c-4.2-8.4-0.7-18.8,8-23.4l60-30v-58.9c0-9.8,7.7-17.4,17.4-17.4s17.4,7.7,17.4,17.4v58.9l60,30
	C383.8,549.3,387.3,559.8,383.1,568.1z"/>
<path fill="#5495B1" d="M383.1,568.1c-4.5,8.7-14.6,12.2-23.4,8l-62.1-31V438.4c9.8,0,17.4,7.7,17.4,17.4v58.9l60,30
	C383.8,549.3,387.3,559.8,383.1,568.1z"/>
</svg>
