<?xml version="1.0" encoding="utf-8"?>
<!-- Generator: Adobe Illustrator 19.0.0, SVG Export Plug-In . SVG Version: 6.00 Build 0)  -->
<svg version="1.1" id="Capa_1" xmlns="http://www.w3.org/2000/svg" xmlns:xlink="http://www.w3.org/1999/xlink" x="0px" y="0px"
	 viewBox="-41 164.9 512 512" style="enable-background:new -41 164.9 512 512;" xml:space="preserve">
<style type="text/css">
	.st0{fill:#ECECF1;}
	.st1{fill:#D3D3D8;}
</style>
<g>
	<path class="st0" d="M215,226.8c-67.2,0-120,52.5-120,119.1c0,24.9,20.1,45,45,45s45-20.1,45-45c0-16.8,12.9-29.7,30-29.7
		c16.8,0,30,13.2,30,29.7c0,17.8-9,21.7-30,35.7c-15.3,10.5-33.6,26.1-41.7,58.2c-7,29.3,15.3,56,41.7,56.1h0.1
		c20.1,0,40.1-13.8,45.2-33.3c0.6-1.8,1.5-6,9.9-10.2c39.9-20.7,64.8-61.5,64.8-106.5C335,279.3,282.2,226.8,215,226.8z"/>
</g>
<g>
	<path class="st0" d="M215,525.9c-24.9,0-45,20.1-45,45s20.1,45,45,45s45-20.1,45-45S239.9,525.9,215,525.9z"/>
</g>
<path class="st1" d="M260,570.9c0,24.9-20.1,45-45,45v-90C239.9,525.9,260,546,260,570.9z"/>
<path class="st1" d="M335,345.9c0,45-24.9,85.8-64.8,106.5c-8.4,4.2-9.3,8.4-9.9,10.2c-5.1,19.5-25.1,33.3-45.2,33.3H215V381.6
	c21-14,30-17.9,30-35.7c0-16.5-13.2-29.7-30-29.7v-89.4C282.2,226.8,335,279.3,335,345.9z"/>
</svg>
