<?xml version="1.0" encoding="utf-8"?>
<!-- Generator: Adobe Illustrator 19.0.0, SVG Export Plug-In . SVG Version: 6.00 Build 0)  -->
<svg version="1.1" id="Capa_1" xmlns="http://www.w3.org/2000/svg" xmlns:xlink="http://www.w3.org/1999/xlink" x="0px" y="0px"
	 viewBox="-41 164.9 512 512" style="enable-background:new -41 164.9 512 512;" xml:space="preserve">
<style type="text/css">
	.st0{fill:#65617D;}
	.st1{fill:#30374E;}
	.st2{fill:#EFAC7F;}
	.st3{fill:#EF9050;}
	.st4{fill:#5DABC6;}
	.st5{fill:#487F93;}
	.st6{fill:#FCD0A3;}
	.st7{fill:#FFB983;}
</style>
<path class="st0" d="M62.3,457.7h113.1V677H62.3V457.7z"/>
<path class="st1" d="M62.3,457.7h113.1v33.8H62.3V457.7z"/>
<path class="st1" d="M62.3,457.7h31.3V677H62.3V457.7z"/>
<path class="st2" d="M252.1,278.3L236.4,294c-24.6,24.6-43.1,54.7-53.9,87.8l-10,30.7h-104c-5.5,0-10.5-1.7-14.7-4.7l0,0l-84.2-59.5
	c-11.2-7.9-14-23.2-6.6-34.6c0.2-0.3,0.4-0.6,0.5-0.8c8.1-11.5,23.9-14.2,35.4-6.1l43.2,30.5c-1.8-19.9-6.1-39.5-12.9-58.4l-21-58.6
	c-4.7-13.2,2.1-27.7,15.3-32.5c13.2-4.7,27.7,2.1,32.5,15.3L79.7,269v-78.9c0-13.8,11-25,24.7-25.4c0.1,0,0.1,0,0.2,0
	c14.2-0.3,25.9,11.7,25.9,26v80l23.9-74.7c4.3-13.3,18.4-20.6,31.7-16.5c0.1,0,0.2,0.1,0.3,0.1c13.3,4.3,20.7,18.6,16.4,31.9
	L182,276.6l34.2-34.2c9.9-9.9,26-9.9,35.9,0C262,252.3,262,268.4,252.1,278.3L252.1,278.3z"/>
<g>
	<path class="st3" d="M252.1,242.4c-6.8-6.8-30.7,17.8-45.6,34.6c-6.6,7.4-18.1,7.2-24.4-0.4l34.2-34.2
		C226.1,232.5,242.2,232.5,252.1,242.4z"/>
	<path class="st3" d="M186.1,179.8c-10.1-2.4-27.4,54.1-35.7,83.7c-2.4,8.6-12.5,12.4-19.9,7.5l23.9-74.7
		C158.7,183,172.9,175.7,186.1,179.8z"/>
	<path class="st3" d="M79.7,269.2v-78.9c0-13.8,11-25,24.7-25.4c-7.5,0.9-8.2,61.6-8,92.7C96.5,266.3,87.8,272.3,79.7,269.2z"/>
	<path class="st3" d="M182.6,381.8l-10,30.7l-43.8,14.2l-60.2-14.2c-5.5,0-10.5-1.7-14.7-4.7l0,0l-84.2-59.5
		c-11.2-7.9-14-23.2-6.6-34.6C-43.3,329.2,96.4,423.1,182.6,381.8L182.6,381.8z"/>
</g>
<path class="st0" d="M58.6,412.6h119.6v65.3H58.6V412.6z"/>
<path class="st1" d="M58.6,412.6h41.5v65.3H58.6V412.6z"/>
<path class="st3" d="M122.8,350.7c-19.3-24.6-43.4-30.1-60.4-30.3C50,287.8,14.7,192.7,23.6,188c-13.2,4.7-20.1,19.3-15.3,32.5
	l21,58.6c6.8,18.9,11.1,38.5,12.9,58.4c0,0,3.8-2.1,7.3-2.7c14.4-2.6,41.7-2.7,62.7,24.2c1.3,1.7,3.3,2.6,5.3,2.6
	c1.4,0,2.9-0.5,4.1-1.4C124.6,357.8,125.1,353.6,122.8,350.7L122.8,350.7z"/>
<path class="st4" d="M273.8,614.4h113.1v62.5H273.8V614.4z"/>
<path class="st5" d="M273.8,614.4h113.1v33.8H273.8V614.4z"/>
<path class="st5" d="M273.8,614.4H305v62.5h-31.3L273.8,614.4L273.8,614.4z"/>
<path class="st6" d="M463.6,435.1l-15.7,15.7c-24.6,24.6-43.1,54.7-53.9,87.8l-10,30.7H280c-5.5,0-10.5-1.7-14.7-4.7l0,0l-84.1-59.5
	c-11.2-7.9-14-23.2-6.6-34.6c0.2-0.3,0.4-0.5,0.6-0.8c8.1-11.5,23.9-14.2,35.4-6.1l43.2,30.5c-1.8-19.9-6.1-39.5-12.9-58.4l-21-58.6
	c-4.7-13.2,2.1-27.7,15.3-32.5c13.2-4.7,27.7,2.1,32.5,15.3l23.7,65.9v-78.7c0-13.8,11-25,24.7-25.4c0.1,0,0.1,0,0.2,0
	c14.2-0.3,25.9,11.7,25.9,26v80l24-74.7c4.3-13.3,18.4-20.6,31.7-16.5c0.1,0,0.2,0.1,0.3,0.1c13.3,4.3,20.7,18.6,16.4,31.9
	l-20.8,64.8l34.2-34.2c9.9-9.9,26-9.9,35.9,0C473.5,409.1,473.5,425.2,463.6,435.1L463.6,435.1z"/>
<path class="st7" d="M463.6,399.2c-6.8-6.8-30.7,17.8-45.6,34.6c-6.6,7.4-18.1,7.2-24.4-0.4l34.2-34.2
	C437.6,389.3,453.6,389.3,463.6,399.2L463.6,399.2z"/>
<path class="st7" d="M397.6,336.6c-10.1-2.4-27.4,54.1-35.7,83.7c-2.4,8.6-12.5,12.4-19.9,7.5l24-74.7
	C370.2,339.8,384.3,332.4,397.6,336.6L397.6,336.6z"/>
<path class="st7" d="M291.2,426v-78.9c0-13.8,11-25,24.7-25.4c-7.5,0.9-8.2,61.6-8,92.7C308,423.1,299.3,429.1,291.2,426z"/>
<path class="st7" d="M394,538.6l-10,30.7l-52.2,23.2L280,569.3c-5.5,0-10.5-1.7-14.7-4.7l0,0l-84.1-59.5c-11.2-7.9-14-23.2-6.6-34.6
	C168.2,485.9,307.8,579.9,394,538.6L394,538.6z"/>
<path class="st4" d="M270.1,569.3h119.6v65.3H270.1V569.3z"/>
<path class="st5" d="M270.1,569.3h41.5v65.3h-41.5V569.3z"/>
<path class="st7" d="M334.3,507.4c-19.3-24.6-43.4-30.1-60.4-30.3c-12.4-32.6-47.6-127.7-38.8-132.4c-13.2,4.7-20.1,19.3-15.3,32.5
	l21,58.6c6.8,18.9,11.1,38.5,12.9,58.4c0,0,3.8-2.1,7.3-2.7c14.4-2.6,41.7-2.7,62.7,24.2c1.3,1.7,3.3,2.6,5.3,2.6
	c1.4,0,2.9-0.5,4.1-1.4C336.1,514.6,336.6,510.4,334.3,507.4L334.3,507.4z"/>
</svg>
