<?xml version="1.0" encoding="utf-8"?>
<!-- Generator: Adobe Illustrator 18.0.0, SVG Export Plug-In . SVG Version: 6.00 Build 0)  -->
<!DOCTYPE svg PUBLIC "-//W3C//DTD SVG 1.1//EN" "http://www.w3.org/Graphics/SVG/1.1/DTD/svg11.dtd">
<svg version="1.1" id="Warstwa_1" xmlns="http://www.w3.org/2000/svg" xmlns:xlink="http://www.w3.org/1999/xlink" x="0px" y="0px"
	 viewBox="0 0 511 511" enable-background="new 0 0 511 511" xml:space="preserve">
<path fill="#EF9050" d="M498.9,228.6c0,126.2-102.3,228.6-228.6,228.6c-126.2,0-228.6-102.3-228.6-228.6C41.8,102.3,144.1,0,270.3,0
	c31,0,60.5,6.2,87.4,17.3c0.5,0.2,1,0.4,1.4,0.6c72.9,30.8,126.4,98.2,137.6,179.2c0,0,0,0.1,0,0.1
	C498.2,207.5,498.9,217.9,498.9,228.6z"/>
<path fill="#C66F34" d="M496.8,197.2C496.8,197.2,496.8,197.2,496.8,197.2C485.6,116.1,432,48.7,359.2,17.9
	c-0.5-0.2-0.9-0.4-1.4-0.6C330.8,6.2,301.3,0,270.3,0c-13.1,0-26,1.1-38.5,3.2c17,2.9,33.4,7.6,48.9,14.1c0.5,0.2,1,0.4,1.4,0.6
	c72.9,30.8,126.5,98.2,137.6,179.2c0,0,0,0.1,0,0.1c1.4,10.2,2.1,20.7,2.1,31.3c0,113.1-82.2,207-190.1,225.3
	c12.5,2.1,25.4,3.2,38.5,3.2c126.2,0,228.6-102.3,228.6-228.6C498.9,217.9,498.2,207.5,496.8,197.2z"/>
<path fill="#FCD0A3" d="M14.2,248.6L144,161.5c9.2-6.2,20.5-8.7,31.4-6.9c11,1.8,22.2-0.7,31.5-6.9l17.4-11.7l97.3,145.3
	l-23.9,104.4c-1.9,8.1-2.8,16.4-2.8,24.6c0,21.2,6.1,42.2,17.9,60.2c2.9,4.4,4.3,9.4,4.3,14.4c0,8.4-4.1,16.7-11.5,21.7
	c-10.1,6.8-23.4,5.5-32.1-3L258,488.5c-17.7-17.4-31.3-38.5-39.9-61.9l-8.4-22.9l-86.4,57.8c-13.8,9.2-32.5,5.2-41.3-9.1
	c-8.5-13.8-4.1-32,9.3-41c0.2-0.1,0.2-0.3,0.1-0.4c-0.1-0.1-0.2-0.2-0.4-0.2c-3.4,1.3-7,2-10.5,2c-5.7,0-11.3-1.7-16.1-4.8
	c-3.3-2.2-6.2-5-8.5-8.6c-4.5-6.8-5.8-14.8-4.3-22.2c2.3-11.7,10.7-17.8,12.3-18.9c0.3-0.2,0.4-0.6,0.2-0.9c0,0,0,0,0,0
	c-0.2-0.3-0.6-0.3-0.8-0.2c-2.4,0.6-4.7,0.8-7.1,0.8c-5.9,0-11.7-1.7-16.6-4.9c-3.3-2.2-6.3-5-8.6-8.5c-9-13.7-5.3-32.2,8.3-41.3
	c0.3-0.2,0.7-0.5,1-0.7c0.2-0.2,0.2-0.4,0.2-0.6c0,0-0.1-0.1-0.1-0.1c-0.2-0.1-0.4-0.1-0.6,0c-8.4,2.9-17.6,1.6-25-3.3
	c-3.4-2.2-6.4-5.2-8.8-8.8C-3.1,276.2,0.6,257.7,14.2,248.6z"/>
<path fill="#5DABC6" d="M496.8,197.2l-93.3,64.2l-55.9,37.5c-6.4,4.3-15.1,2.5-19.4-4L219.1,128.2c-4.3-6.5-2.5-15.3,3.9-19.6
	l54.8-36.7l81.3-53.9C432,48.7,485.6,116.1,496.8,197.2C496.8,197.2,496.8,197.2,496.8,197.2z"/>
<path fill="#487F93" d="M223.1,108.5l54.8-36.7l125.6,189.7l-55.9,37.5c-6.4,4.3-15.1,2.5-19.4-4L219.1,128.2
	C214.8,121.6,216.6,112.8,223.1,108.5z"/>
<g>
	<path fill="#FFB983" d="M64.5,408l43.2-23.4c6.1-3.3,13.7-1.6,17.9,4.1L91.5,411c-0.1-0.1-0.2-0.2-0.4-0.2c-3.4,1.3-7,2-10.5,2
		C74.9,412.8,69.3,411.1,64.5,408z"/>
	<path fill="#FFB983" d="M39.5,353.2l42.3-22.9c6.1-3.3,13.7-1.6,17.9,4.1l-34.1,22.3l-1.5,0.7c-0.2-0.3-0.6-0.3-0.8-0.2
		c-2.4,0.6-4.7,0.9-7.1,0.9C50.3,358.1,44.4,356.4,39.5,353.2z"/>
	<path fill="#FFB983" d="M14.7,298.7l37.2-20.2c6.1-3.3,13.7-1.6,17.9,4.1L40.3,302c-0.2-0.1-0.4-0.1-0.6,0
		C31.2,304.9,22.1,303.6,14.7,298.7z"/>
</g>
</svg>
