<?xml version="1.0" encoding="utf-8"?>
<!-- Generator: Adobe Illustrator 19.0.0, SVG Export Plug-In . SVG Version: 6.00 Build 0)  -->
<svg version="1.1" id="Warstwa_1" xmlns="http://www.w3.org/2000/svg" xmlns:xlink="http://www.w3.org/1999/xlink" x="0px" y="0px"
	 viewBox="-41 164.9 512 512" style="enable-background:new -41 164.9 512 512;" xml:space="preserve">
<style type="text/css">
	.st0{fill:#30374E;}
	.st1{fill:#5DABC6;}
	.st2{fill:#5495B1;}
	.st3{fill:#FFE471;}
	.st4{fill:#F2CA20;}
</style>
<path class="st0" d="M-41,526.2v150.7h60V478.7L-41,526.2z"/>
<path class="st0" d="M-41,164.9v106l60-2.4V164.9H-41z"/>
<path class="st0" d="M411,164.9v103.6l60,2.4v-106H411z"/>
<path class="st0" d="M411,478.7v198.2h60V526.2L411,478.7z"/>
<path class="st1" d="M471,270.9v255.3c-14.1-7.5-35.4-13.2-60-17.4c-64.8-11.4-154-12.9-196-12.9s-131.2,1.5-196,12.9
	c-24.6,4.2-45.9,9.9-60,17.4V270.9c0-15.3,24-25.5,60-32.4c9.3-1.8,19.2-3.3,30-4.8c48.3-6,110.2-7.8,166-7.8s117.7,1.8,166,7.8
	c10.8,1.5,20.7,3,30,4.8C447,245.4,471,255.6,471,270.9z"/>
<path class="st2" d="M479.1,270.9v255.3c-14.1-7.5-35.4-13.2-60-17.4c-64.8-11.4-154-12.9-196-12.9v-270c55.8,0,117.7,1.8,166,7.8
	c10.8,1.5,20.7,3,30,4.8C455.1,245.4,479.1,255.6,479.1,270.9z"/>
<path class="st3" d="M51.2,384.7l-4.3-29.7c17.8-2.6,39.4-4.7,62.2-6.3l2,29.9C89,380.2,68.2,382.2,51.2,384.7z"/>
<path class="st4" d="M378.8,384.7c-17-2.5-37.8-4.5-59.8-6l2-29.9c22.8,1.6,44.4,3.6,62.2,6.3L378.8,384.7z"/>
<path class="st3" d="M304.1,341.1l-61.5-9.3L215,276.3l-27.6,55.5l-61.5,9.3l44.4,43.5l-10.2,60.9L215,417l54.9,28.5l-10.2-60.9
	L304.1,341.1z"/>
<path class="st4" d="M259.7,384.6l10.2,60.9L215,417V276.3l27.6,55.5l61.5,9.3L259.7,384.6z"/>
</svg>
