<?xml version="1.0" encoding="utf-8"?>
<!-- Generator: Adobe Illustrator 19.0.0, SVG Export Plug-In . SVG Version: 6.00 Build 0)  -->
<svg version="1.1" id="Warstwa_1" xmlns="http://www.w3.org/2000/svg" xmlns:xlink="http://www.w3.org/1999/xlink" x="0px" y="0px"
	 viewBox="-41 164.9 512 512" style="enable-background:new -41 164.9 512 512;" xml:space="preserve">
<style type="text/css">
	.st0{fill:#E3FAFF;}
	.st1{fill:#CCEAF2;}
	.st2{fill:#FFE471;}
	.st3{fill:#F2CA20;}
	.st4{fill:#F9AF7D;}
	.st5{fill:#EF9050;}
	.st6{fill:#A9B853;}
	.st7{fill:#8F9936;}
	.st8{fill:#656691;}
	.st9{fill:#575988;}
	.st10{fill:#5DABC6;}
	.st11{fill:#487F93;}
</style>
<path class="st0" d="M444.1,292.6h-470c-8.3,0-15.1,6.8-15.1,15.1V628c0,27,21.9,48.9,48.9,48.9h402.5c27,0,48.9-21.9,48.9-48.9
	V307.7C459.2,299.3,452.5,292.6,444.1,292.6z"/>
<path class="st1" d="M444.1,292.6h-235v384.3h201.2c27,0,48.9-21.9,48.9-48.9V307.7C459.2,299.3,452.5,292.6,444.1,292.6z"/>
<path class="st2" d="M209.1,604.7c-56.9,0-103.1-46.3-103.1-103.1c0-56.9,46.3-103.1,103.1-103.1c56.9,0,103.1,46.3,103.1,103.1
	C312.3,558.5,266,604.7,209.1,604.7z"/>
<path class="st3" d="M209.1,398.5v206.3c56.9,0,103.1-46.3,103.1-103.1C312.3,444.7,266,398.5,209.1,398.5z"/>
<path class="st4" d="M209.1,621.6c-66.2,0-120-53.8-120-120s53.8-120,120-120c66.2,0,120,53.8,120,120S275.3,621.6,209.1,621.6z
	 M209.1,411.8c-49.5,0-89.8,40.3-89.8,89.8s40.3,89.8,89.8,89.8s89.8-40.3,89.8-89.8S258.6,411.8,209.1,411.8z"/>
<path class="st5" d="M209.1,381.6v30.2c49.5,0,89.8,40.3,89.8,89.8s-40.3,89.8-89.8,89.8v30.2c66.2,0,120-53.8,120-120
	S275.3,381.6,209.1,381.6z"/>
<path class="st6" d="M197.3,543.7c-4,0-7.9-1.6-10.7-4.4l-30.4-30.4c-5.9-5.9-5.9-15.5,0-21.4c5.9-5.9,15.5-5.9,21.4,0l19.7,19.7
	l43.3-43.3c5.9-5.9,15.5-5.9,21.4,0c5.9,5.9,5.9,15.5,0,21.4l-54,54C205.2,542.1,201.4,543.7,197.3,543.7z"/>
<path class="st7" d="M240.6,463.9l-31.5,31.5v42.8l52.9-52.9c5.9-5.9,5.9-15.5,0-21.4C256.1,458,246.5,458,240.6,463.9z"/>
<path class="st8" d="M410.3,197.1H7.9c-27,0-48.9,21.9-48.9,48.9v76.8h500.2V246C459.2,219,437.3,197.1,410.3,197.1z"/>
<path class="st9" d="M410.3,197.1H209.1v125.7h250.1V246C459.2,219,437.3,197.1,410.3,197.1z"/>
<path class="st10" d="M50.6,259.5c-8.3,0-15.1-6.8-15.1-15.1V180c0-8.3,6.8-15.1,15.1-15.1c8.4,0,15.1,6.8,15.1,15.1v64.4
	C65.7,252.7,58.9,259.5,50.6,259.5z"/>
<path class="st10" d="M110.5,259.5c-8.3,0-15.1-6.8-15.1-15.1V180c0-8.3,6.8-15.1,15.1-15.1c8.4,0,15.1,6.8,15.1,15.1v64.4
	C125.7,252.7,118.9,259.5,110.5,259.5z"/>
<g>
	<path class="st11" d="M307.7,259.5c-8.3,0-15.1-6.8-15.1-15.1V180c0-8.3,6.8-15.1,15.1-15.1c8.4,0,15.1,6.8,15.1,15.1v64.4
		C322.8,252.7,316.1,259.5,307.7,259.5z"/>
	<path class="st11" d="M367.7,259.5c-8.3,0-15.1-6.8-15.1-15.1V180c0-8.3,6.8-15.1,15.1-15.1s15.1,6.8,15.1,15.1v64.4
		C382.8,252.7,376,259.5,367.7,259.5z"/>
</g>
</svg>
