<?xml version="1.0" encoding="utf-8"?>
<!-- Generator: Adobe Illustrator 19.0.0, SVG Export Plug-In . SVG Version: 6.00 Build 0)  -->
<svg version="1.1" id="Capa_1" xmlns="http://www.w3.org/2000/svg" xmlns:xlink="http://www.w3.org/1999/xlink" x="0px" y="0px"
	 viewBox="-41 164.9 512 512" style="enable-background:new -41 164.9 512 512;" xml:space="preserve">
<style type="text/css">
	.st0{fill:#EF9050;}
	.st1{fill:#C66F34;}
	.st2{fill:#FFE471;}
	.st3{fill:#F2CA20;}
	.st4{fill:#A9B853;}
	.st5{fill:#8F9936;}
	.st6{fill:#6E6E6E;}
	.st7{fill:#656691;}
	.st8{fill:#575988;}
	.st9{fill:#5A5A5A;}
	.st10{fill:#F3EEE9;}
	.st11{fill:#E9DFDA;}
</style>
<path class="st0" d="M423.3,325.6L219.4,529.7L105.9,643.1l-70.6-42.4l-0.1,0L-7.2,530l317.4-317.5l77.8,35.3L423.3,325.6z"/>
<path class="st1" d="M423.3,325.6L219.4,529.7L105.9,643.1l-70.6-42.4L388,247.8L423.3,325.6z"/>
<path class="st2" d="M105.9,643.1l-9.5,9.5c-9,9-21,14.6-33.7,15.7l-23.6,2.1L2.4,633.6l-36.9-36.9l2.1-23.6
	c1.1-12.7,6.7-24.7,15.7-33.7l9.5-9.5L105.9,643.1z"/>
<path class="st3" d="M49.4,586.6l56.5,56.5l-9.5,9.5c-9,9-21,14.6-33.7,15.7l-23.6,2.1L2.4,633.6L49.4,586.6z"/>
<path class="st4" d="M403.9,474.9c-1-1.1-2.1-2.3-3.2-3.4l0,0c0,0,0,0,0,0c0,0,0,0,0,0c0,0,0,0,0,0c-22.7-22.5-53.2-35.2-85.1-35.2
	c-32.1,0-62.4,12.5-85.1,35.2c-22.7,22.7-35.3,52.9-35.3,85.1c0,32.1,12.5,62.3,35.2,85.1l0,0c1.1,1.1,2.3,2.3,3.5,3.3
	c1.8,1.7,3.6,3.3,5.5,4.8c21.4,17.6,48.1,27.1,76.1,27.1c32.1,0,62.4-12.5,85.1-35.2c22.7-22.7,35.3-52.9,35.3-85.1
	C435.9,526,424.6,497.2,403.9,474.9L403.9,474.9z"/>
<path class="st5" d="M435.9,556.6c0,32.1-12.5,62.4-35.3,85.1c-22.7,22.7-53,35.2-85.1,35.2c-28.1,0-54.7-9.5-76.1-27.1
	c-1.9-1.5-3.7-3.1-5.5-4.8l170-170.1C424.6,497.2,435.9,526,435.9,556.6L435.9,556.6z"/>
<path class="st6" d="M39.2,670.3l-74.7,6.5c-1.4,0.1-2.9-0.4-3.9-1.4c0,0-0.1,0-0.1-0.1c-1-1-1.6-2.5-1.5-4l6.5-74.7
	c20,0.7,38.1,9.1,51.4,22.4C30.1,632.4,38.5,650.4,39.2,670.3z"/>
<path class="st7" d="M447.6,301.4l-24.2,24.2L310.2,212.5l24.2-24.2c31.2-31.2,81.9-31.2,113.1,0l0,0c15.1,15.1,23.4,35.2,23.4,56.5
	C471,266.2,462.7,286.3,447.6,301.4z"/>
<path class="st8" d="M447.6,301.4l-24.2,24.2l-56.6-56.6l80.8-80.8l0,0c15.1,15.1,23.4,35.2,23.4,56.5
	C471,266.2,462.7,286.3,447.6,301.4z"/>
<path class="st9" d="M39.2,670.3l-74.7,6.5c-1.4,0.1-2.9-0.4-3.9-1.4l56.4-56.4C30.1,632.4,38.5,650.4,39.2,670.3L39.2,670.3z"/>
<path class="st10" d="M368.8,531.6l-58.2,58.9c-2.8,2.9-6.6,4.5-10.6,4.5h0c-4,0-8.6-1.8-11.4-4.7l-25-25.5
	c-5.9-5.9-5.9-15.4,0-21.2c5.9-5.9,15.4-5.9,21.2,0l15.1,15.1l47.6-48.2c5.8-5.9,15.4-6.3,21.3-0.4
	C374.6,515.9,374.6,525.7,368.8,531.6L368.8,531.6z"/>
<path class="st11" d="M368.8,531.6l-58.2,58.9c-2.8,2.9-6.6,4.5-10.6,4.5h0c-4,0-8.6-1.8-11.4-4.7l80.2-80.2
	C374.6,515.9,374.6,525.7,368.8,531.6L368.8,531.6z"/>
</svg>
