<?xml version="1.0" encoding="utf-8"?>
<!-- Generator: Adobe Illustrator 19.0.0, SVG Export Plug-In . SVG Version: 6.00 Build 0)  -->
<svg version="1.1" id="Capa_1" xmlns="http://www.w3.org/2000/svg" xmlns:xlink="http://www.w3.org/1999/xlink" x="0px" y="0px"
	 viewBox="-41 164.9 512 512" style="enable-background:new -41 164.9 512 512;" xml:space="preserve">
<style type="text/css">
	.st0{fill:#EF9050;}
	.st1{fill:#C66F34;}
	.st2{fill:#656691;}
	.st3{fill:#575988;}
	.st4{fill:#FFE471;}
	.st5{fill:#F2CA20;}
</style>
<path class="st0" d="M256.5,227.9v-48c0-8.3-6.7-15-15-15h-60c-8.3,0-15,6.7-15,15v48C189.6,227.9,235.1,227.9,256.5,227.9z"/>
<path class="st0" d="M257.5,315.9c-21.5,0-67,0-90,0v86h90V315.9z"/>
<path class="st0" d="M167.5,489.9v172c0,8.3,6.7,15,15,15h60c8.3,0,15-6.7,15-15v-172C236,489.9,190.5,489.9,167.5,489.9z"/>
<path class="st1" d="M242.5,676.9c8.3,0,15-6.7,15-15v-172c-10.8,0-27.5,0-44.5,0v187H242.5z"/>
<path class="st1" d="M241.5,164.9h-28v63c9.6,0,21.6,0,43,0v-48C256.5,171.6,249.8,164.9,241.5,164.9z"/>
<path class="st1" d="M257.5,315.9c-21.4,0-34.4,0-44,0v86h44V315.9z"/>
<path class="st2" d="M392.7,260.4l-52-44c-2.7-2.3-6.1-3.5-9.7-3.5H59c-8.9,0-15.9,7.8-14.9,16.7l10,88c0.9,7.6,7.3,13.3,14.9,13.3
	h262c3.5,0,7-1.3,9.7-3.5l52-44C399.8,277.4,399.8,266.4,392.7,260.4z"/>
<path class="st3" d="M392.7,260.4l-52-44c-2.7-2.3-6.1-3.5-9.7-3.5H213.5v118H331c3.5,0,7-1.3,9.7-3.5l52-44
	C399.8,277.4,399.8,266.4,392.7,260.4z"/>
<path class="st4" d="M371,386.9H99c-3.5,0-7,1.3-9.7,3.5l-52,44c-7.1,6-7.1,16.9,0,22.9l52,44c2.7,2.3,6.1,3.5,9.7,3.5h262
	c7.6,0,14-5.7,14.9-13.3l10-88C386.9,394.7,380,386.9,371,386.9z"/>
<path class="st5" d="M371,386.9H213.5v118H361c7.6,0,14-5.7,14.9-13.3l10-88C386.9,394.7,380,386.9,371,386.9z"/>
</svg>
