<?xml version="1.0" encoding="utf-8"?>
<!-- Generator: Adobe Illustrator 19.0.0, SVG Export Plug-In . SVG Version: 6.00 Build 0)  -->
<svg version="1.1" id="Warstwa_1" xmlns="http://www.w3.org/2000/svg" xmlns:xlink="http://www.w3.org/1999/xlink" x="0px" y="0px"
	 viewBox="-41 164.9 512 512" style="enable-background:new -41 164.9 512 512;" xml:space="preserve">
<style type="text/css">
	.st0{fill:#E3FAFF;}
	.st1{fill:#CCEAF2;}
	.st2{fill:#656691;}
	.st3{fill:#575988;}
</style>
<path class="st0" d="M375.7,164.9H54.3c-52.6,0-95.3,42.8-95.3,95.3v264.5c0,52.6,42.8,95.3,95.3,95.3H152l52.4,52.4
	c2.9,2.9,6.8,4.4,10.6,4.4c3.8,0,7.7-1.5,10.6-4.4l52.4-52.4h97.6c52.6,0,95.3-42.8,95.3-95.3V260.2
	C471,207.7,428.2,164.9,375.7,164.9z"/>
<path class="st1" d="M375.7,164.9H215v512c3.8,0,7.7-1.5,10.6-4.4l52.4-52.4h97.6c52.6,0,95.3-42.8,95.3-95.3V260.2
	C471,207.7,428.2,164.9,375.7,164.9z"/>
<g>
	<path class="st2" d="M96.9,299.8H46.3c-2.1,0-3.8,1.7-3.8,3.8v10.1c0,2.1,1.7,3.8,3.8,3.8h16v51.4c0,2.1,1.7,3.8,3.8,3.8h11
		c2.1,0,3.8-1.7,3.8-3.8v-51.4h16c2.1,0,3.8-1.7,3.8-3.8v-10.1C100.6,301.5,98.9,299.8,96.9,299.8z"/>
	<path class="st2" d="M119.8,372.5c2.1,0,3.8-1.7,3.8-3.8v-22.9h24.9v22.9c0,2.1,1.7,3.8,3.8,3.8h11c2.1,0,3.8-1.7,3.8-3.8v-65.2
		c0-2.1-1.7-3.8-3.8-3.8h-11c-2.1,0-3.8,1.7-3.8,3.8v24.5h-24.9v-24.5c0-2.1-1.7-3.8-3.8-3.8h-11c-2.1,0-3.8,1.7-3.8,3.8v65.2
		c0,2.1,1.7,3.8,3.8,3.8H119.8z"/>
	<path class="st2" d="M216.1,302.1c-0.6-1.4-1.9-2.2-3.4-2.2H201c-1.5,0-2.8,0.9-3.4,2.2l-28.7,65.2c-0.5,1.2-0.4,2.5,0.3,3.6
		c0.7,1.1,1.9,1.7,3.1,1.7H184c1.5,0,2.8-0.9,3.4-2.2l5.5-12.6h27.8l5.5,12.6c0.6,1.4,1.9,2.2,3.4,2.2h11.8c0,0,0,0,0,0
		c2.1,0,3.8-1.7,3.8-3.8c0-0.7-0.2-1.3-0.5-1.9L216.1,302.1z M212.9,340h-12.2l6.1-13.8L212.9,340z"/>
</g>
<path class="st3" d="M310.4,299.8h-11c-2.1,0-3.8,1.7-3.8,3.8v37.8l-31.2-40.1c-0.7-0.9-1.8-1.4-3-1.4h-11c-2.1,0-3.8,1.7-3.8,3.8
	v65.2c0,2.1,1.7,3.8,3.8,3.8h11c2.1,0,3.8-1.7,3.8-3.8v-36.6l30.2,38.9c0.7,0.9,1.8,1.5,3,1.5h11.9c2.1,0,3.8-1.7,3.8-3.8v-65.2
	C314.1,301.5,312.4,299.8,310.4,299.8z"/>
<path class="st3" d="M386.7,366.6l-24.8-34.2l24.1-26.3c1-1.1,1.3-2.7,0.7-4c-0.6-1.4-1.9-2.2-3.4-2.2h-14c-1,0-2,0.4-2.7,1.2
	l-23.4,24.9v-22.3c0-2.1-1.7-3.8-3.8-3.8h-11c-2.1,0-3.8,1.7-3.8,3.8v65.2c0,2.1,1.7,3.8,3.8,3.8h11c2.1,0,3.8-1.7,3.8-3.8V352
	l5.5-5.9l18.9,25c0.7,0.9,1.8,1.5,3,1.5h13.1c1.4,0,2.7-0.8,3.3-2C387.7,369.2,387.6,367.7,386.7,366.6z"/>
<path class="st2" d="M173.4,413.7c-0.7-1.2-1.9-1.9-3.3-1.9h-12c-1.3,0-2.5,0.7-3.2,1.8l-14.6,24.3l-14.6-24.3
	c-0.7-1.1-1.9-1.8-3.2-1.8h-12c-1.4,0-2.6,0.7-3.3,1.9c-0.7,1.2-0.6,2.6,0.1,3.8L131,456v24.7c0,2.1,1.7,3.8,3.8,3.8h11.2
	c2.1,0,3.8-1.7,3.8-3.8V456l23.7-38.6C174.1,416.3,174.1,414.9,173.4,413.7z"/>
<path class="st2" d="M206.5,410.2c-10.7,0-19.8,3.6-27.1,10.7c-7.3,7.1-11,16.1-11,26.8c0,10.6,3.7,19.6,11,26.8
	c7.3,7.1,16.4,10.7,27.1,10.7s19.8-3.6,27.1-10.7c7.3-7.1,11-16.1,11-26.8s-3.7-19.6-11-26.8C226.2,413.8,217.1,410.2,206.5,410.2z
	 M206.5,467.6c-5.5,0-9.9-1.9-13.7-5.8c-3.8-3.9-5.6-8.5-5.6-14.1c0-5.6,1.8-10.2,5.6-14.1c3.7-3.9,8.2-5.8,13.7-5.8
	s9.9,1.9,13.7,5.8c3.8,3.9,5.6,8.5,5.6,14.1c0,5.6-1.8,10.2-5.6,14.1C216.4,465.7,211.9,467.6,206.5,467.6z"/>
<path class="st3" d="M309.1,411.8h-11c-2.1,0-3.8,1.7-3.8,3.8v36.1c0,5-1.2,9-3.6,11.7c-2.3,2.6-5.3,3.9-9.3,3.9c-4,0-7-1.3-9.3-3.9
	c-2.4-2.8-3.6-6.7-3.6-11.7v-36.1c0-2.1-1.7-3.8-3.8-3.8h-11c-2.1,0-3.8,1.7-3.8,3.8v36.6c0,10.4,3,18.6,8.9,24.4
	c5.9,5.8,13.4,8.7,22.5,8.7s16.6-2.9,22.5-8.7c5.9-5.8,8.9-14,8.9-24.4v-36.6C312.8,413.5,311.1,411.8,309.1,411.8z"/>
<path class="st3" d="M226.3,370.3c0.6,1.4,1.9,2.2,3.4,2.2h11.8h0c2.1,0,3.8-1.7,3.8-3.8c0-0.7-0.2-1.3-0.5-1.8l-28.6-64.9
	c-0.3-0.6-0.7-1.1-1.1-1.4v57.1h5.7L226.3,370.3z"/>
<path class="st3" d="M215,411v18.7c1.9,0.9,3.6,2.2,5.1,3.8c3.8,3.9,5.6,8.5,5.6,14.1c0,5.6-1.8,10.2-5.6,14.1
	c-1.6,1.6-3.3,2.9-5.1,3.8v18.7c7.1-1.4,13.3-4.7,18.5-9.9c7.3-7.1,11-16.1,11-26.8s-3.7-19.6-11-26.8
	C228.3,415.8,222.1,412.5,215,411z"/>
</svg>
