<?xml version="1.0" encoding="utf-8"?>
<!-- Generator: Adobe Illustrator 23.0.6, SVG Export Plug-In . SVG Version: 6.00 Build 0)  -->
<svg version="1.1" id="Warstwa_1" xmlns="http://www.w3.org/2000/svg" xmlns:xlink="http://www.w3.org/1999/xlink" x="0px" y="0px"
	 viewBox="0 0 200.59 150.95" style="enable-background:new 0 0 200.59 150.95;" xml:space="preserve">
<g>
	<path d="M101.45,84.15c10.76,0,16.13-5.38,16.13-16.13v-43.1h-9.22v43.1c0,4.61-2.3,6.91-6.91,6.91H89.92
		c-4.61,0-6.91-2.3-6.91-6.91v-43.1h-9.22v43.1c0,10.76,5.38,16.13,16.13,16.13H101.45z"/>
	<polygon points="163.67,24.92 163.67,69.26 136.02,24.92 126.8,24.92 126.8,84.15 136.02,84.15 136.02,40.06 163.67,84.15 
		172.89,84.15 172.89,24.92 	"/>
	<path d="M27.69,99.04v17.99c0,6,3,8.99,8.99,8.99h11.56v-5.14H36.69c-2.57,0-3.85-1.28-3.85-3.85V99.04c0-2.57,1.28-3.85,3.85-3.85
		h11.56v-5.14H36.69C30.69,90.05,27.69,93.05,27.69,99.04z"/>
	<path d="M67.53,90.05H53.39v5.14l5.74,10.26l-5.74-0.01v20.59h5.14v-15.42h3.49l8.63,15.42h5.86l-8.5-15.19l2.49-0.34
		c4.01-0.53,6.01-3.5,6.01-8.89v-2.57C76.52,93.05,73.52,90.05,67.53,90.05z M71.38,101.61c0,2.57-1.29,3.85-3.85,3.85l-2.52-0.01
		l-5.75-10.27h8.27c2.57,0,3.85,1.28,3.85,3.85V101.61z"/>
	<path d="M97.08,90.05h-6.42c-6,0-8.99,3-8.99,8.99v2.6v4.06v1.67c0,6,3,8.99,8.99,8.99h6.42c6,0,8.99-3,8.99-8.99v-1.67v-4.06v-2.6
		C106.08,93.05,103.08,90.05,97.08,90.05z M100.94,105.71v1.67c0,2.57-1.28,3.85-3.85,3.85h-6.42c-2.57,0-3.85-1.29-3.85-3.85v-1.67
		v-4.06v-2.6c0-2.57,1.28-3.85,3.85-3.85h6.42c2.57,0,3.85,1.28,3.85,3.85v2.6V105.71z"/>
	<polygon points="136.91,118.32 130.49,90.05 125.35,90.05 118.93,118.32 113.79,90.05 108.65,90.05 115.58,126.03 122.27,126.03 
		127.92,98.25 133.57,126.03 140.26,126.03 147.19,90.05 142.05,90.05 	"/>
	<path d="M163.9,90.05h-14.13v35.98h14.13c6,0,8.99-3,8.99-8.99V99.04C172.89,93.05,169.9,90.05,163.9,90.05z M167.75,117.03
		c0,2.57-1.29,3.85-3.85,3.85h-8.99v-25.7h8.99c2.57,0,3.85,1.28,3.85,3.85V117.03z"/>
	<rect x="81.66" y="120.89" width="24.41" height="5.14"/>
	<path d="M64.57,34.14v-9.22H50.05v0l-6.23,0c-10.76,0-16.13,5.38-16.13,16.13v5.23v10.68v27.19h9.22V61.8h27.66v-9.22H36.91V41.05
		c0-4.61,2.3-6.91,6.91-6.91l5.64,0v0H64.57z"/>
</g>
</svg>
